{
DisplayStrings = (
/uniFB1F,
/shindageshshindothebrew,
/tsadidageshhebrew,
/sheqelhebrew,
"\U00F7",
/shekel.salt,
/ampersant.salt
);
copyright = "Copyright (c) 2014 Monotype Imaging Inc. (licensing@monotype.com). All Rights Reserved.";
customParameters = (
{
name = macintoshFONDFamilyID;
value = 128;
},
{
name = macintoshFONDName;
value = "David X Medium";
},
{
name = openTypeHeadFlags;
value = (
);
},
{
name = openTypeNameDescription;
value = "";
},
{
name = openTypeNameLicense;
value = "";
},
{
name = openTypeNameLicenseURL;
value = "";
},
{
name = openTypeNameSampleText;
value = "";
},
{
name = openTypeNameUniqueID;
value = "";
},
{
name = openTypeNameVersion;
value = "";
},
{
name = openTypeOS2FamilyClass;
value = (
    0,
    0
);
},
{
name = openTypeOS2Panose;
value = (
    0,
    0,
    0,
    0,
    0,
    0,
    0,
    0,
    0,
    0
);
},
{
name = openTypeOS2Selection;
value = (
);
},
{
name = openTypeOS2StrikeoutPosition;
value = 250;
},
{
name = openTypeOS2StrikeoutSize;
value = 50;
},
{
name = openTypeOS2SubscriptXOffset;
value = 0;
},
{
name = openTypeOS2SubscriptXSize;
value = 700;
},
{
name = openTypeOS2SubscriptYOffset;
value = 140;
},
{
name = openTypeOS2SubscriptYSize;
value = 650;
},
{
name = openTypeOS2SuperscriptXOffset;
value = 0;
},
{
name = openTypeOS2SuperscriptXSize;
value = 700;
},
{
name = openTypeOS2SuperscriptYOffset;
value = 477;
},
{
name = openTypeOS2SuperscriptYSize;
value = 650;
},
{
name = openTypeOS2Type;
value = (
    2
);
},
{
name = openTypeOS2VendorID;
value = PYRS;
},
{
name = postscriptBlueFuzz;
value = 1;
},
{
name = postscriptBlueScale;
value = 0.039625;
},
{
name = postscriptBlueShift;
value = 7;
},
{
name = postscriptForceBold;
value = 0;
},
{
name = postscriptIsFixedPitch;
value = 0;
},
{
name = postscriptUniqueID;
value = -1;
},
{
name = trademark;
value = "David Hadash is a trademark of Monotype Imaging Inc. and may be registered in certain jurisdictions.";
},
{
name = year;
value = 2007;
}
);

glyphs = (
{
glyphname = uniFB4F;
lastChange = "2015-11-23 15:56:40 +0000";
layers = (
{
layerId = "3138562F-70A2-47D8-8787-D90195410BEE";
name = Regular;
paths = (
{
closed = 1;
nodes = (
"302 61 CURVE SMOOTH",
"347 93 OFFCURVE",
"388 140 OFFCURVE",
"419 202 CURVE SMOOTH",
"466 298 OFFCURVE",
"492 405 OFFCURVE",
"523 525 CURVE SMOOTH",
"526 539 OFFCURVE",
"528 556 OFFCURVE",
"541 556 CURVE SMOOTH",
"546 556 OFFCURVE",
"559 550 OFFCURVE",
"573 537 CURVE SMOOTH",
"729 402 OFFCURVE",
"931 207 OFFCURVE",
"1121 -31 CURVE SMOOTH",
"1128 -39 OFFCURVE",
"1133 -45 OFFCURVE",
"1141 -45 CURVE SMOOTH",
"1145 -45 OFFCURVE",
"1155 -34 OFFCURVE",
"1164 -18 CURVE SMOOTH",
"1188 24 OFFCURVE",
"1211 61 OFFCURVE",
"1236 123 CURVE SMOOTH",
"1243 142 OFFCURVE",
"1249 151 OFFCURVE",
"1249 156 CURVE SMOOTH",
"1249 161 OFFCURVE",
"1241 171 OFFCURVE",
"1232 183 CURVE SMOOTH",
"1196 233 OFFCURVE",
"1100 346 OFFCURVE",
"1010 436 CURVE SMOOTH",
"1007 439 OFFCURVE",
"1003 445 OFFCURVE",
"1003 450 CURVE SMOOTH",
"1003 452 OFFCURVE",
"1005 459 OFFCURVE",
"1010 468 CURVE SMOOTH",
"1094 592 OFFCURVE",
"1164 697 OFFCURVE",
"1164 851 CURVE SMOOTH",
"1164 918 OFFCURVE",
"1133 1009 OFFCURVE",
"1111 1055 CURVE SMOOTH",
"1102 1074 OFFCURVE",
"1091 1081 OFFCURVE",
"1082 1081 CURVE SMOOTH",
"1075 1081 OFFCURVE",
"1064 1072 OFFCURVE",
"1048 1054 CURVE SMOOTH",
"1010 1011 OFFCURVE",
"951 935 OFFCURVE",
"930 905 CURVE SMOOTH",
"917 887 OFFCURVE",
"911 884 OFFCURVE",
"911 872 CURVE SMOOTH",
"911 858 OFFCURVE",
"917 851 OFFCURVE",
"930 824 CURVE SMOOTH",
"949 781 OFFCURVE",
"958 733 OFFCURVE",
"958 686 CURVE SMOOTH",
"958 655 OFFCURVE",
"951 604 OFFCURVE",
"940 570 CURVE SMOOTH",
"935 550 OFFCURVE",
"928 536 OFFCURVE",
"921 536 CURVE SMOOTH",
"919 536 OFFCURVE",
"902 547 OFFCURVE",
"901 549 CURVE SMOOTH",
"738 711 OFFCURVE",
"521 880 OFFCURVE",
"391 989 CURVE SMOOTH",
"358 1016 OFFCURVE",
"349 1062 OFFCURVE",
"349 1144 CURVE SMOOTH",
"349 1219 OFFCURVE",
"338 1291 OFFCURVE",
"319 1337 CURVE SMOOTH",
"311 1355 OFFCURVE",
"302 1366 OFFCURVE",
"292 1366 CURVE SMOOTH",
"285 1366 OFFCURVE",
"270 1351 OFFCURVE",
"256 1334 CURVE SMOOTH",
"227 1298 OFFCURVE",
"184 1243 OFFCURVE",
"157 1206 CURVE SMOOTH",
"145 1188 OFFCURVE",
"138 1178 OFFCURVE",
"138 1172 CURVE SMOOTH",
"138 1158 OFFCURVE",
"150 1138 OFFCURVE",
"155 1117 CURVE SMOOTH",
"167 1079 OFFCURVE",
"177 1041 OFFCURVE",
"181 1002 CURVE SMOOTH",
"184 964 OFFCURVE",
"184 927 OFFCURVE",
"200 857 CURVE SMOOTH",
"242 683 OFFCURVE",
"374 710 OFFCURVE",
"374 571 CURVE SMOOTH",
"374 375 OFFCURVE",
"369 306 OFFCURVE",
"281 265 CURVE SMOOTH",
"254 253 OFFCURVE",
"230 244 OFFCURVE",
"182 224 CURVE SMOOTH",
"159 215 OFFCURVE",
"141 192 OFFCURVE",
"131 163 CURVE SMOOTH",
"116 125 OFFCURVE",
"76 18 OFFCURVE",
"76 -7 CURVE SMOOTH",
"76 -22 OFFCURVE",
"82 -29 OFFCURVE",
"93 -29 CURVE SMOOTH",
"141 -29 OFFCURVE",
"258 29 OFFCURVE"
);
}
);
width = 1286;
}
);
unicode = FB4F;
},
{
glyphname = alefhebrew;
lastChange = "2015-11-23 15:56:40 +0000";
layers = (
{
layerId = "3138562F-70A2-47D8-8787-D90195410BEE";
name = Regular;
paths = (
{
closed = 1;
nodes = (
"159 137 CURVE SMOOTH",
"159 113 OFFCURVE",
"141 75 OFFCURVE",
"129 43 CURVE SMOOTH",
"123 31 OFFCURVE",
"119 18 OFFCURVE",
"119 12 CURVE SMOOTH",
"119 5 OFFCURVE",
"123 0 OFFCURVE",
"136 0 CURVE SMOOTH",
"369 0 LINE SMOOTH",
"388 0 OFFCURVE",
"401 9 OFFCURVE",
"410 22 CURVE SMOOTH",
"437 61 OFFCURVE",
"499 197 OFFCURVE",
"499 215 CURVE SMOOTH",
"499 229 OFFCURVE",
"490 235 OFFCURVE",
"476 235 CURVE SMOOTH",
"401 235 LINE SMOOTH",
"356 235 OFFCURVE",
"333 282 OFFCURVE",
"333 347 CURVE SMOOTH",
"333 412 OFFCURVE",
"363 537 OFFCURVE",
"391 590 CURVE SMOOTH",
"398 604 OFFCURVE",
"405 609 OFFCURVE",
"412 609 CURVE SMOOTH",
"413 609 OFFCURVE",
"424 604 OFFCURVE",
"433 597 CURVE SMOOTH",
"497 545 OFFCURVE",
"577 472 OFFCURVE",
"659 390 CURVE SMOOTH",
"854 200 OFFCURVE",
"944 101 OFFCURVE",
"1058 -34 CURVE SMOOTH",
"1064 -39 OFFCURVE",
"1068 -45 OFFCURVE",
"1075 -45 CURVE SMOOTH",
"1080 -45 OFFCURVE",
"1087 -39 OFFCURVE",
"1094 -27 CURVE SMOOTH",
"1114 9 OFFCURVE",
"1143 65 OFFCURVE",
"1177 133 CURVE SMOOTH",
"1181 140 OFFCURVE",
"1184 151 OFFCURVE",
"1184 158 CURVE SMOOTH",
"1184 165 OFFCURVE",
"1181 169 OFFCURVE",
"1175 176 CURVE SMOOTH",
"1140 222 OFFCURVE",
"996 385 OFFCURVE",
"949 432 CURVE SMOOTH",
"945 436 OFFCURVE",
"940 445 OFFCURVE",
"940 448 CURVE SMOOTH",
"940 455 OFFCURVE",
"944 459 OFFCURVE",
"951 472 CURVE SMOOTH",
"1021 595 OFFCURVE",
"1100 692 OFFCURVE",
"1100 850 CURVE SMOOTH",
"1100 916 OFFCURVE",
"1073 1014 OFFCURVE",
"1044 1057 CURVE SMOOTH",
"1034 1074 OFFCURVE",
"1027 1081 OFFCURVE",
"1017 1081 CURVE SMOOTH",
"1014 1081 OFFCURVE",
"1007 1077 OFFCURVE",
"994 1062 CURVE SMOOTH",
"957 1019 OFFCURVE",
"885 935 OFFCURVE",
"863 907 CURVE SMOOTH",
"853 893 OFFCURVE",
"847 886 OFFCURVE",
"847 871 CURVE SMOOTH",
"847 858 OFFCURVE",
"853 853 OFFCURVE",
"860 837 CURVE SMOOTH",
"881 787 OFFCURVE",
"895 737 OFFCURVE",
"895 681 CURVE SMOOTH",
"895 638 OFFCURVE",
"887 593 OFFCURVE",
"868 547 CURVE SMOOTH",
"865 537 OFFCURVE",
"860 532 OFFCURVE",
"854 532 CURVE SMOOTH",
"851 532 OFFCURVE",
"846 536 OFFCURVE",
"836 545 CURVE SMOOTH",
"808 570 OFFCURVE",
"748 636 OFFCURVE",
"643 733 CURVE SMOOTH",
"505 858 OFFCURVE",
"363 975 OFFCURVE",
"239 1072 CURVE SMOOTH",
"236 1075 OFFCURVE",
"225 1082 OFFCURVE",
"220 1082 CURVE SMOOTH",
"215 1082 OFFCURVE",
"208 1082 OFFCURVE",
"196 1067 CURVE SMOOTH",
"164 1019 OFFCURVE",
"111 937 OFFCURVE",
"98 914 CURVE SMOOTH",
"91 901 OFFCURVE",
"91 900 OFFCURVE",
"91 893 CURVE SMOOTH",
"91 882 OFFCURVE",
"100 879 OFFCURVE",
"112 865 CURVE SMOOTH",
"160 823 OFFCURVE",
"242 756 OFFCURVE",
"300 704 CURVE SMOOTH",
"306 699 OFFCURVE",
"313 690 OFFCURVE",
"313 684 CURVE SMOOTH",
"313 679 OFFCURVE",
"309 672 OFFCURVE",
"306 667 CURVE SMOOTH",
"162 473 OFFCURVE",
"157 317 OFFCURVE",
"157 215 CURVE SMOOTH",
"157 171 OFFCURVE",
"159 152 OFFCURVE"
);
}
);
width = 1221;
}
);
unicode = 05D0;
},
{
glyphname = bethebrew;
lastChange = "2015-11-23 15:56:40 +0000";
layers = (
{
layerId = "3138562F-70A2-47D8-8787-D90195410BEE";
name = Regular;
paths = (
{
closed = 1;
nodes = (
"32 43 CURVE SMOOTH",
"27 31 OFFCURVE",
"25 24 OFFCURVE",
"25 20 CURVE SMOOTH",
"25 7 OFFCURVE",
"35 0 OFFCURVE",
"49 0 CURVE SMOOTH",
"774 0 LINE SMOOTH",
"797 0 OFFCURVE",
"815 12 OFFCURVE",
"831 41 CURVE SMOOTH",
"860 91 OFFCURVE",
"894 156 OFFCURVE",
"904 185 CURVE SMOOTH",
"909 200 OFFCURVE",
"911 204 OFFCURVE",
"911 214 CURVE SMOOTH",
"911 226 OFFCURVE",
"902 235 OFFCURVE",
"887 235 CURVE",
"834 235 LINE SMOOTH",
"793 235 OFFCURVE",
"777 258 OFFCURVE",
"774 344 CURVE SMOOTH",
"769 479 OFFCURVE",
"767 606 OFFCURVE",
"767 733 CURVE SMOOTH",
"767 865 OFFCURVE",
"729 989 OFFCURVE",
"543 989 CURVE SMOOTH",
"297 989 LINE SMOOTH",
"266 989 OFFCURVE",
"256 1018 OFFCURVE",
"249 1043 CURVE SMOOTH",
"244 1062 OFFCURVE",
"236 1081 OFFCURVE",
"222 1081 CURVE SMOOTH",
"209 1081 OFFCURVE",
"196 1065 OFFCURVE",
"182 1045 CURVE SMOOTH",
"146 995 OFFCURVE",
"95 908 OFFCURVE",
"61 850 CURVE SMOOTH",
"44 821 OFFCURVE",
"35 801 OFFCURVE",
"35 794 CURVE SMOOTH",
"35 760 OFFCURVE",
"66 754 OFFCURVE",
"95 754 CURVE SMOOTH",
"494 754 LINE SMOOTH",
"550 754 OFFCURVE",
"580 724 OFFCURVE",
"587 670 CURVE SMOOTH",
"593 624 OFFCURVE",
"603 344 OFFCURVE",
"603 263 CURVE SMOOTH",
"603 249 OFFCURVE",
"598 235 OFFCURVE",
"573 235 CURVE SMOOTH",
"160 235 LINE SMOOTH",
"141 235 OFFCURVE",
"125 224 OFFCURVE",
"116 210 CURVE SMOOTH",
"82 156 OFFCURVE",
"68 125 OFFCURVE"
);
}
);
width = 936;
}
);
unicode = 05D1;
},
{
glyphname = gimelhebrew;
lastChange = "2015-11-23 15:56:40 +0000";
layers = (
{
layerId = "3138562F-70A2-47D8-8787-D90195410BEE";
name = Regular;
paths = (
{
closed = 1;
nodes = (
"68 176 CURVE SMOOTH",
"51 133 OFFCURVE",
"12 -11 OFFCURVE",
"12 -20 CURVE SMOOTH",
"12 -27 OFFCURVE",
"20 -34 OFFCURVE",
"27 -34 CURVE SMOOTH",
"73 -34 OFFCURVE",
"191 27 OFFCURVE",
"239 65 CURVE SMOOTH",
"311 120 OFFCURVE",
"365 188 OFFCURVE",
"388 274 CURVE SMOOTH",
"392 285 OFFCURVE",
"398 287 OFFCURVE",
"401 287 CURVE SMOOTH",
"405 287 OFFCURVE",
"408 284 OFFCURVE",
"408 279 CURVE SMOOTH",
"415 240 OFFCURVE",
"440 48 OFFCURVE",
"466 -29 CURVE SMOOTH",
"469 -39 OFFCURVE",
"480 -46 OFFCURVE",
"483 -46 CURVE SMOOTH",
"496 -46 OFFCURVE",
"503 -38 OFFCURVE",
"505 -34 CURVE SMOOTH",
"523 -4 OFFCURVE",
"548 89 OFFCURVE",
"564 144 CURVE SMOOTH",
"571 166 OFFCURVE",
"574 186 OFFCURVE",
"574 207 CURVE SMOOTH",
"574 214 OFFCURVE",
"571 248 OFFCURVE",
"569 262 CURVE SMOOTH",
"546 450 OFFCURVE",
"535 523 OFFCURVE",
"499 732 CURVE SMOOTH",
"487 805 OFFCURVE",
"442 893 OFFCURVE",
"392 941 CURVE SMOOTH",
"335 995 OFFCURVE",
"273 1034 OFFCURVE",
"213 1068 CURVE SMOOTH",
"196 1077 OFFCURVE",
"191 1081 OFFCURVE",
"182 1081 CURVE SMOOTH",
"175 1081 OFFCURVE",
"170 1074 OFFCURVE",
"164 1067 CURVE SMOOTH",
"145 1043 OFFCURVE",
"76 946 OFFCURVE",
"49 908 CURVE SMOOTH",
"39 893 OFFCURVE",
"35 887 OFFCURVE",
"35 880 CURVE SMOOTH",
"35 869 OFFCURVE",
"41 864 OFFCURVE",
"51 858 CURVE SMOOTH",
"131 823 OFFCURVE",
"222 753 OFFCURVE",
"270 710 CURVE SMOOTH",
"302 681 OFFCURVE",
"313 662 OFFCURVE",
"328 626 CURVE SMOOTH",
"343 585 OFFCURVE",
"358 518 OFFCURVE",
"367 473 CURVE SMOOTH",
"369 462 OFFCURVE",
"369 452 OFFCURVE",
"369 445 CURVE SMOOTH",
"369 434 OFFCURVE",
"367 426 OFFCURVE",
"362 417 CURVE SMOOTH",
"328 364 OFFCURVE",
"290 330 OFFCURVE",
"223 276 CURVE SMOOTH",
"172 235 OFFCURVE",
"100 202 OFFCURVE",
"95 199 CURVE SMOOTH",
"87 195 OFFCURVE",
"73 190 OFFCURVE"
);
}
);
width = 650;
}
);
unicode = 05D2;
},
{
glyphname = dalethebrew;
lastChange = "2015-11-23 15:56:40 +0000";
layers = (
{
layerId = "3138562F-70A2-47D8-8787-D90195410BEE";
name = Regular;
paths = (
{
closed = 1;
nodes = (
"523 718 CURVE SMOOTH",
"535 511 OFFCURVE",
"545 224 OFFCURVE",
"562 -11 CURVE SMOOTH",
"564 -29 OFFCURVE",
"569 -45 OFFCURVE",
"584 -45 CURVE SMOOTH",
"596 -45 OFFCURVE",
"612 -29 OFFCURVE",
"627 -5 CURVE SMOOTH",
"656 43 OFFCURVE",
"682 91 OFFCURVE",
"700 127 CURVE SMOOTH",
"718 166 OFFCURVE",
"718 185 OFFCURVE",
"718 224 CURVE SMOOTH",
"716 357 OFFCURVE",
"704 487 OFFCURVE",
"704 710 CURVE SMOOTH",
"704 730 OFFCURVE",
"711 754 OFFCURVE",
"734 754 CURVE SMOOTH",
"765 754 LINE SMOOTH",
"783 754 OFFCURVE",
"790 767 OFFCURVE",
"798 785 CURVE SMOOTH",
"822 831 OFFCURVE",
"847 903 OFFCURVE",
"856 937 CURVE SMOOTH",
"860 949 OFFCURVE",
"863 959 OFFCURVE",
"863 970 CURVE SMOOTH",
"863 982 OFFCURVE",
"842 989 OFFCURVE",
"827 989 CURVE SMOOTH",
"733 989 LINE SMOOTH",
"699 989 OFFCURVE",
"699 1029 OFFCURVE",
"695 1054 CURVE SMOOTH",
"693 1070 OFFCURVE",
"685 1081 OFFCURVE",
"673 1081 CURVE SMOOTH",
"616 1081 OFFCURVE",
"545 989 OFFCURVE",
"528 989 CURVE SMOOTH",
"285 989 LINE SMOOTH",
"236 989 OFFCURVE",
"237 1014 OFFCURVE",
"225 1055 CURVE SMOOTH",
"222 1068 OFFCURVE",
"209 1081 OFFCURVE",
"202 1081 CURVE SMOOTH",
"189 1081 OFFCURVE",
"177 1072 OFFCURVE",
"168 1057 CURVE SMOOTH",
"126 993 OFFCURVE",
"75 903 OFFCURVE",
"39 831 CURVE SMOOTH",
"30 814 OFFCURVE",
"23 797 OFFCURVE",
"23 790 CURVE SMOOTH",
"23 765 OFFCURVE",
"44 754 OFFCURVE",
"66 754 CURVE SMOOTH",
"489 754 LINE SMOOTH",
"505 754 OFFCURVE",
"521 744 OFFCURVE"
);
}
);
width = 936;
}
);
unicode = 05D3;
},
{
glyphname = hehebrew;
lastChange = "2015-11-23 15:56:40 +0000";
layers = (
{
layerId = "3138562F-70A2-47D8-8787-D90195410BEE";
name = Regular;
paths = (
{
closed = 1;
nodes = (
"878 634 CURVE SMOOTH",
"897 484 OFFCURVE",
"906 212 OFFCURVE",
"914 -11 CURVE SMOOTH",
"914 -32 OFFCURVE",
"921 -45 OFFCURVE",
"933 -45 CURVE SMOOTH",
"944 -45 OFFCURVE",
"953 -34 OFFCURVE",
"965 -18 CURVE SMOOTH",
"993 18 OFFCURVE",
"1028 77 OFFCURVE",
"1051 118 CURVE SMOOTH",
"1070 147 OFFCURVE",
"1071 178 OFFCURVE",
"1071 207 CURVE SMOOTH",
"1071 376 OFFCURVE",
"1064 523 OFFCURVE",
"1060 641 CURVE SMOOTH",
"1053 858 OFFCURVE",
"991 989 OFFCURVE",
"840 989 CURVE SMOOTH",
"362 989 LINE SMOOTH",
"319 989 OFFCURVE",
"297 989 OFFCURVE",
"281 1054 CURVE SMOOTH",
"277 1068 OFFCURVE",
"268 1081 OFFCURVE",
"254 1081 CURVE SMOOTH",
"247 1081 OFFCURVE",
"230 1072 OFFCURVE",
"215 1052 CURVE SMOOTH",
"174 1002 OFFCURVE",
"118 907 OFFCURVE",
"69 824 CURVE SMOOTH",
"59 807 OFFCURVE",
"53 794 OFFCURVE",
"53 783 CURVE SMOOTH",
"53 765 OFFCURVE",
"68 754 OFFCURVE",
"109 754 CURVE SMOOTH",
"748 754 LINE SMOOTH",
"851 754 OFFCURVE",
"872 676 OFFCURVE"
);
},
{
closed = 1;
nodes = (
"184 412 CURVE SMOOTH",
"184 342 OFFCURVE",
"200 108 OFFCURVE",
"215 -20 CURVE SMOOTH",
"216 -32 OFFCURVE",
"220 -45 OFFCURVE",
"232 -45 CURVE SMOOTH",
"237 -45 OFFCURVE",
"247 -41 OFFCURVE",
"258 -29 CURVE SMOOTH",
"288 7 OFFCURVE",
"326 65 OFFCURVE",
"355 109 CURVE SMOOTH",
"367 129 OFFCURVE",
"369 147 OFFCURVE",
"369 171 CURVE SMOOTH",
"369 291 OFFCURVE",
"350 543 OFFCURVE",
"343 600 CURVE SMOOTH",
"342 614 OFFCURVE",
"336 626 OFFCURVE",
"324 626 CURVE SMOOTH",
"315 626 OFFCURVE",
"300 611 OFFCURVE",
"286 593 CURVE SMOOTH",
"256 554 OFFCURVE",
"213 493 OFFCURVE",
"196 462 CURVE SMOOTH",
"186 443 OFFCURVE",
"184 431 OFFCURVE"
);
}
);
width = 1221;
}
);
unicode = 05D4;
},
{
glyphname = vavhebrew;
lastChange = "2015-11-23 15:56:40 +0000";
layers = (
{
guideLines = (
{
angle = 90;
position = "{22, 0}";
}
);
layerId = "3138562F-70A2-47D8-8787-D90195410BEE";
name = Regular;
paths = (
{
closed = 1;
nodes = (
"333 593 CURVE SMOOTH",
"353 466 OFFCURVE",
"367 145 OFFCURVE",
"367 -9 CURVE SMOOTH",
"367 -27 OFFCURVE",
"374 -46 OFFCURVE",
"388 -46 CURVE SMOOTH",
"398 -46 OFFCURVE",
"405 -41 OFFCURVE",
"413 -31 CURVE SMOOTH",
"437 -2 OFFCURVE",
"485 65 OFFCURVE",
"510 111 CURVE SMOOTH",
"523 135 OFFCURVE",
"528 158 OFFCURVE",
"528 181 CURVE SMOOTH",
"528 472 OFFCURVE",
"528 588 OFFCURVE",
"521 706 CURVE SMOOTH",
"516 801 OFFCURVE",
"485 860 OFFCURVE",
"442 901 CURVE SMOOTH",
"381 963 OFFCURVE",
"295 1029 OFFCURVE",
"244 1067 CURVE SMOOTH",
"230 1075 OFFCURVE",
"223 1079 OFFCURVE",
"218 1079 CURVE SMOOTH",
"213 1079 OFFCURVE",
"206 1075 OFFCURVE",
"198 1068 CURVE SMOOTH",
"160 1031 OFFCURVE",
"107 961 OFFCURVE",
"66 898 CURVE SMOOTH",
"59 887 OFFCURVE",
"55 879 OFFCURVE",
"55 869 CURVE SMOOTH",
"55 858 OFFCURVE",
"62 853 OFFCURVE",
"73 846 CURVE SMOOTH",
"116 817 OFFCURVE",
"204 769 OFFCURVE",
"268 711 CURVE SMOOTH",
"309 674 OFFCURVE",
"328 627 OFFCURVE"
);
}
);
width = 650;
}
);
unicode = 05D5;
userData = {
com.typemytype.robofont.guides = (
{
angle = 90;
isGlobal = 0;
magnetic = 5;
x = 50;
y = 0;
}
);
};
},
{
glyphname = zayinhebrew;
lastChange = "2015-11-23 15:56:40 +0000";
layers = (
{
layerId = "3138562F-70A2-47D8-8787-D90195410BEE";
name = Regular;
paths = (
{
closed = 1;
nodes = (
"172 457 CURVE SMOOTH",
"209 353 OFFCURVE",
"279 171 OFFCURVE",
"377 -27 CURVE SMOOTH",
"383 -38 OFFCURVE",
"391 -45 OFFCURVE",
"398 -45 CURVE SMOOTH",
"403 -45 OFFCURVE",
"410 -38 OFFCURVE",
"415 -27 CURVE SMOOTH",
"433 9 OFFCURVE",
"466 82 OFFCURVE",
"483 133 CURVE SMOOTH",
"489 147 OFFCURVE",
"490 154 OFFCURVE",
"490 163 CURVE SMOOTH",
"490 171 OFFCURVE",
"483 185 OFFCURVE",
"478 197 CURVE SMOOTH",
"405 371 OFFCURVE",
"304 541 OFFCURVE",
"304 652 CURVE SMOOTH",
"304 683 OFFCURVE",
"317 697 OFFCURVE",
"347 697 CURVE SMOOTH",
"391 697 OFFCURVE",
"442 658 OFFCURVE",
"471 629 CURVE SMOOTH",
"478 622 OFFCURVE",
"487 617 OFFCURVE",
"494 617 CURVE SMOOTH",
"503 617 OFFCURVE",
"510 626 OFFCURVE",
"519 640 CURVE SMOOTH",
"546 681 OFFCURVE",
"580 765 OFFCURVE",
"589 792 CURVE SMOOTH",
"591 799 OFFCURVE",
"593 805 OFFCURVE",
"593 810 CURVE SMOOTH",
"593 819 OFFCURVE",
"593 828 OFFCURVE",
"582 837 CURVE SMOOTH",
"469 932 OFFCURVE",
"355 1007 OFFCURVE",
"225 1072 CURVE SMOOTH",
"218 1075 OFFCURVE",
"206 1079 OFFCURVE",
"200 1079 CURVE SMOOTH",
"193 1079 OFFCURVE",
"188 1077 OFFCURVE",
"175 1062 CURVE SMOOTH",
"146 1029 OFFCURVE",
"95 957 OFFCURVE",
"66 907 CURVE SMOOTH",
"61 898 OFFCURVE",
"57 891 OFFCURVE",
"57 884 CURVE SMOOTH",
"57 869 OFFCURVE",
"68 864 OFFCURVE",
"80 858 CURVE SMOOTH",
"129 837 OFFCURVE",
"218 805 OFFCURVE",
"218 769 CURVE SMOOTH",
"218 747 OFFCURVE",
"186 647 OFFCURVE",
"164 577 CURVE SMOOTH",
"159 559 OFFCURVE",
"157 545 OFFCURVE",
"157 529 CURVE SMOOTH",
"157 509 OFFCURVE",
"162 482 OFFCURVE"
);
}
);
width = 650;
}
);
unicode = 05D6;
},
{
glyphname = hethebrew;
lastChange = "2015-11-23 15:56:40 +0000";
layers = (
{
layerId = "3138562F-70A2-47D8-8787-D90195410BEE";
name = Regular;
paths = (
{
closed = 1;
nodes = (
"204 -25 CURVE SMOOTH",
"204 -34 OFFCURVE",
"209 -45 OFFCURVE",
"218 -45 CURVE SMOOTH",
"230 -45 OFFCURVE",
"242 -38 OFFCURVE",
"252 -24 CURVE SMOOTH",
"288 25 OFFCURVE",
"324 93 OFFCURVE",
"342 137 CURVE SMOOTH",
"350 158 OFFCURVE",
"358 190 OFFCURVE",
"358 217 CURVE SMOOTH",
"358 428 OFFCURVE",
"343 629 OFFCURVE",
"343 718 CURVE SMOOTH",
"343 742 OFFCURVE",
"350 754 OFFCURVE",
"377 754 CURVE SMOOTH",
"650 754 LINE SMOOTH",
"842 754 OFFCURVE",
"917 600 OFFCURVE",
"933 482 CURVE SMOOTH",
"955 323 OFFCURVE",
"971 74 OFFCURVE",
"979 -22 CURVE SMOOTH",
"981 -41 OFFCURVE",
"989 -46 OFFCURVE",
"996 -46 CURVE SMOOTH",
"1005 -46 OFFCURVE",
"1014 -41 OFFCURVE",
"1022 -29 CURVE SMOOTH",
"1051 12 OFFCURVE",
"1080 68 OFFCURVE",
"1105 115 CURVE SMOOTH",
"1119 142 OFFCURVE",
"1123 169 OFFCURVE",
"1123 193 CURVE SMOOTH",
"1123 323 OFFCURVE",
"1114 453 OFFCURVE",
"1102 573 CURVE SMOOTH",
"1077 807 OFFCURVE",
"940 989 OFFCURVE",
"695 989 CURVE SMOOTH",
"412 989 LINE SMOOTH",
"376 989 OFFCURVE",
"347 993 OFFCURVE",
"333 1045 CURVE SMOOTH",
"326 1070 OFFCURVE",
"315 1079 OFFCURVE",
"299 1079 CURVE SMOOTH",
"285 1079 OFFCURVE",
"270 1062 OFFCURVE",
"265 1055 CURVE SMOOTH",
"196 964 OFFCURVE",
"164 918 OFFCURVE",
"131 857 CURVE SMOOTH",
"123 846 OFFCURVE",
"121 835 OFFCURVE",
"121 824 CURVE SMOOTH",
"121 812 OFFCURVE",
"125 797 OFFCURVE",
"129 778 CURVE SMOOTH",
"174 566 OFFCURVE",
"189 284 OFFCURVE"
);
}
);
width = 1221;
}
);
unicode = 05D7;
},
{
glyphname = tethebrew;
lastChange = "2015-11-23 15:56:40 +0000";
layers = (
{
layerId = "3138562F-70A2-47D8-8787-D90195410BEE";
name = Regular;
paths = (
{
closed = 1;
nodes = (
"286 190 CURVE",
"300 138 OFFCURVE",
"322 75 OFFCURVE",
"355 32 CURVE SMOOTH",
"388 -12 OFFCURVE",
"449 -34 OFFCURVE",
"510 -34 CURVE SMOOTH",
"680 -34 OFFCURVE",
"834 48 OFFCURVE",
"944 156 CURVE SMOOTH",
"1070 282 OFFCURVE",
"1155 520 OFFCURVE",
"1155 663 CURVE SMOOTH",
"1155 850 OFFCURVE",
"1053 1040 OFFCURVE",
"846 1040 CURVE SMOOTH",
"754 1040 OFFCURVE",
"661 1012 OFFCURVE",
"596 961 CURVE SMOOTH",
"584 949 OFFCURVE",
"571 934 OFFCURVE",
"559 905 CURVE SMOOTH",
"535 851 OFFCURVE",
"514 799 OFFCURVE",
"503 749 CURVE SMOOTH",
"501 742 OFFCURVE",
"499 735 OFFCURVE",
"499 720 CURVE SMOOTH",
"499 715 OFFCURVE",
"505 711 OFFCURVE",
"512 711 CURVE SMOOTH",
"516 711 OFFCURVE",
"521 713 OFFCURVE",
"524 715 CURVE SMOOTH",
"594 754 OFFCURVE",
"656 803 OFFCURVE",
"736 803 CURVE SMOOTH",
"825 803 OFFCURVE",
"897 761 OFFCURVE",
"937 696 CURVE SMOOTH",
"960 658 OFFCURVE",
"974 600 OFFCURVE",
"974 541 CURVE SMOOTH",
"974 412 OFFCURVE",
"942 346 OFFCURVE",
"858 287 CURVE SMOOTH",
"804 249 OFFCURVE",
"652 207 OFFCURVE",
"546 207 CURVE SMOOTH",
"476 207 OFFCURVE",
"444 279 OFFCURVE",
"430 337 CURVE SMOOTH",
"406 421 OFFCURVE",
"377 633 OFFCURVE",
"353 749 CURVE SMOOTH",
"326 874 OFFCURVE",
"293 995 OFFCURVE",
"249 1061 CURVE SMOOTH",
"237 1077 OFFCURVE",
"234 1079 OFFCURVE",
"223 1079 CURVE SMOOTH",
"216 1079 OFFCURVE",
"202 1062 OFFCURVE",
"193 1052 CURVE SMOOTH",
"162 1016 OFFCURVE",
"125 971 OFFCURVE",
"76 900 CURVE SMOOTH",
"68 887 OFFCURVE",
"64 880 OFFCURVE",
"64 872 CURVE SMOOTH",
"64 867 OFFCURVE",
"66 858 OFFCURVE",
"71 851 CURVE SMOOTH",
"138 754 OFFCURVE",
"179 609 OFFCURVE",
"198 532 CURVE SMOOTH",
"216 466 OFFCURVE",
"265 265 OFFCURVE"
);
}
);
width = 1221;
}
);
unicode = 05D8;
},
{
glyphname = yodhebrew;
lastChange = "2015-11-23 15:56:40 +0000";
layers = (
{
layerId = "3138562F-70A2-47D8-8787-D90195410BEE";
name = Regular;
paths = (
{
closed = 1;
nodes = (
"245 306 CURVE SMOOTH",
"242 299 OFFCURVE",
"230 279 OFFCURVE",
"230 272 CURVE SMOOTH",
"230 263 OFFCURVE",
"237 260 OFFCURVE",
"244 260 CURVE SMOOTH",
"251 260 OFFCURVE",
"265 265 OFFCURVE",
"279 272 CURVE SMOOTH",
"315 292 OFFCURVE",
"363 325 OFFCURVE",
"394 347 CURVE SMOOTH",
"426 373 OFFCURVE",
"444 387 OFFCURVE",
"473 431 CURVE SMOOTH",
"524 509 OFFCURVE",
"587 619 OFFCURVE",
"587 699 CURVE SMOOTH",
"587 751 OFFCURVE",
"571 799 OFFCURVE",
"531 843 CURVE SMOOTH",
"468 914 OFFCURVE",
"322 1021 OFFCURVE",
"229 1075 CURVE SMOOTH",
"225 1077 OFFCURVE",
"222 1079 OFFCURVE",
"215 1079 CURVE SMOOTH",
"209 1079 OFFCURVE",
"202 1075 OFFCURVE",
"189 1062 CURVE SMOOTH",
"157 1031 OFFCURVE",
"80 918 OFFCURVE",
"62 889 CURVE SMOOTH",
"57 882 OFFCURVE",
"53 872 OFFCURVE",
"53 867 CURVE SMOOTH",
"53 860 OFFCURVE",
"57 853 OFFCURVE",
"66 846 CURVE SMOOTH",
"126 803 OFFCURVE",
"259 727 OFFCURVE",
"321 665 CURVE SMOOTH",
"353 631 OFFCURVE",
"360 593 OFFCURVE",
"360 563 CURVE SMOOTH",
"360 500 OFFCURVE",
"283 378 OFFCURVE"
);
}
);
width = 650;
}
);
unicode = 05D9;
},
{
glyphname = finalkafhebrew;
lastChange = "2015-11-23 15:56:40 +0000";
layers = (
{
layerId = "3138562F-70A2-47D8-8787-D90195410BEE";
name = Regular;
paths = (
{
closed = 1;
nodes = (
"523 708 CURVE",
"543 530 OFFCURVE",
"553 -147 OFFCURVE",
"569 -387 CURVE SMOOTH",
"571 -402 OFFCURVE",
"577 -410 OFFCURVE",
"587 -410 CURVE SMOOTH",
"596 -410 OFFCURVE",
"605 -402 OFFCURVE",
"618 -387 CURVE SMOOTH",
"650 -351 OFFCURVE",
"697 -277 OFFCURVE",
"711 -248 CURVE SMOOTH",
"723 -221 OFFCURVE",
"723 -199 OFFCURVE",
"723 -169 CURVE SMOOTH",
"723 185 OFFCURVE",
"707 460 OFFCURVE",
"707 692 CURVE SMOOTH",
"707 732 OFFCURVE",
"740 747 OFFCURVE",
"769 751 CURVE SMOOTH",
"786 753 OFFCURVE",
"803 761 OFFCURVE",
"810 778 CURVE SMOOTH",
"834 826 OFFCURVE",
"860 891 OFFCURVE",
"872 932 CURVE SMOOTH",
"878 948 OFFCURVE",
"881 961 OFFCURVE",
"881 968 CURVE SMOOTH",
"881 985 OFFCURVE",
"867 989 OFFCURVE",
"834 989 CURVE SMOOTH",
"322 989 LINE SMOOTH",
"273 989 OFFCURVE",
"261 1021 OFFCURVE",
"252 1047 CURVE SMOOTH",
"245 1068 OFFCURVE",
"239 1081 OFFCURVE",
"223 1081 CURVE SMOOTH",
"216 1081 OFFCURVE",
"208 1075 OFFCURVE",
"193 1055 CURVE SMOOTH",
"153 1000 OFFCURVE",
"98 903 OFFCURVE",
"62 844 CURVE SMOOTH",
"51 826 OFFCURVE",
"39 801 OFFCURVE",
"39 794 CURVE SMOOTH",
"39 760 OFFCURVE",
"69 754 OFFCURVE",
"97 754 CURVE SMOOTH",
"468 754 LINE SMOOTH",
"507 754 OFFCURVE",
"519 740 OFFCURVE"
);
}
);
width = 936;
}
);
unicode = 05DA;
},
{
glyphname = kafhebrew;
lastChange = "2015-11-23 15:56:40 +0000";
layers = (
{
layerId = "3138562F-70A2-47D8-8787-D90195410BEE";
name = Regular;
paths = (
{
closed = 1;
nodes = (
"39 52 CURVE SMOOTH",
"34 39 OFFCURVE",
"30 29 OFFCURVE",
"30 22 CURVE SMOOTH",
"30 14 OFFCURVE",
"34 0 OFFCURVE",
"51 0 CURVE",
"564 0 LINE SMOOTH",
"593 0 OFFCURVE",
"625 20 OFFCURVE",
"657 60 CURVE SMOOTH",
"716 131 OFFCURVE",
"783 221 OFFCURVE",
"836 380 CURVE SMOOTH",
"854 432 OFFCURVE",
"868 487 OFFCURVE",
"868 547 CURVE SMOOTH",
"868 792 OFFCURVE",
"754 989 OFFCURVE",
"528 989 CURVE SMOOTH",
"315 989 LINE SMOOTH",
"275 989 OFFCURVE",
"261 1009 OFFCURVE",
"251 1055 CURVE SMOOTH",
"247 1072 OFFCURVE",
"236 1081 OFFCURVE",
"223 1081 CURVE SMOOTH",
"215 1081 OFFCURVE",
"202 1072 OFFCURVE",
"193 1061 CURVE SMOOTH",
"155 1016 OFFCURVE",
"87 907 OFFCURVE",
"46 830 CURVE SMOOTH",
"35 810 OFFCURVE",
"30 799 OFFCURVE",
"30 788 CURVE SMOOTH",
"30 761 OFFCURVE",
"62 754 OFFCURVE",
"104 754 CURVE SMOOTH",
"424 754 LINE SMOOTH",
"586 754 OFFCURVE",
"678 626 OFFCURVE",
"678 460 CURVE SMOOTH",
"678 351 OFFCURVE",
"657 235 OFFCURVE",
"560 235 CURVE",
"167 235 LINE",
"150 235 OFFCURVE",
"138 233 OFFCURVE",
"125 215 CURVE SMOOTH",
"109 192 OFFCURVE",
"68 116 OFFCURVE"
);
}
);
width = 936;
}
);
unicode = 05DB;
},
{
glyphname = lamedhebrew;
lastChange = "2015-11-23 15:56:40 +0000";
layers = (
{
layerId = "3138562F-70A2-47D8-8787-D90195410BEE";
name = Regular;
paths = (
{
closed = 1;
nodes = (
"239 190 CURVE SMOOTH",
"216 152 OFFCURVE",
"148 9 OFFCURVE",
"148 -14 CURVE SMOOTH",
"148 -29 OFFCURVE",
"155 -36 OFFCURVE",
"170 -36 CURVE SMOOTH",
"215 -36 OFFCURVE",
"358 12 OFFCURVE",
"422 41 CURVE SMOOTH",
"589 115 OFFCURVE",
"723 284 OFFCURVE",
"798 491 CURVE SMOOTH",
"829 577 OFFCURVE",
"861 713 OFFCURVE",
"861 809 CURVE SMOOTH",
"861 910 OFFCURVE",
"834 989 OFFCURVE",
"727 989 CURVE SMOOTH",
"326 989 LINE SMOOTH",
"239 989 OFFCURVE",
"237 1004 OFFCURVE",
"237 1163 CURVE SMOOTH",
"237 1228 OFFCURVE",
"227 1296 OFFCURVE",
"213 1337 CURVE SMOOTH",
"204 1364 OFFCURVE",
"189 1376 OFFCURVE",
"179 1376 CURVE SMOOTH",
"170 1376 OFFCURVE",
"160 1369 OFFCURVE",
"146 1353 CURVE SMOOTH",
"109 1312 OFFCURVE",
"48 1233 OFFCURVE",
"35 1213 CURVE SMOOTH",
"30 1204 OFFCURVE",
"27 1195 OFFCURVE",
"27 1188 CURVE SMOOTH",
"27 1178 OFFCURVE",
"32 1158 OFFCURVE",
"41 1134 CURVE SMOOTH",
"59 1088 OFFCURVE",
"75 1023 OFFCURVE",
"75 975 CURVE SMOOTH",
"75 787 OFFCURVE",
"100 754 OFFCURVE",
"206 754 CURVE SMOOTH",
"580 754 LINE SMOOTH",
"636 754 OFFCURVE",
"668 718 OFFCURVE",
"668 624 CURVE SMOOTH",
"668 537 OFFCURVE",
"646 434 OFFCURVE",
"584 368 CURVE SMOOTH",
"524 305 OFFCURVE",
"401 249 OFFCURVE",
"304 226 CURVE SMOOTH",
"261 215 OFFCURVE",
"251 208 OFFCURVE"
);
}
);
width = 936;
}
);
unicode = 05DC;
},
{
glyphname = finalmemhebrew;
lastChange = "2015-11-23 15:56:40 +0000";
layers = (
{
layerId = "3138562F-70A2-47D8-8787-D90195410BEE";
name = Regular;
paths = (
{
closed = 1;
nodes = (
"152 200 CURVE SMOOTH",
"157 95 OFFCURVE",
"202 0 OFFCURVE",
"309 0 CURVE SMOOTH",
"955 0 LINE SMOOTH",
"979 0 OFFCURVE",
"993 2 OFFCURVE",
"1003 18 CURVE SMOOTH",
"1037 67 OFFCURVE",
"1078 159 OFFCURVE",
"1102 238 CURVE SMOOTH",
"1112 274 OFFCURVE",
"1119 313 OFFCURVE",
"1119 407 CURVE SMOOTH",
"1118 513 OFFCURVE",
"1109 688 OFFCURVE",
"1100 781 CURVE SMOOTH",
"1087 916 OFFCURVE",
"1005 989 OFFCURVE",
"827 989 CURVE SMOOTH",
"340 989 LINE SMOOTH",
"304 989 OFFCURVE",
"288 1000 OFFCURVE",
"277 1052 CURVE SMOOTH",
"273 1070 OFFCURVE",
"259 1081 OFFCURVE",
"245 1081 CURVE SMOOTH",
"236 1081 OFFCURVE",
"222 1074 OFFCURVE",
"206 1052 CURVE SMOOTH",
"167 1000 OFFCURVE",
"98 903 OFFCURVE",
"49 823 CURVE SMOOTH",
"39 805 OFFCURVE",
"35 790 OFFCURVE",
"35 781 CURVE SMOOTH",
"35 765 OFFCURVE",
"48 756 OFFCURVE",
"62 756 CURVE SMOOTH",
"89 756 OFFCURVE",
"129 749 OFFCURVE",
"131 708 CURVE SMOOTH",
"141 541 OFFCURVE",
"145 362 OFFCURVE"
);
},
{
closed = 1;
nodes = (
"412 235 LINE",
"367 235 OFFCURVE",
"335 253 OFFCURVE",
"326 312 CURVE SMOOTH",
"317 369 OFFCURVE",
"307 602 OFFCURVE",
"307 694 CURVE SMOOTH",
"307 742 OFFCURVE",
"317 754 OFFCURVE",
"367 754 CURVE SMOOTH",
"774 754 LINE SMOOTH",
"874 754 OFFCURVE",
"911 696 OFFCURVE",
"921 656 CURVE SMOOTH",
"942 561 OFFCURVE",
"945 378 OFFCURVE",
"945 276 CURVE SMOOTH",
"945 256 OFFCURVE",
"942 235 OFFCURVE",
"914 235 CURVE SMOOTH"
);
}
);
width = 1221;
}
);
unicode = 05DD;
},
{
glyphname = memhebrew;
lastChange = "2015-11-23 15:56:40 +0000";
layers = (
{
layerId = "3138562F-70A2-47D8-8787-D90195410BEE";
name = Regular;
paths = (
{
closed = 1;
nodes = (
"239 525 CURVE SMOOTH",
"239 376 OFFCURVE",
"112 50 OFFCURVE",
"112 -20 CURVE SMOOTH",
"112 -32 OFFCURVE",
"118 -38 OFFCURVE",
"125 -38 CURVE SMOOTH",
"138 -38 OFFCURVE",
"150 -29 OFFCURVE",
"167 -12 CURVE SMOOTH",
"204 29 OFFCURVE",
"236 65 OFFCURVE",
"277 120 CURVE SMOOTH",
"317 174 OFFCURVE",
"322 183 OFFCURVE",
"340 251 CURVE SMOOTH",
"413 518 OFFCURVE",
"499 785 OFFCURVE",
"695 785 CURVE SMOOTH",
"769 785 OFFCURVE",
"840 751 OFFCURVE",
"892 670 CURVE SMOOTH",
"962 559 OFFCURVE",
"976 357 OFFCURVE",
"976 262 CURVE SMOOTH",
"976 236 OFFCURVE",
"960 235 OFFCURVE",
"944 235 CURVE SMOOTH",
"582 235 LINE SMOOTH",
"564 235 OFFCURVE",
"552 229 OFFCURVE",
"531 202 CURVE SMOOTH",
"507 166 OFFCURVE",
"475 109 OFFCURVE",
"439 48 CURVE SMOOTH",
"433 39 OFFCURVE",
"428 25 OFFCURVE",
"428 22 CURVE SMOOTH",
"428 5 OFFCURVE",
"439 0 OFFCURVE",
"458 0 CURVE SMOOTH",
"981 0 LINE SMOOTH",
"1030 0 OFFCURVE",
"1080 115 OFFCURVE",
"1114 214 CURVE SMOOTH",
"1126 249 OFFCURVE",
"1138 292 OFFCURVE",
"1138 347 CURVE SMOOTH",
"1138 487 OFFCURVE",
"1123 694 OFFCURVE",
"1071 814 CURVE SMOOTH",
"1014 944 OFFCURVE",
"916 1027 OFFCURVE",
"786 1027 CURVE SMOOTH",
"610 1027 OFFCURVE",
"509 891 OFFCURVE",
"426 715 CURVE SMOOTH",
"424 711 OFFCURVE",
"422 711 OFFCURVE",
"420 711 CURVE SMOOTH",
"419 711 OFFCURVE",
"417 713 OFFCURVE",
"417 717 CURVE SMOOTH",
"417 747 OFFCURVE",
"374 912 OFFCURVE",
"288 1047 CURVE SMOOTH",
"275 1067 OFFCURVE",
"265 1081 OFFCURVE",
"251 1081 CURVE SMOOTH",
"242 1081 OFFCURVE",
"230 1070 OFFCURVE",
"216 1052 CURVE SMOOTH",
"182 1009 OFFCURVE",
"125 932 OFFCURVE",
"100 894 CURVE SMOOTH",
"93 882 OFFCURVE",
"85 869 OFFCURVE",
"85 857 CURVE SMOOTH",
"85 850 OFFCURVE",
"93 838 OFFCURVE",
"107 823 CURVE SMOOTH",
"131 797 OFFCURVE",
"157 758 OFFCURVE",
"179 722 CURVE SMOOTH",
"216 656 OFFCURVE",
"239 592 OFFCURVE"
);
}
);
width = 1221;
}
);
unicode = 05DE;
},
{
glyphname = finalnunhebrew;
lastChange = "2015-11-23 15:56:40 +0000";
layers = (
{
layerId = "3138562F-70A2-47D8-8787-D90195410BEE";
name = Regular;
paths = (
{
closed = 1;
nodes = (
"396 -378 CURVE SMOOTH",
"396 -403 OFFCURVE",
"399 -412 OFFCURVE",
"410 -412 CURVE SMOOTH",
"417 -412 OFFCURVE",
"428 -405 OFFCURVE",
"440 -390 CURVE SMOOTH",
"466 -362 OFFCURVE",
"505 -312 OFFCURVE",
"533 -269 CURVE SMOOTH",
"548 -248 OFFCURVE",
"552 -222 OFFCURVE",
"552 -200 CURVE SMOOTH",
"552 16 OFFCURVE",
"545 417 OFFCURVE",
"533 647 CURVE SMOOTH",
"528 758 OFFCURVE",
"516 848 OFFCURVE",
"440 914 CURVE SMOOTH",
"394 956 OFFCURVE",
"333 1002 OFFCURVE",
"249 1062 CURVE SMOOTH",
"229 1077 OFFCURVE",
"216 1081 OFFCURVE",
"213 1081 CURVE SMOOTH",
"204 1081 OFFCURVE",
"196 1077 OFFCURVE",
"184 1059 CURVE SMOOTH",
"153 1016 OFFCURVE",
"102 949 OFFCURVE",
"78 910 CURVE SMOOTH",
"68 893 OFFCURVE",
"62 882 OFFCURVE",
"62 876 CURVE SMOOTH",
"62 867 OFFCURVE",
"66 860 OFFCURVE",
"80 850 CURVE SMOOTH",
"125 816 OFFCURVE",
"229 756 OFFCURVE",
"299 690 CURVE SMOOTH",
"377 614 OFFCURVE",
"372 450 OFFCURVE",
"381 197 CURVE SMOOTH",
"386 43 OFFCURVE",
"394 -186 OFFCURVE"
);
}
);
width = 650;
}
);
unicode = 05DF;
},
{
glyphname = nunhebrew;
lastChange = "2015-11-23 15:56:40 +0000";
layers = (
{
layerId = "3138562F-70A2-47D8-8787-D90195410BEE";
name = Regular;
paths = (
{
closed = 1;
nodes = (
"18 20 CURVE SMOOTH",
"18 9 OFFCURVE",
"25 0 OFFCURVE",
"42 0 CURVE SMOOTH",
"379 0 LINE SMOOTH",
"413 0 OFFCURVE",
"432 4 OFFCURVE",
"460 52 CURVE SMOOTH",
"485 95 OFFCURVE",
"510 149 OFFCURVE",
"528 197 CURVE SMOOTH",
"548 249 OFFCURVE",
"562 301 OFFCURVE",
"562 357 CURVE SMOOTH",
"562 472 OFFCURVE",
"557 592 OFFCURVE",
"548 663 CURVE SMOOTH",
"531 797 OFFCURVE",
"494 884 OFFCURVE",
"433 934 CURVE SMOOTH",
"388 970 OFFCURVE",
"324 1019 OFFCURVE",
"263 1055 CURVE SMOOTH",
"236 1072 OFFCURVE",
"223 1081 OFFCURVE",
"211 1081 CURVE SMOOTH",
"202 1081 OFFCURVE",
"196 1077 OFFCURVE",
"182 1061 CURVE SMOOTH",
"148 1023 OFFCURVE",
"100 956 OFFCURVE",
"75 912 CURVE SMOOTH",
"64 894 OFFCURVE",
"59 884 OFFCURVE",
"59 876 CURVE SMOOTH",
"59 864 OFFCURVE",
"68 857 OFFCURVE",
"78 851 CURVE SMOOTH",
"157 812 OFFCURVE",
"220 771 OFFCURVE",
"268 735 CURVE SMOOTH",
"349 676 OFFCURVE",
"374 619 OFFCURVE",
"384 530 CURVE SMOOTH",
"392 475 OFFCURVE",
"399 407 OFFCURVE",
"399 335 CURVE SMOOTH",
"399 270 OFFCURVE",
"399 235 OFFCURVE",
"367 235 CURVE SMOOTH",
"136 235 LINE SMOOTH",
"123 235 OFFCURVE",
"109 226 OFFCURVE",
"95 199 CURVE SMOOTH",
"62 138 OFFCURVE",
"18 38 OFFCURVE"
);
}
);
width = 650;
}
);
unicode = 05E0;
},
{
glyphname = samekhhebrew;
lastChange = "2015-11-23 15:56:40 +0000";
layers = (
{
layerId = "3138562F-70A2-47D8-8787-D90195410BEE";
name = Regular;
paths = (
{
closed = 1;
nodes = (
"208 629 CURVE SMOOTH",
"258 460 OFFCURVE",
"306 238 OFFCURVE",
"353 104 CURVE SMOOTH",
"379 25 OFFCURVE",
"437 -27 OFFCURVE",
"501 -27 CURVE SMOOTH",
"639 -27 OFFCURVE",
"761 36 OFFCURVE",
"881 135 CURVE SMOOTH",
"944 186 OFFCURVE",
"1012 282 OFFCURVE",
"1041 337 CURVE SMOOTH",
"1121 491 OFFCURVE",
"1154 638 OFFCURVE",
"1154 792 CURVE SMOOTH",
"1154 916 OFFCURVE",
"1105 989 OFFCURVE",
"994 989 CURVE SMOOTH",
"363 989 LINE SMOOTH",
"335 989 OFFCURVE",
"304 991 OFFCURVE",
"293 1052 CURVE SMOOTH",
"290 1070 OFFCURVE",
"279 1079 OFFCURVE",
"263 1079 CURVE SMOOTH",
"252 1079 OFFCURVE",
"237 1068 OFFCURVE",
"218 1045 CURVE SMOOTH",
"175 993 OFFCURVE",
"112 900 OFFCURVE",
"68 821 CURVE SMOOTH",
"61 809 OFFCURVE",
"53 790 OFFCURVE",
"53 781 CURVE SMOOTH",
"53 760 OFFCURVE",
"69 754 OFFCURVE",
"91 753 CURVE SMOOTH",
"109 751 OFFCURVE",
"136 751 OFFCURVE",
"150 740 CURVE SMOOTH",
"175 722 OFFCURVE",
"189 690 OFFCURVE"
);
},
{
closed = 1;
nodes = (
"577 212 CURVE SMOOTH",
"543 212 OFFCURVE",
"512 226 OFFCURVE",
"492 272 CURVE SMOOTH",
"440 395 OFFCURVE",
"377 715 OFFCURVE",
"377 733 CURVE SMOOTH",
"377 746 OFFCURVE",
"384 754 OFFCURVE",
"403 754 CURVE SMOOTH",
"842 754 LINE SMOOTH",
"947 754 OFFCURVE",
"967 713 OFFCURVE",
"967 588 CURVE SMOOTH",
"967 459 OFFCURVE",
"908 349 OFFCURVE",
"811 289 CURVE SMOOTH",
"745 248 OFFCURVE",
"659 212 OFFCURVE"
);
}
);
width = 1221;
}
);
unicode = 05E1;
},
{
glyphname = ayinhebrew;
lastChange = "2015-11-23 15:56:40 +0000";
layers = (
{
layerId = "3138562F-70A2-47D8-8787-D90195410BEE";
name = Regular;
paths = (
{
closed = 1;
nodes = (
"125 70 CURVE SMOOTH",
"97 12 OFFCURVE",
"42 -104 OFFCURVE",
"42 -138 CURVE SMOOTH",
"42 -152 OFFCURVE",
"49 -159 OFFCURVE",
"62 -159 CURVE SMOOTH",
"71 -159 OFFCURVE",
"102 -149 OFFCURVE",
"138 -133 CURVE SMOOTH",
"381 -25 OFFCURVE",
"605 123 OFFCURVE",
"648 156 CURVE SMOOTH",
"700 195 OFFCURVE",
"747 253 OFFCURVE",
"774 313 CURVE SMOOTH",
"825 431 OFFCURVE",
"856 554 OFFCURVE",
"861 619 CURVE SMOOTH",
"863 643 OFFCURVE",
"867 676 OFFCURVE",
"867 722 CURVE SMOOTH",
"865 810 OFFCURVE",
"842 944 OFFCURVE",
"803 1055 CURVE SMOOTH",
"795 1074 OFFCURVE",
"784 1079 OFFCURVE",
"776 1079 CURVE SMOOTH",
"767 1079 OFFCURVE",
"757 1074 OFFCURVE",
"745 1059 CURVE SMOOTH",
"706 1012 OFFCURVE",
"670 959 OFFCURVE",
"636 912 CURVE SMOOTH",
"622 893 OFFCURVE",
"612 874 OFFCURVE",
"612 862 CURVE SMOOTH",
"612 844 OFFCURVE",
"625 821 OFFCURVE",
"639 787 CURVE SMOOTH",
"677 696 OFFCURVE",
"704 568 OFFCURVE",
"704 486 CURVE SMOOTH",
"704 434 OFFCURVE",
"693 402 OFFCURVE",
"657 375 CURVE SMOOTH",
"620 346 OFFCURVE",
"569 315 OFFCURVE",
"505 277 CURVE SMOOTH",
"496 272 OFFCURVE",
"489 270 OFFCURVE",
"485 270 CURVE SMOOTH",
"480 270 OFFCURVE",
"476 274 OFFCURVE",
"475 284 CURVE SMOOTH",
"417 515 OFFCURVE",
"353 816 OFFCURVE",
"244 1055 CURVE SMOOTH",
"237 1067 OFFCURVE",
"230 1079 OFFCURVE",
"220 1079 CURVE SMOOTH",
"204 1079 OFFCURVE",
"191 1067 OFFCURVE",
"174 1045 CURVE SMOOTH",
"138 1002 OFFCURVE",
"89 935 OFFCURVE",
"69 905 CURVE SMOOTH",
"55 884 OFFCURVE",
"49 872 OFFCURVE",
"49 864 CURVE SMOOTH",
"49 855 OFFCURVE",
"57 843 OFFCURVE",
"68 828 CURVE SMOOTH",
"202 629 OFFCURVE",
"283 357 OFFCURVE",
"319 217 CURVE SMOOTH",
"321 210 OFFCURVE",
"322 199 OFFCURVE",
"322 197 CURVE SMOOTH",
"322 188 OFFCURVE",
"319 183 OFFCURVE",
"311 179 CURVE SMOOTH",
"239 144 OFFCURVE",
"184 118 OFFCURVE",
"160 106 CURVE SMOOTH",
"141 95 OFFCURVE",
"131 81 OFFCURVE"
);
}
);
width = 936;
}
);
unicode = 05E2;
},
{
glyphname = finalpehebrew;
lastChange = "2015-11-23 15:56:40 +0000";
layers = (
{
layerId = "3138562F-70A2-47D8-8787-D90195410BEE";
name = Regular;
paths = (
{
closed = 1;
nodes = (
"702 -398 CURVE SMOOTH",
"704 -407 OFFCURVE",
"711 -409 OFFCURVE",
"718 -409 CURVE SMOOTH",
"727 -409 OFFCURVE",
"736 -398 OFFCURVE",
"745 -383 CURVE SMOOTH",
"754 -369 OFFCURVE",
"815 -256 OFFCURVE",
"824 -240 CURVE SMOOTH",
"839 -214 OFFCURVE",
"844 -174 OFFCURVE",
"844 -122 CURVE SMOOTH",
"844 120 OFFCURVE",
"834 346 OFFCURVE",
"827 563 CURVE SMOOTH",
"822 730 OFFCURVE",
"795 846 OFFCURVE",
"678 934 CURVE SMOOTH",
"593 997 OFFCURVE",
"460 1047 OFFCURVE",
"388 1072 CURVE SMOOTH",
"365 1081 OFFCURVE",
"362 1081 OFFCURVE",
"343 1081 CURVE SMOOTH",
"331 1081 OFFCURVE",
"322 1072 OFFCURVE",
"307 1061 CURVE SMOOTH",
"175 957 OFFCURVE",
"49 780 OFFCURVE",
"49 655 CURVE SMOOTH",
"49 511 OFFCURVE",
"131 398 OFFCURVE",
"249 339 CURVE SMOOTH",
"263 332 OFFCURVE",
"273 328 OFFCURVE",
"281 328 CURVE SMOOTH",
"292 328 OFFCURVE",
"297 335 OFFCURVE",
"307 349 CURVE SMOOTH",
"329 378 OFFCURVE",
"376 453 OFFCURVE",
"388 484 CURVE SMOOTH",
"388 486 OFFCURVE",
"394 500 OFFCURVE",
"394 503 CURVE SMOOTH",
"394 509 OFFCURVE",
"391 516 OFFCURVE",
"386 518 CURVE SMOOTH",
"299 556 OFFCURVE",
"230 617 OFFCURVE",
"230 706 CURVE SMOOTH",
"230 740 OFFCURVE",
"245 792 OFFCURVE",
"266 831 CURVE SMOOTH",
"270 837 OFFCURVE",
"273 838 OFFCURVE",
"279 838 CURVE SMOOTH",
"383 810 OFFCURVE",
"492 758 OFFCURVE",
"537 725 CURVE SMOOTH",
"603 679 OFFCURVE",
"644 614 OFFCURVE",
"654 513 CURVE SMOOTH",
"678 217 OFFCURVE",
"695 -349 OFFCURVE"
);
}
);
width = 936;
}
);
unicode = 05E3;
},
{
glyphname = pehebrew;
lastChange = "2015-11-23 15:56:40 +0000";
layers = (
{
layerId = "3138562F-70A2-47D8-8787-D90195410BEE";
name = Regular;
paths = (
{
closed = 1;
nodes = (
"42 48 CURVE SMOOTH",
"39 43 OFFCURVE",
"34 24 OFFCURVE",
"34 20 CURVE SMOOTH",
"34 9 OFFCURVE",
"41 0 OFFCURVE",
"62 0 CURVE SMOOTH",
"678 0 LINE SMOOTH",
"709 0 OFFCURVE",
"716 2 OFFCURVE",
"729 20 CURVE SMOOTH",
"769 82 OFFCURVE",
"795 154 OFFCURVE",
"817 214 CURVE SMOOTH",
"831 255 OFFCURVE",
"844 303 OFFCURVE",
"844 362 CURVE SMOOTH",
"844 436 OFFCURVE",
"839 597 OFFCURVE",
"825 694 CURVE SMOOTH",
"810 819 OFFCURVE",
"748 908 OFFCURVE",
"663 957 CURVE SMOOTH",
"566 1012 OFFCURVE",
"501 1038 OFFCURVE",
"406 1072 CURVE SMOOTH",
"396 1075 OFFCURVE",
"386 1079 OFFCURVE",
"381 1079 CURVE SMOOTH",
"372 1079 OFFCURVE",
"362 1075 OFFCURVE",
"349 1065 CURVE SMOOTH",
"230 957 OFFCURVE",
"83 799 OFFCURVE",
"83 640 CURVE SMOOTH",
"83 529 OFFCURVE",
"170 441 OFFCURVE",
"259 407 CURVE SMOOTH",
"268 403 OFFCURVE",
"279 400 OFFCURVE",
"286 400 CURVE SMOOTH",
"295 400 OFFCURVE",
"306 409 OFFCURVE",
"315 423 CURVE SMOOTH",
"340 462 OFFCURVE",
"365 498 OFFCURVE",
"392 543 CURVE SMOOTH",
"398 552 OFFCURVE",
"403 564 OFFCURVE",
"403 571 CURVE SMOOTH",
"403 583 OFFCURVE",
"394 586 OFFCURVE",
"379 592 CURVE SMOOTH",
"315 617 OFFCURVE",
"259 665 OFFCURVE",
"259 727 CURVE SMOOTH",
"259 774 OFFCURVE",
"297 843 OFFCURVE",
"315 843 CURVE SMOOTH",
"381 843 OFFCURVE",
"548 749 OFFCURVE",
"587 711 CURVE SMOOTH",
"618 683 OFFCURVE",
"641 638 OFFCURVE",
"654 592 CURVE SMOOTH",
"677 498 OFFCURVE",
"684 312 OFFCURVE",
"684 272 CURVE SMOOTH",
"684 248 OFFCURVE",
"666 235 OFFCURVE",
"646 235 CURVE SMOOTH",
"168 235 LINE SMOOTH",
"153 235 OFFCURVE",
"146 229 OFFCURVE",
"132 208 CURVE SMOOTH",
"98 156 OFFCURVE",
"71 101 OFFCURVE"
);
}
);
width = 936;
}
);
unicode = 05E4;
},
{
glyphname = finaltsadihebrew;
lastChange = "2015-11-23 15:56:40 +0000";
layers = (
{
layerId = "3138562F-70A2-47D8-8787-D90195410BEE";
name = Regular;
paths = (
{
closed = 1;
nodes = (
"420 462 CURVE SMOOTH",
"579 228 OFFCURVE",
"716 -115 OFFCURVE",
"779 -385 CURVE SMOOTH",
"784 -405 OFFCURVE",
"788 -412 OFFCURVE",
"801 -412 CURVE SMOOTH",
"811 -412 OFFCURVE",
"820 -398 OFFCURVE",
"831 -376 CURVE SMOOTH",
"861 -323 OFFCURVE",
"892 -228 OFFCURVE",
"890 -236 CURVE SMOOTH",
"888 -242 OFFCURVE",
"897 -207 OFFCURVE",
"897 -199 CURVE SMOOTH",
"897 -174 OFFCURVE",
"895 -166 OFFCURVE",
"887 -131 CURVE SMOOTH",
"846 36 OFFCURVE",
"776 255 OFFCURVE",
"690 417 CURVE SMOOTH",
"687 421 OFFCURVE",
"685 426 OFFCURVE",
"685 434 CURVE SMOOTH",
"685 439 OFFCURVE",
"692 452 OFFCURVE",
"702 462 CURVE SMOOTH",
"793 557 OFFCURVE",
"867 669 OFFCURVE",
"867 810 CURVE SMOOTH",
"867 900 OFFCURVE",
"846 1002 OFFCURVE",
"822 1050 CURVE SMOOTH",
"813 1070 OFFCURVE",
"804 1081 OFFCURVE",
"793 1081 CURVE SMOOTH",
"786 1081 OFFCURVE",
"776 1075 OFFCURVE",
"763 1061 CURVE SMOOTH",
"714 1007 OFFCURVE",
"643 894 OFFCURVE",
"641 893 CURVE SMOOTH",
"639 884 OFFCURVE",
"627 872 OFFCURVE",
"627 857 CURVE SMOOTH",
"627 846 OFFCURVE",
"632 838 OFFCURVE",
"644 814 CURVE SMOOTH",
"664 774 OFFCURVE",
"675 715 OFFCURVE",
"675 669 CURVE SMOOTH",
"675 606 OFFCURVE",
"641 536 OFFCURVE",
"629 536 CURVE SMOOTH",
"623 536 OFFCURVE",
"620 541 OFFCURVE",
"615 550 CURVE SMOOTH",
"523 708 OFFCURVE",
"388 896 OFFCURVE",
"218 1067 CURVE SMOOTH",
"204 1081 OFFCURVE",
"198 1081 OFFCURVE",
"188 1081 CURVE SMOOTH",
"181 1081 OFFCURVE",
"174 1074 OFFCURVE",
"160 1057 CURVE SMOOTH",
"134 1021 OFFCURVE",
"98 968 OFFCURVE",
"69 921 CURVE SMOOTH",
"59 905 OFFCURVE",
"53 891 OFFCURVE",
"53 884 CURVE SMOOTH",
"53 871 OFFCURVE",
"62 864 OFFCURVE",
"78 851 CURVE SMOOTH",
"174 778 OFFCURVE",
"328 600 OFFCURVE"
);
}
);
width = 938;
}
);
unicode = 05E5;
},
{
glyphname = tsadihebrew;
lastChange = "2015-11-23 15:56:40 +0000";
layers = (
{
layerId = "3138562F-70A2-47D8-8787-D90195410BEE";
name = Regular;
paths = (
{
closed = 1;
nodes = (
"132 207 CURVE SMOOTH",
"114 179 OFFCURVE",
"69 102 OFFCURVE",
"46 53 CURVE SMOOTH",
"39 39 OFFCURVE",
"37 29 OFFCURVE",
"37 20 CURVE SMOOTH",
"37 7 OFFCURVE",
"48 0 OFFCURVE",
"69 0 CURVE SMOOTH",
"702 0 LINE SMOOTH",
"729 0 OFFCURVE",
"743 2 OFFCURVE",
"759 25 CURVE SMOOTH",
"804 95 OFFCURVE",
"834 161 OFFCURVE",
"853 214 CURVE SMOOTH",
"861 242 OFFCURVE",
"868 267 OFFCURVE",
"868 284 CURVE SMOOTH",
"868 303 OFFCURVE",
"860 328 OFFCURVE",
"840 355 CURVE SMOOTH",
"817 387 OFFCURVE",
"783 423 OFFCURVE",
"720 487 CURVE SMOOTH",
"711 498 OFFCURVE",
"707 503 OFFCURVE",
"707 509 CURVE SMOOTH",
"707 520 OFFCURVE",
"713 525 OFFCURVE",
"720 534 CURVE SMOOTH",
"808 652 OFFCURVE",
"860 753 OFFCURVE",
"860 869 CURVE SMOOTH",
"860 959 OFFCURVE",
"834 1016 OFFCURVE",
"815 1050 CURVE SMOOTH",
"803 1072 OFFCURVE",
"791 1081 OFFCURVE",
"786 1081 CURVE SMOOTH",
"772 1081 OFFCURVE",
"763 1072 OFFCURVE",
"745 1048 CURVE SMOOTH",
"714 1009 OFFCURVE",
"668 956 OFFCURVE",
"636 912 CURVE SMOOTH",
"618 889 OFFCURVE",
"616 876 OFFCURVE",
"616 864 CURVE SMOOTH",
"616 855 OFFCURVE",
"625 844 OFFCURVE",
"634 821 CURVE SMOOTH",
"643 797 OFFCURVE",
"650 763 OFFCURVE",
"650 701 CURVE SMOOTH",
"650 672 OFFCURVE",
"646 648 OFFCURVE",
"634 619 CURVE SMOOTH",
"629 606 OFFCURVE",
"620 595 OFFCURVE",
"610 595 CURVE SMOOTH",
"605 595 OFFCURVE",
"601 597 OFFCURVE",
"596 600 CURVE SMOOTH",
"432 730 OFFCURVE",
"283 882 OFFCURVE",
"220 1059 CURVE SMOOTH",
"216 1070 OFFCURVE",
"209 1081 OFFCURVE",
"198 1081 CURVE SMOOTH",
"191 1081 OFFCURVE",
"184 1074 OFFCURVE",
"170 1057 CURVE SMOOTH",
"141 1025 OFFCURVE",
"102 971 OFFCURVE",
"57 908 CURVE SMOOTH",
"44 891 OFFCURVE",
"41 879 OFFCURVE",
"41 867 CURVE SMOOTH",
"41 855 OFFCURVE",
"48 838 OFFCURVE",
"61 819 CURVE SMOOTH",
"82 785 OFFCURVE",
"114 746 OFFCURVE",
"131 725 CURVE SMOOTH",
"206 634 OFFCURVE",
"528 369 OFFCURVE",
"591 313 CURVE SMOOTH",
"625 282 OFFCURVE",
"637 272 OFFCURVE",
"637 249 CURVE SMOOTH",
"637 236 OFFCURVE",
"625 235 OFFCURVE",
"612 235 CURVE SMOOTH",
"181 235 LINE SMOOTH",
"155 235 OFFCURVE",
"141 219 OFFCURVE"
);
}
);
width = 936;
}
);
unicode = 05E6;
},
{
glyphname = qofhebrew;
lastChange = "2015-11-23 15:56:40 +0000";
layers = (
{
layerId = "3138562F-70A2-47D8-8787-D90195410BEE";
name = Regular;
paths = (
{
closed = 1;
nodes = (
"202 667 CURVE SMOOTH",
"225 355 OFFCURVE",
"223 -58 OFFCURVE",
"242 -375 CURVE SMOOTH",
"244 -405 OFFCURVE",
"251 -410 OFFCURVE",
"263 -410 CURVE SMOOTH",
"273 -410 OFFCURVE",
"285 -403 OFFCURVE",
"299 -382 CURVE SMOOTH",
"329 -335 OFFCURVE",
"360 -289 OFFCURVE",
"383 -235 CURVE SMOOTH",
"401 -192 OFFCURVE",
"401 -125 OFFCURVE",
"401 -88 CURVE SMOOTH",
"401 248 OFFCURVE",
"398 539 OFFCURVE",
"398 710 CURVE SMOOTH",
"398 733 OFFCURVE",
"410 754 OFFCURVE",
"435 754 CURVE SMOOTH",
"860 754 LINE SMOOTH",
"928 754 OFFCURVE",
"951 708 OFFCURVE",
"951 636 CURVE SMOOTH",
"951 579 OFFCURVE",
"945 516 OFFCURVE",
"924 445 CURVE SMOOTH",
"902 375 OFFCURVE",
"876 340 OFFCURVE",
"820 310 CURVE SMOOTH",
"755 274 OFFCURVE",
"670 242 OFFCURVE",
"616 222 CURVE SMOOTH",
"594 215 OFFCURVE",
"584 207 OFFCURVE",
"573 181 CURVE SMOOTH",
"552 137 OFFCURVE",
"505 7 OFFCURVE",
"505 -14 CURVE SMOOTH",
"505 -29 OFFCURVE",
"512 -36 OFFCURVE",
"528 -36 CURVE SMOOTH",
"539 -36 OFFCURVE",
"553 -31 OFFCURVE",
"571 -25 CURVE SMOOTH",
"657 2 OFFCURVE",
"803 84 OFFCURVE",
"836 109 CURVE SMOOTH",
"894 152 OFFCURVE",
"953 221 OFFCURVE",
"996 299 CURVE SMOOTH",
"1037 375 OFFCURVE",
"1068 445 OFFCURVE",
"1098 522 CURVE SMOOTH",
"1133 613 OFFCURVE",
"1154 706 OFFCURVE",
"1154 785 CURVE SMOOTH",
"1154 886 OFFCURVE",
"1118 991 OFFCURVE",
"998 991 CURVE SMOOTH",
"376 991 LINE SMOOTH",
"345 991 OFFCURVE",
"331 1014 OFFCURVE",
"326 1040 CURVE SMOOTH",
"321 1061 OFFCURVE",
"313 1081 OFFCURVE",
"292 1081 CURVE SMOOTH",
"283 1081 OFFCURVE",
"265 1070 OFFCURVE",
"245 1045 CURVE SMOOTH",
"208 997 OFFCURVE",
"148 916 OFFCURVE",
"98 833 CURVE SMOOTH",
"83 810 OFFCURVE",
"71 794 OFFCURVE",
"71 778 CURVE SMOOTH",
"71 746 OFFCURVE",
"116 753 OFFCURVE",
"157 744 CURVE SMOOTH",
"191 737 OFFCURVE",
"198 713 OFFCURVE"
);
}
);
width = 1221;
}
);
unicode = 05E7;
},
{
glyphname = reshhebrew;
lastChange = "2015-11-23 15:56:40 +0000";
layers = (
{
layerId = "3138562F-70A2-47D8-8787-D90195410BEE";
name = Regular;
paths = (
{
closed = 1;
nodes = (
"639 516 CURVE SMOOTH",
"656 371 OFFCURVE",
"668 161 OFFCURVE",
"675 -5 CURVE SMOOTH",
"677 -36 OFFCURVE",
"690 -46 OFFCURVE",
"700 -46 CURVE SMOOTH",
"711 -46 OFFCURVE",
"721 -34 OFFCURVE",
"733 -18 CURVE SMOOTH",
"757 20 OFFCURVE",
"795 86 OFFCURVE",
"810 120 CURVE SMOOTH",
"827 161 OFFCURVE",
"831 197 OFFCURVE",
"831 236 CURVE SMOOTH",
"831 395 OFFCURVE",
"820 534 OFFCURVE",
"806 686 CURVE SMOOTH",
"791 844 OFFCURVE",
"675 989 OFFCURVE",
"519 989 CURVE SMOOTH",
"300 989 LINE SMOOTH",
"265 989 OFFCURVE",
"252 1021 OFFCURVE",
"247 1050 CURVE SMOOTH",
"244 1068 OFFCURVE",
"234 1081 OFFCURVE",
"218 1081 CURVE SMOOTH",
"209 1081 OFFCURVE",
"189 1070 OFFCURVE",
"170 1040 CURVE SMOOTH",
"131 978 OFFCURVE",
"71 874 OFFCURVE",
"46 824 CURVE SMOOTH",
"35 803 OFFCURVE",
"30 790 OFFCURVE",
"30 778 CURVE SMOOTH",
"30 761 OFFCURVE",
"46 754 OFFCURVE",
"71 754 CURVE SMOOTH",
"394 754 LINE SMOOTH",
"548 754 OFFCURVE",
"623 665 OFFCURVE"
);
}
);
width = 936;
}
);
unicode = 05E8;
},
{
glyphname = shinhebrew;
lastChange = "2015-11-23 15:56:40 +0000";
layers = (
{
layerId = "3138562F-70A2-47D8-8787-D90195410BEE";
name = Regular;
paths = (
{
closed = 1;
nodes = (
"295 197 CURVE SMOOTH",
"326 65 OFFCURVE",
"369 -31 OFFCURVE",
"480 -31 CURVE SMOOTH",
"523 -31 OFFCURVE",
"571 -20 OFFCURVE",
"620 -5 CURVE SMOOTH",
"704 20 OFFCURVE",
"784 63 OFFCURVE",
"839 102 CURVE SMOOTH",
"897 144 OFFCURVE",
"958 208 OFFCURVE",
"996 267 CURVE SMOOTH",
"1044 346 OFFCURVE",
"1148 539 OFFCURVE",
"1148 776 CURVE SMOOTH",
"1148 844 OFFCURVE",
"1119 975 OFFCURVE",
"1098 1041 CURVE SMOOTH",
"1089 1068 OFFCURVE",
"1078 1079 OFFCURVE",
"1066 1079 CURVE SMOOTH",
"1055 1079 OFFCURVE",
"1044 1070 OFFCURVE",
"1030 1055 CURVE SMOOTH",
"985 1011 OFFCURVE",
"945 963 OFFCURVE",
"911 918 CURVE SMOOTH",
"899 901 OFFCURVE",
"895 889 OFFCURVE",
"895 880 CURVE SMOOTH",
"895 872 OFFCURVE",
"897 858 OFFCURVE",
"906 837 CURVE SMOOTH",
"931 776 OFFCURVE",
"962 633 OFFCURVE",
"962 530 CURVE SMOOTH",
"962 423 OFFCURVE",
"928 362 OFFCURVE",
"861 308 CURVE SMOOTH",
"757 224 OFFCURVE",
"641 202 OFFCURVE",
"555 202 CURVE SMOOTH",
"476 202 OFFCURVE",
"463 251 OFFCURVE",
"444 353 CURVE SMOOTH",
"442 362 OFFCURVE",
"440 373 OFFCURVE",
"440 376 CURVE SMOOTH",
"440 383 OFFCURVE",
"446 389 OFFCURVE",
"454 396 CURVE SMOOTH",
"494 426 OFFCURVE",
"553 470 OFFCURVE",
"593 513 CURVE SMOOTH",
"670 595 OFFCURVE",
"743 720 OFFCURVE",
"743 838 CURVE SMOOTH",
"743 910 OFFCURVE",
"716 1002 OFFCURVE",
"697 1050 CURVE SMOOTH",
"690 1068 OFFCURVE",
"678 1079 OFFCURVE",
"668 1079 CURVE SMOOTH",
"663 1079 OFFCURVE",
"650 1075 OFFCURVE",
"634 1055 CURVE SMOOTH",
"605 1019 OFFCURVE",
"553 968 OFFCURVE",
"516 903 CURVE SMOOTH",
"509 891 OFFCURVE",
"505 884 OFFCURVE",
"505 872 CURVE SMOOTH",
"505 865 OFFCURVE",
"509 858 OFFCURVE",
"512 848 CURVE SMOOTH",
"531 797 OFFCURVE",
"543 760 OFFCURVE",
"543 690 CURVE SMOOTH",
"543 583 OFFCURVE",
"453 516 OFFCURVE",
"419 516 CURVE SMOOTH",
"410 516 OFFCURVE",
"405 527 OFFCURVE",
"403 532 CURVE SMOOTH",
"386 602 OFFCURVE",
"372 658 OFFCURVE",
"356 718 CURVE SMOOTH",
"315 876 OFFCURVE",
"273 997 OFFCURVE",
"244 1052 CURVE SMOOTH",
"232 1072 OFFCURVE",
"222 1079 OFFCURVE",
"213 1079 CURVE SMOOTH",
"204 1079 OFFCURVE",
"195 1074 OFFCURVE",
"182 1057 CURVE SMOOTH",
"143 1007 OFFCURVE",
"75 908 OFFCURVE",
"71 901 CURVE SMOOTH",
"68 896 OFFCURVE",
"64 886 OFFCURVE",
"64 879 CURVE SMOOTH",
"64 871 OFFCURVE",
"75 853 OFFCURVE",
"83 835 CURVE SMOOTH",
"164 674 OFFCURVE",
"258 364 OFFCURVE"
);
}
);
width = 1221;
}
);
unicode = 05E9;
},
{
glyphname = tavhebrew;
lastChange = "2015-11-23 15:56:40 +0000";
layers = (
{
layerId = "3138562F-70A2-47D8-8787-D90195410BEE";
name = Regular;
paths = (
{
closed = 1;
nodes = (
"48 60 CURVE SMOOTH",
"39 39 OFFCURVE",
"35 20 OFFCURVE",
"35 20 CURVE SMOOTH",
"35 7 OFFCURVE",
"42 -2 OFFCURVE",
"61 -2 CURVE SMOOTH",
"376 -2 LINE SMOOTH",
"398 -2 OFFCURVE",
"410 9 OFFCURVE",
"417 25 CURVE SMOOTH",
"446 88 OFFCURVE",
"483 202 OFFCURVE",
"497 262 CURVE SMOOTH",
"503 284 OFFCURVE",
"507 305 OFFCURVE",
"507 333 CURVE SMOOTH",
"507 373 OFFCURVE",
"460 586 OFFCURVE",
"435 704 CURVE SMOOTH",
"433 715 OFFCURVE",
"430 730 OFFCURVE",
"430 740 CURVE SMOOTH",
"430 754 OFFCURVE",
"439 754 OFFCURVE",
"454 754 CURVE",
"776 754 LINE SMOOTH",
"839 754 OFFCURVE",
"870 725 OFFCURVE",
"887 658 CURVE SMOOTH",
"916 530 OFFCURVE",
"928 84 OFFCURVE",
"933 -18 CURVE SMOOTH",
"935 -36 OFFCURVE",
"940 -48 OFFCURVE",
"953 -48 CURVE SMOOTH",
"964 -48 OFFCURVE",
"972 -39 OFFCURVE",
"978 -32 CURVE SMOOTH",
"1019 24 OFFCURVE",
"1055 89 OFFCURVE",
"1075 137 CURVE SMOOTH",
"1084 158 OFFCURVE",
"1087 181 OFFCURVE",
"1087 238 CURVE SMOOTH",
"1085 330 OFFCURVE",
"1080 491 OFFCURVE",
"1073 638 CURVE SMOOTH",
"1064 809 OFFCURVE",
"1035 987 OFFCURVE",
"849 987 CURVE SMOOTH",
"338 987 LINE",
"309 987 OFFCURVE",
"299 1007 OFFCURVE",
"283 1050 CURVE",
"277 1065 OFFCURVE",
"266 1079 OFFCURVE",
"251 1079 CURVE",
"236 1079 OFFCURVE",
"223 1070 OFFCURVE",
"216 1061 CURVE",
"168 1004 OFFCURVE",
"97 891 OFFCURVE",
"62 814 CURVE SMOOTH",
"57 801 OFFCURVE",
"53 785 OFFCURVE",
"53 780 CURVE SMOOTH",
"53 758 OFFCURVE",
"71 754 OFFCURVE",
"85 754 CURVE SMOOTH",
"186 754 LINE SMOOTH",
"204 754 OFFCURVE",
"222 753 OFFCURVE",
"230 727 CURVE SMOOTH",
"281 595 OFFCURVE",
"355 279 OFFCURVE",
"355 256 CURVE SMOOTH",
"355 246 OFFCURVE",
"347 235 OFFCURVE",
"329 235 CURVE SMOOTH",
"167 235 LINE SMOOTH",
"148 235 OFFCURVE",
"132 221 OFFCURVE",
"121 202 CURVE SMOOTH",
"97 159 OFFCURVE",
"75 118 OFFCURVE"
);
}
);
width = 1221;
}
);
unicode = 05EA;
},
{
glyphname = shinshindothebrew;
lastChange = "2015-11-23 15:56:40 +0000";
layers = (
{
components = (
{
name = shinhebrew;
}
);
layerId = "3138562F-70A2-47D8-8787-D90195410BEE";
name = Regular;
paths = (
{
closed = 1;
nodes = (
"1003 1199 CURVE",
"1003 1240 OFFCURVE",
"969 1272 OFFCURVE",
"930 1272 CURVE",
"888 1272 OFFCURVE",
"856 1240 OFFCURVE",
"856 1199 CURVE",
"856 1159 OFFCURVE",
"888 1127 OFFCURVE",
"930 1127 CURVE",
"969 1127 OFFCURVE",
"1003 1159 OFFCURVE"
);
}
);
width = 1221;
}
);
unicode = FB2A;
},
{
glyphname = shinsindothebrew;
lastChange = "2015-11-23 15:56:40 +0000";
layers = (
{
components = (
{
name = shinhebrew;
}
);
layerId = "3138562F-70A2-47D8-8787-D90195410BEE";
name = Regular;
paths = (
{
closed = 1;
nodes = (
"399 1199 CURVE",
"399 1240 OFFCURVE",
"365 1272 OFFCURVE",
"326 1272 CURVE",
"285 1272 OFFCURVE",
"252 1240 OFFCURVE",
"252 1199 CURVE",
"252 1159 OFFCURVE",
"285 1127 OFFCURVE",
"326 1127 CURVE",
"365 1127 OFFCURVE",
"399 1159 OFFCURVE"
);
}
);
width = 1221;
}
);
unicode = FB2B;
},
{
glyphname = shindageshshindothebrew;
lastChange = "2015-11-23 15:56:40 +0000";
layers = (
{
components = (
{
name = shinhebrew;
},
{
name = dageshhebrew;
transform = "{1, 0, 0, 1, 424, 0}";
}
);
layerId = "3138562F-70A2-47D8-8787-D90195410BEE";
name = Regular;
paths = (
{
closed = 1;
nodes = (
"1003 1199 CURVE",
"1003 1240 OFFCURVE",
"969 1272 OFFCURVE",
"930 1272 CURVE SMOOTH",
"888 1272 OFFCURVE",
"856 1240 OFFCURVE",
"856 1199 CURVE SMOOTH",
"856 1159 OFFCURVE",
"888 1127 OFFCURVE",
"930 1127 CURVE SMOOTH",
"969 1127 OFFCURVE",
"1003 1159 OFFCURVE"
);
}
);
width = 1221;
}
);
unicode = FB2C;
},
{
glyphname = shindageshsindothebrew;
lastChange = "2015-11-23 15:56:40 +0000";
layers = (
{
components = (
{
name = shinhebrew;
},
{
name = dageshhebrew;
transform = "{1, 0, 0, 1, 428, 0}";
}
);
layerId = "3138562F-70A2-47D8-8787-D90195410BEE";
name = Regular;
paths = (
{
closed = 1;
nodes = (
"399 1199 CURVE",
"399 1240 OFFCURVE",
"365 1272 OFFCURVE",
"326 1272 CURVE",
"285 1272 OFFCURVE",
"252 1240 OFFCURVE",
"252 1199 CURVE",
"252 1159 OFFCURVE",
"285 1127 OFFCURVE",
"326 1127 CURVE",
"365 1127 OFFCURVE",
"399 1159 OFFCURVE"
);
}
);
width = 1221;
}
);
unicode = FB2D;
},
{
glyphname = tsadidageshhebrew;
lastChange = "2015-11-23 17:04:11 +0000";
layers = (
{
layerId = "3138562F-70A2-47D8-8787-D90195410BEE";
name = Regular;
paths = (
{
closed = 1;
nodes = (
"132 207 CURVE SMOOTH",
"114 179 OFFCURVE",
"69 102 OFFCURVE",
"46 53 CURVE SMOOTH",
"39 39 OFFCURVE",
"37 29 OFFCURVE",
"37 20 CURVE SMOOTH",
"37 7 OFFCURVE",
"48 0 OFFCURVE",
"69 0 CURVE SMOOTH",
"702 0 LINE SMOOTH",
"729 0 OFFCURVE",
"743 2 OFFCURVE",
"759 25 CURVE SMOOTH",
"804 95 OFFCURVE",
"834 161 OFFCURVE",
"853 214 CURVE SMOOTH",
"861 242 OFFCURVE",
"868 267 OFFCURVE",
"868 284 CURVE SMOOTH",
"868 303 OFFCURVE",
"860 328 OFFCURVE",
"840 355 CURVE SMOOTH",
"817 387 OFFCURVE",
"783 423 OFFCURVE",
"720 487 CURVE SMOOTH",
"711 498 OFFCURVE",
"707 503 OFFCURVE",
"707 509 CURVE SMOOTH",
"707 520 OFFCURVE",
"713 525 OFFCURVE",
"720 534 CURVE SMOOTH",
"808 652 OFFCURVE",
"860 753 OFFCURVE",
"860 869 CURVE SMOOTH",
"860 959 OFFCURVE",
"834 1016 OFFCURVE",
"815 1050 CURVE SMOOTH",
"803 1072 OFFCURVE",
"791 1081 OFFCURVE",
"786 1081 CURVE SMOOTH",
"772 1081 OFFCURVE",
"763 1072 OFFCURVE",
"745 1048 CURVE SMOOTH",
"714 1009 OFFCURVE",
"668 956 OFFCURVE",
"636 912 CURVE SMOOTH",
"618 889 OFFCURVE",
"616 876 OFFCURVE",
"616 864 CURVE SMOOTH",
"616 855 OFFCURVE",
"625 844 OFFCURVE",
"634 821 CURVE SMOOTH",
"643 797 OFFCURVE",
"650 763 OFFCURVE",
"650 701 CURVE SMOOTH",
"650 672 OFFCURVE",
"646 648 OFFCURVE",
"634 619 CURVE SMOOTH",
"629 606 OFFCURVE",
"620 595 OFFCURVE",
"610 595 CURVE SMOOTH",
"605 595 OFFCURVE",
"601 597 OFFCURVE",
"596 600 CURVE SMOOTH",
"432 730 OFFCURVE",
"283 882 OFFCURVE",
"220 1059 CURVE SMOOTH",
"216 1070 OFFCURVE",
"209 1081 OFFCURVE",
"198 1081 CURVE SMOOTH",
"191 1081 OFFCURVE",
"184 1074 OFFCURVE",
"170 1057 CURVE SMOOTH",
"141 1025 OFFCURVE",
"102 971 OFFCURVE",
"57 908 CURVE SMOOTH",
"44 891 OFFCURVE",
"41 879 OFFCURVE",
"41 867 CURVE SMOOTH",
"41 855 OFFCURVE",
"48 838 OFFCURVE",
"61 819 CURVE SMOOTH",
"82 785 OFFCURVE",
"114 746 OFFCURVE",
"131 725 CURVE SMOOTH",
"206 634 OFFCURVE",
"528 369 OFFCURVE",
"591 313 CURVE SMOOTH",
"625 282 OFFCURVE",
"637 272 OFFCURVE",
"637 249 CURVE SMOOTH",
"637 236 OFFCURVE",
"625 235 OFFCURVE",
"612 235 CURVE SMOOTH",
"181 235 LINE SMOOTH",
"155 235 OFFCURVE",
"141 219 OFFCURVE"
);
},
{
closed = 1;
nodes = (
"256 437 CURVE",
"256 478 OFFCURVE",
"223 510 OFFCURVE",
"184 510 CURVE",
"143 510 OFFCURVE",
"110 478 OFFCURVE",
"110 437 CURVE",
"110 398 OFFCURVE",
"143 365 OFFCURVE",
"184 365 CURVE",
"223 365 OFFCURVE",
"256 398 OFFCURVE"
);
}
);
width = 936;
}
);
unicode = FB46;
},
{
glyphname = zero;
lastChange = "2015-11-23 15:56:40 +0000";
layers = (
{
layerId = "3138562F-70A2-47D8-8787-D90195410BEE";
name = Regular;
paths = (
{
closed = 1;
nodes = (
"299 11 CURVE SMOOTH",
"353 -24 OFFCURVE",
"419 -29 OFFCURVE",
"461 -29 CURVE SMOOTH",
"494 -29 OFFCURVE",
"535 -16 OFFCURVE",
"566 -2 CURVE SMOOTH",
"671 48 OFFCURVE",
"754 171 OFFCURVE",
"791 260 CURVE SMOOTH",
"849 396 OFFCURVE",
"867 520 OFFCURVE",
"867 631 CURVE SMOOTH",
"867 799 OFFCURVE",
"844 995 OFFCURVE",
"757 1113 CURVE SMOOTH",
"687 1209 OFFCURVE",
"586 1276 OFFCURVE",
"471 1276 CURVE SMOOTH",
"367 1276 OFFCURVE",
"279 1221 OFFCURVE",
"216 1138 CURVE SMOOTH",
"177 1088 OFFCURVE",
"145 1031 OFFCURVE",
"123 961 CURVE SMOOTH",
"93 864 OFFCURVE",
"78 740 OFFCURVE",
"78 645 CURVE SMOOTH",
"80 403 OFFCURVE",
"121 123 OFFCURVE"
);
},
{
closed = 1;
nodes = (
"516 202 CURVE SMOOTH",
"424 202 OFFCURVE",
"355 253 OFFCURVE",
"324 323 CURVE SMOOTH",
"292 398 OFFCURVE",
"270 545 OFFCURVE",
"270 679 CURVE SMOOTH",
"270 765 OFFCURVE",
"281 880 OFFCURVE",
"302 959 CURVE SMOOTH",
"315 1002 OFFCURVE",
"342 1050 OFFCURVE",
"405 1050 CURVE SMOOTH",
"494 1050 OFFCURVE",
"560 993 OFFCURVE",
"589 930 CURVE SMOOTH",
"644 805 OFFCURVE",
"661 672 OFFCURVE",
"661 545 CURVE SMOOTH",
"661 506 OFFCURVE",
"659 468 OFFCURVE",
"656 431 CURVE SMOOTH",
"650 359 OFFCURVE",
"636 277 OFFCURVE",
"610 240 CURVE SMOOTH",
"591 212 OFFCURVE",
"552 202 OFFCURVE"
);
}
);
width = 938;
}
);
unicode = 0030;
},
{
glyphname = one;
lastChange = "2015-11-23 15:56:40 +0000";
layers = (
{
layerId = "3138562F-70A2-47D8-8787-D90195410BEE";
name = Regular;
paths = (
{
closed = 1;
nodes = (
"75 39 CURVE SMOOTH",
"69 27 OFFCURVE",
"69 24 OFFCURVE",
"69 18 CURVE SMOOTH",
"69 5 OFFCURVE",
"91 0 OFFCURVE",
"116 0 CURVE SMOOTH",
"700 0 LINE SMOOTH",
"761 0 OFFCURVE",
"797 93 OFFCURVE",
"846 178 CURVE SMOOTH",
"853 190 OFFCURVE",
"860 207 OFFCURVE",
"860 214 CURVE SMOOTH",
"860 229 OFFCURVE",
"847 235 OFFCURVE",
"834 235 CURVE SMOOTH",
"650 235 LINE SMOOTH",
"615 235 OFFCURVE",
"603 251 OFFCURVE",
"601 291 CURVE SMOOTH",
"600 359 OFFCURVE",
"584 614 OFFCURVE",
"584 918 CURVE SMOOTH",
"584 970 OFFCURVE",
"579 1115 OFFCURVE",
"566 1211 CURVE SMOOTH",
"559 1267 OFFCURVE",
"539 1291 OFFCURVE",
"509 1291 CURVE SMOOTH",
"487 1291 OFFCURVE",
"471 1283 OFFCURVE",
"440 1265 CURVE SMOOTH",
"350 1213 OFFCURVE",
"237 1140 OFFCURVE",
"160 1077 CURVE SMOOTH",
"141 1061 OFFCURVE",
"129 1040 OFFCURVE",
"129 1021 CURVE SMOOTH",
"129 1002 OFFCURVE",
"148 995 OFFCURVE",
"179 993 CURVE SMOOTH",
"188 993 OFFCURVE",
"223 991 OFFCURVE",
"234 991 CURVE SMOOTH",
"293 989 OFFCURVE",
"356 954 OFFCURVE",
"367 850 CURVE SMOOTH",
"381 713 OFFCURVE",
"388 581 OFFCURVE",
"388 291 CURVE SMOOTH",
"388 260 OFFCURVE",
"372 235 OFFCURVE",
"340 235 CURVE SMOOTH",
"211 235 LINE SMOOTH",
"184 235 OFFCURVE",
"174 228 OFFCURVE",
"164 214 CURVE SMOOTH",
"139 179 OFFCURVE",
"93 81 OFFCURVE"
);
}
);
width = 938;
}
);
unicode = 0031;
},
{
glyphname = two;
lastChange = "2015-11-23 15:56:40 +0000";
layers = (
{
layerId = "3138562F-70A2-47D8-8787-D90195410BEE";
name = Regular;
paths = (
{
closed = 1;
nodes = (
"114 43 CURVE SMOOTH",
"112 36 OFFCURVE",
"111 29 OFFCURVE",
"111 24 CURVE SMOOTH",
"111 9 OFFCURVE",
"119 2 OFFCURVE",
"141 2 CURVE SMOOTH",
"714 2 LINE SMOOTH",
"727 2 OFFCURVE",
"736 7 OFFCURVE",
"747 18 CURVE SMOOTH",
"776 46 OFFCURVE",
"839 176 OFFCURVE",
"853 200 CURVE SMOOTH",
"856 207 OFFCURVE",
"861 219 OFFCURVE",
"861 222 CURVE SMOOTH",
"861 231 OFFCURVE",
"854 235 OFFCURVE",
"842 235 CURVE SMOOTH",
"437 235 LINE SMOOTH",
"422 235 OFFCURVE",
"419 242 OFFCURVE",
"419 258 CURVE SMOOTH",
"419 301 OFFCURVE",
"550 503 OFFCURVE",
"636 609 CURVE SMOOTH",
"734 730 OFFCURVE",
"786 848 OFFCURVE",
"786 949 CURVE SMOOTH",
"786 1202 OFFCURVE",
"512 1272 OFFCURVE",
"309 1272 CURVE SMOOTH",
"290 1272 OFFCURVE",
"268 1258 OFFCURVE",
"261 1249 CURVE SMOOTH",
"227 1208 OFFCURVE",
"195 1159 OFFCURVE",
"155 1095 CURVE SMOOTH",
"150 1086 OFFCURVE",
"141 1070 OFFCURVE",
"141 1067 CURVE SMOOTH",
"141 1055 OFFCURVE",
"152 1050 OFFCURVE",
"172 1050 CURVE SMOOTH",
"247 1050 OFFCURVE",
"363 1033 OFFCURVE",
"422 1009 CURVE SMOOTH",
"514 975 OFFCURVE",
"548 893 OFFCURVE",
"548 841 CURVE SMOOTH",
"548 692 OFFCURVE",
"419 550 OFFCURVE",
"335 438 CURVE SMOOTH",
"279 364 OFFCURVE",
"170 215 OFFCURVE"
);
}
);
width = 938;
}
);
unicode = 0032;
},
{
glyphname = three;
lastChange = "2015-11-23 15:56:40 +0000";
layers = (
{
layerId = "3138562F-70A2-47D8-8787-D90195410BEE";
name = Regular;
paths = (
{
closed = 1;
nodes = (
"97 86 CURVE SMOOTH",
"87 74 OFFCURVE",
"83 65 OFFCURVE",
"83 55 CURVE SMOOTH",
"83 41 OFFCURVE",
"102 34 OFFCURVE",
"111 31 CURVE SMOOTH",
"204 -7 OFFCURVE",
"300 -29 OFFCURVE",
"383 -29 CURVE SMOOTH",
"463 -29 OFFCURVE",
"574 5 OFFCURVE",
"661 88 CURVE SMOOTH",
"741 165 OFFCURVE",
"832 291 OFFCURVE",
"832 445 CURVE SMOOTH",
"832 624 OFFCURVE",
"678 696 OFFCURVE",
"625 722 CURVE SMOOTH",
"618 725 OFFCURVE",
"612 724 OFFCURVE",
"612 735 CURVE SMOOTH",
"612 739 OFFCURVE",
"620 751 OFFCURVE",
"630 760 CURVE SMOOTH",
"692 812 OFFCURVE",
"759 894 OFFCURVE",
"759 1012 CURVE SMOOTH",
"759 1113 OFFCURVE",
"692 1185 OFFCURVE",
"601 1224 CURVE SMOOTH",
"519 1260 OFFCURVE",
"401 1276 OFFCURVE",
"333 1276 CURVE SMOOTH",
"315 1276 OFFCURVE",
"302 1265 OFFCURVE",
"292 1253 CURVE SMOOTH",
"259 1215 OFFCURVE",
"175 1103 OFFCURVE",
"175 1084 CURVE SMOOTH",
"175 1067 OFFCURVE",
"186 1062 OFFCURVE",
"206 1062 CURVE SMOOTH",
"251 1062 OFFCURVE",
"362 1055 OFFCURVE",
"420 1041 CURVE SMOOTH",
"501 1021 OFFCURVE",
"555 973 OFFCURVE",
"555 914 CURVE SMOOTH",
"555 848 OFFCURVE",
"510 792 OFFCURVE",
"424 758 CURVE SMOOTH",
"392 746 OFFCURVE",
"365 725 OFFCURVE",
"349 704 CURVE SMOOTH",
"311 655 OFFCURVE",
"277 599 OFFCURVE",
"277 577 CURVE SMOOTH",
"277 552 OFFCURVE",
"286 549 OFFCURVE",
"311 549 CURVE SMOOTH",
"353 549 OFFCURVE",
"413 537 OFFCURVE",
"456 525 CURVE SMOOTH",
"577 491 OFFCURVE",
"612 407 OFFCURVE",
"612 355 CURVE SMOOTH",
"612 277 OFFCURVE",
"560 190 OFFCURVE",
"424 188 CURVE SMOOTH",
"363 188 OFFCURVE",
"290 214 OFFCURVE",
"261 226 CURVE SMOOTH",
"245 233 OFFCURVE",
"232 238 OFFCURVE",
"223 238 CURVE SMOOTH",
"213 238 OFFCURVE",
"202 229 OFFCURVE",
"191 215 CURVE SMOOTH",
"164 183 OFFCURVE",
"136 142 OFFCURVE"
);
}
);
width = 938;
}
);
unicode = 0033;
},
{
glyphname = four;
lastChange = "2015-11-23 15:56:40 +0000";
layers = (
{
layerId = "3138562F-70A2-47D8-8787-D90195410BEE";
name = Regular;
paths = (
{
closed = 1;
nodes = (
"501 333 CURVE",
"501 298 OFFCURVE",
"507 77 OFFCURVE",
"509 -9 CURVE SMOOTH",
"509 -36 OFFCURVE",
"519 -45 OFFCURVE",
"533 -45 CURVE SMOOTH",
"545 -45 OFFCURVE",
"553 -34 OFFCURVE",
"567 -20 CURVE SMOOTH",
"603 16 OFFCURVE",
"648 81 OFFCURVE",
"666 120 CURVE SMOOTH",
"675 138 OFFCURVE",
"677 149 OFFCURVE",
"677 165 CURVE SMOOTH",
"677 339 LINE SMOOTH",
"677 359 OFFCURVE",
"680 364 OFFCURVE",
"695 364 CURVE SMOOTH",
"777 364 LINE SMOOTH",
"790 364 OFFCURVE",
"804 375 OFFCURVE",
"815 396 CURVE SMOOTH",
"853 472 OFFCURVE",
"890 554 OFFCURVE",
"890 573 CURVE SMOOTH",
"890 590 OFFCURVE",
"883 595 OFFCURVE",
"868 595 CURVE SMOOTH",
"699 595 LINE SMOOTH",
"682 595 OFFCURVE",
"677 600 OFFCURVE",
"677 614 CURVE SMOOTH",
"675 647 OFFCURVE",
"668 1074 OFFCURVE",
"652 1242 CURVE SMOOTH",
"648 1271 OFFCURVE",
"627 1286 OFFCURVE",
"607 1286 CURVE SMOOTH",
"593 1286 OFFCURVE",
"574 1283 OFFCURVE",
"552 1271 CURVE SMOOTH",
"483 1235 OFFCURVE",
"394 1173 OFFCURVE",
"342 1120 CURVE SMOOTH",
"281 1057 OFFCURVE",
"220 977 OFFCURVE",
"167 872 CURVE SMOOTH",
"116 778 OFFCURVE",
"41 585 OFFCURVE",
"41 487 CURVE SMOOTH",
"41 409 OFFCURVE",
"69 364 OFFCURVE",
"143 364 CURVE SMOOTH",
"471 364 LINE SMOOTH",
"494 364 OFFCURVE",
"499 361 OFFCURVE"
);
},
{
closed = 1;
nodes = (
"471 989 CURVE SMOOTH",
"483 889 OFFCURVE",
"496 706 OFFCURVE",
"496 624 CURVE SMOOTH",
"496 602 OFFCURVE",
"492 595 OFFCURVE",
"476 595 CURVE SMOOTH",
"263 595 LINE SMOOTH",
"232 595 OFFCURVE",
"215 595 OFFCURVE",
"215 640 CURVE SMOOTH",
"215 701 OFFCURVE",
"256 819 OFFCURVE",
"297 884 CURVE SMOOTH",
"331 937 OFFCURVE",
"386 985 OFFCURVE",
"432 1009 CURVE SMOOTH",
"439 1012 OFFCURVE",
"446 1014 OFFCURVE",
"451 1014 CURVE SMOOTH",
"466 1014 OFFCURVE",
"469 1004 OFFCURVE"
);
}
);
width = 936;
}
);
unicode = 0034;
},
{
glyphname = five;
lastChange = "2015-11-23 15:56:40 +0000";
layers = (
{
layerId = "3138562F-70A2-47D8-8787-D90195410BEE";
name = Regular;
paths = (
{
closed = 1;
nodes = (
"195 222 CURVE SMOOTH",
"175 200 OFFCURVE",
"131 131 OFFCURVE",
"102 84 CURVE SMOOTH",
"93 70 OFFCURVE",
"89 61 OFFCURVE",
"89 50 CURVE SMOOTH",
"89 18 OFFCURVE",
"277 -31 OFFCURVE",
"374 -31 CURVE SMOOTH",
"503 -31 OFFCURVE",
"639 29 OFFCURVE",
"741 200 CURVE SMOOTH",
"769 246 OFFCURVE",
"824 339 OFFCURVE",
"824 445 CURVE SMOOTH",
"824 688 OFFCURVE",
"586 758 OFFCURVE",
"489 758 CURVE SMOOTH",
"398 758 LINE SMOOTH",
"374 758 OFFCURVE",
"360 773 OFFCURVE",
"360 795 CURVE SMOOTH",
"360 821 OFFCURVE",
"355 925 OFFCURVE",
"355 939 CURVE SMOOTH",
"355 961 OFFCURVE",
"365 968 OFFCURVE",
"386 968 CURVE SMOOTH",
"678 968 LINE SMOOTH",
"718 968 OFFCURVE",
"729 975 OFFCURVE",
"741 997 CURVE SMOOTH",
"761 1033 OFFCURVE",
"793 1100 OFFCURVE",
"811 1144 CURVE SMOOTH",
"818 1161 OFFCURVE",
"822 1173 OFFCURVE",
"822 1181 CURVE SMOOTH",
"822 1192 OFFCURVE",
"813 1208 OFFCURVE",
"783 1208 CURVE SMOOTH",
"388 1208 LINE SMOOTH",
"362 1208 OFFCURVE",
"343 1226 OFFCURVE",
"317 1269 CURVE SMOOTH",
"309 1279 OFFCURVE",
"307 1286 OFFCURVE",
"295 1286 CURVE SMOOTH",
"285 1286 OFFCURVE",
"272 1278 OFFCURVE",
"258 1258 CURVE SMOOTH",
"222 1209 OFFCURVE",
"175 1125 OFFCURVE",
"168 1091 CURVE SMOOTH",
"162 1072 OFFCURVE",
"159 1041 OFFCURVE",
"159 989 CURVE SMOOTH",
"159 858 OFFCURVE",
"160 733 OFFCURVE",
"164 626 CURVE SMOOTH",
"167 575 OFFCURVE",
"189 543 OFFCURVE",
"245 543 CURVE SMOOTH",
"335 543 LINE SMOOTH",
"430 543 OFFCURVE",
"503 534 OFFCURVE",
"545 503 CURVE SMOOTH",
"587 472 OFFCURVE",
"616 412 OFFCURVE",
"616 359 CURVE SMOOTH",
"616 262 OFFCURVE",
"543 190 OFFCURVE",
"444 190 CURVE SMOOTH",
"367 190 OFFCURVE",
"247 235 OFFCURVE",
"220 235 CURVE SMOOTH",
"208 235 OFFCURVE",
"200 229 OFFCURVE"
);
}
);
width = 938;
}
);
unicode = 0035;
},
{
glyphname = six;
lastChange = "2015-11-23 15:56:40 +0000";
layers = (
{
layerId = "3138562F-70A2-47D8-8787-D90195410BEE";
name = Regular;
paths = (
{
closed = 1;
nodes = (
"175 718 CURVE SMOOTH",
"112 602 OFFCURVE",
"46 470 OFFCURVE",
"46 346 CURVE SMOOTH",
"46 217 OFFCURVE",
"114 125 OFFCURVE",
"177 68 CURVE SMOOTH",
"237 12 OFFCURVE",
"329 -31 OFFCURVE",
"424 -31 CURVE SMOOTH",
"663 -31 OFFCURVE",
"865 231 OFFCURVE",
"865 428 CURVE SMOOTH",
"865 606 OFFCURVE",
"765 787 OFFCURVE",
"559 787 CURVE SMOOTH",
"463 787 OFFCURVE",
"415 747 OFFCURVE",
"408 747 CURVE SMOOTH",
"405 747 OFFCURVE",
"401 749 OFFCURVE",
"401 753 CURVE SMOOTH",
"401 756 OFFCURVE",
"410 769 OFFCURVE",
"426 794 CURVE SMOOTH",
"497 908 OFFCURVE",
"620 1081 OFFCURVE",
"673 1154 CURVE SMOOTH",
"716 1213 LINE SMOOTH",
"729 1229 OFFCURVE",
"740 1245 OFFCURVE",
"740 1258 CURVE SMOOTH",
"740 1271 OFFCURVE",
"736 1283 OFFCURVE",
"716 1283 CURVE SMOOTH",
"699 1283 OFFCURVE",
"596 1245 OFFCURVE",
"539 1215 CURVE SMOOTH",
"503 1195 OFFCURVE",
"483 1173 OFFCURVE",
"461 1149 CURVE SMOOTH",
"383 1059 OFFCURVE",
"261 879 OFFCURVE"
);
},
{
closed = 1;
nodes = (
"673 376 CURVE SMOOTH",
"673 263 OFFCURVE",
"600 183 OFFCURVE",
"480 183 CURVE SMOOTH",
"377 183 OFFCURVE",
"252 272 OFFCURVE",
"252 402 CURVE SMOOTH",
"252 518 OFFCURVE",
"338 599 OFFCURVE",
"453 599 CURVE SMOOTH",
"574 599 OFFCURVE",
"673 486 OFFCURVE"
);
}
);
width = 936;
}
);
unicode = 0036;
},
{
glyphname = seven;
lastChange = "2015-11-23 15:56:40 +0000";
layers = (
{
layerId = "3138562F-70A2-47D8-8787-D90195410BEE";
name = Regular;
paths = (
{
closed = 1;
nodes = (
"204 240 CURVE SMOOTH",
"181 178 OFFCURVE",
"160 97 OFFCURVE",
"160 -12 CURVE SMOOTH",
"160 -31 OFFCURVE",
"170 -43 OFFCURVE",
"184 -43 CURVE SMOOTH",
"193 -43 OFFCURVE",
"208 -32 OFFCURVE",
"218 -24 CURVE SMOOTH",
"275 24 OFFCURVE",
"350 97 OFFCURVE",
"399 156 CURVE SMOOTH",
"413 174 OFFCURVE",
"424 195 OFFCURVE",
"424 219 CURVE SMOOTH",
"424 249 OFFCURVE",
"444 319 OFFCURVE",
"456 359 CURVE SMOOTH",
"490 460 OFFCURVE",
"569 593 OFFCURVE",
"634 686 CURVE SMOOTH",
"678 751 OFFCURVE",
"776 891 OFFCURVE",
"820 978 CURVE SMOOTH",
"858 1052 OFFCURVE",
"890 1132 OFFCURVE",
"890 1161 CURVE SMOOTH",
"890 1183 OFFCURVE",
"885 1208 OFFCURVE",
"840 1208 CURVE",
"331 1208 LINE SMOOTH",
"277 1208 OFFCURVE",
"268 1213 OFFCURVE",
"252 1262 CURVE SMOOTH",
"247 1276 OFFCURVE",
"236 1286 OFFCURVE",
"222 1286 CURVE SMOOTH",
"211 1286 OFFCURVE",
"204 1281 OFFCURVE",
"193 1269 CURVE SMOOTH",
"146 1213 OFFCURVE",
"98 1127 OFFCURVE",
"59 1050 CURVE SMOOTH",
"51 1034 OFFCURVE",
"39 1014 OFFCURVE",
"39 1005 CURVE SMOOTH",
"39 980 OFFCURVE",
"51 970 OFFCURVE",
"83 970 CURVE SMOOTH",
"548 970 LINE SMOOTH",
"567 970 OFFCURVE",
"577 963 OFFCURVE",
"577 946 CURVE SMOOTH",
"577 894 OFFCURVE",
"494 742 OFFCURVE",
"428 638 CURVE SMOOTH",
"331 489 OFFCURVE",
"247 353 OFFCURVE"
);
}
);
width = 938;
}
);
unicode = 0037;
},
{
glyphname = eight;
lastChange = "2015-11-23 15:56:40 +0000";
layers = (
{
layerId = "3138562F-70A2-47D8-8787-D90195410BEE";
name = Regular;
paths = (
{
closed = 1;
nodes = (
"64 317 CURVE SMOOTH",
"64 228 OFFCURVE",
"102 144 OFFCURVE",
"164 82 CURVE SMOOTH",
"244 7 OFFCURVE",
"349 -32 OFFCURVE",
"428 -32 CURVE SMOOTH",
"541 -32 OFFCURVE",
"668 50 OFFCURVE",
"740 133 CURVE SMOOTH",
"806 208 OFFCURVE",
"851 312 OFFCURVE",
"851 387 CURVE SMOOTH",
"851 475 OFFCURVE",
"810 559 OFFCURVE",
"745 609 CURVE SMOOTH",
"704 641 OFFCURVE",
"650 674 OFFCURVE",
"618 692 CURVE SMOOTH",
"615 694 OFFCURVE",
"612 697 OFFCURVE",
"612 703 CURVE SMOOTH",
"612 704 OFFCURVE",
"612 708 OFFCURVE",
"615 710 CURVE SMOOTH",
"622 718 OFFCURVE",
"637 732 OFFCURVE",
"654 747 CURVE SMOOTH",
"729 828 OFFCURVE",
"770 887 OFFCURVE",
"770 998 CURVE SMOOTH",
"770 1152 OFFCURVE",
"618 1272 OFFCURVE",
"480 1272 CURVE SMOOTH",
"432 1272 OFFCURVE",
"370 1260 OFFCURVE",
"328 1236 CURVE SMOOTH",
"261 1201 OFFCURVE",
"202 1147 OFFCURVE",
"155 1074 CURVE SMOOTH",
"123 1023 OFFCURVE",
"104 949 OFFCURVE",
"104 894 CURVE SMOOTH",
"104 767 OFFCURVE",
"157 701 OFFCURVE",
"249 640 CURVE SMOOTH",
"251 638 OFFCURVE",
"252 636 OFFCURVE",
"252 633 CURVE SMOOTH",
"252 629 OFFCURVE",
"249 624 OFFCURVE",
"242 620 CURVE SMOOTH",
"141 563 OFFCURVE",
"64 441 OFFCURVE"
);
},
{
closed = 1;
nodes = (
"630 335 CURVE SMOOTH",
"630 285 OFFCURVE",
"596 188 OFFCURVE",
"489 188 CURVE SMOOTH",
"374 188 OFFCURVE",
"261 265 OFFCURVE",
"261 387 CURVE SMOOTH",
"261 496 OFFCURVE",
"333 547 OFFCURVE",
"369 559 CURVE SMOOTH",
"372 561 OFFCURVE",
"374 561 OFFCURVE",
"377 561 CURVE SMOOTH",
"381 561 OFFCURVE",
"391 561 OFFCURVE",
"394 559 CURVE SMOOTH",
"466 523 OFFCURVE",
"496 503 OFFCURVE",
"546 472 CURVE SMOOTH",
"594 441 OFFCURVE",
"630 403 OFFCURVE"
);
},
{
closed = 1;
nodes = (
"509 780 CURVE SMOOTH",
"505 776 OFFCURVE",
"496 771 OFFCURVE",
"489 771 CURVE SMOOTH",
"478 771 OFFCURVE",
"454 780 OFFCURVE",
"442 787 CURVE SMOOTH",
"383 821 OFFCURVE",
"307 867 OFFCURVE",
"307 946 CURVE SMOOTH",
"307 1018 OFFCURVE",
"342 1062 OFFCURVE",
"420 1062 CURVE SMOOTH",
"489 1062 OFFCURVE",
"582 1002 OFFCURVE",
"582 923 CURVE SMOOTH",
"582 850 OFFCURVE",
"555 814 OFFCURVE"
);
}
);
width = 938;
}
);
unicode = 0038;
},
{
glyphname = nine;
lastChange = "2015-11-23 15:56:40 +0000";
layers = (
{
layerId = "3138562F-70A2-47D8-8787-D90195410BEE";
name = Regular;
paths = (
{
closed = 1;
nodes = (
"503 445 CURVE SMOOTH",
"503 428 OFFCURVE",
"279 106 OFFCURVE",
"229 31 CURVE SMOOTH",
"218 14 OFFCURVE",
"206 -7 OFFCURVE",
"206 -20 CURVE SMOOTH",
"206 -31 OFFCURVE",
"213 -45 OFFCURVE",
"232 -45 CURVE SMOOTH",
"247 -45 OFFCURVE",
"261 -39 OFFCURVE",
"285 -29 CURVE SMOOTH",
"350 2 OFFCURVE",
"412 38 OFFCURVE",
"458 70 CURVE SMOOTH",
"475 81 OFFCURVE",
"492 102 OFFCURVE",
"509 123 CURVE SMOOTH",
"729 438 OFFCURVE",
"890 692 OFFCURVE",
"890 876 CURVE SMOOTH",
"890 973 OFFCURVE",
"860 1075 OFFCURVE",
"779 1152 CURVE SMOOTH",
"697 1231 OFFCURVE",
"591 1274 OFFCURVE",
"497 1274 CURVE SMOOTH",
"347 1274 OFFCURVE",
"232 1175 OFFCURVE",
"174 1098 CURVE SMOOTH",
"123 1034 OFFCURVE",
"59 916 OFFCURVE",
"59 797 CURVE SMOOTH",
"59 566 OFFCURVE",
"244 438 OFFCURVE",
"388 438 CURVE SMOOTH",
"439 438 OFFCURVE",
"487 453 OFFCURVE",
"492 453 CURVE SMOOTH",
"499 453 OFFCURVE",
"503 450 OFFCURVE"
);
},
{
closed = 1;
nodes = (
"433 1055 CURVE SMOOTH",
"569 1055 OFFCURVE",
"671 961 OFFCURVE",
"671 837 CURVE SMOOTH",
"671 704 OFFCURVE",
"587 634 OFFCURVE",
"480 634 CURVE SMOOTH",
"358 634 OFFCURVE",
"256 711 OFFCURVE",
"256 864 CURVE SMOOTH",
"256 949 OFFCURVE",
"302 1055 OFFCURVE"
);
}
);
width = 936;
}
);
unicode = 0039;
},
{
glyphname = zero.001;
lastChange = "2015-11-23 15:56:40 +0000";
layers = (
{
layerId = "3138562F-70A2-47D8-8787-D90195410BEE";
name = Regular;
paths = (
{
closed = 1;
nodes = (
"30 518 CURVE SMOOTH",
"30 142 OFFCURVE",
"189 -31 OFFCURVE",
"394 -31 CURVE SMOOTH",
"598 -31 OFFCURVE",
"727 183 OFFCURVE",
"767 326 CURVE SMOOTH",
"781 382 OFFCURVE",
"791 453 OFFCURVE",
"791 520 CURVE SMOOTH",
"791 769 OFFCURVE",
"699 1074 OFFCURVE",
"405 1074 CURVE SMOOTH",
"174 1074 OFFCURVE",
"30 788 OFFCURVE"
);
},
{
closed = 1;
nodes = (
"449 171 CURVE SMOOTH",
"297 171 OFFCURVE",
"209 270 OFFCURVE",
"209 539 CURVE SMOOTH",
"209 638 OFFCURVE",
"213 670 OFFCURVE",
"220 711 CURVE SMOOTH",
"234 797 OFFCURVE",
"277 871 OFFCURVE",
"362 871 CURVE SMOOTH",
"560 871 OFFCURVE",
"608 665 OFFCURVE",
"608 455 CURVE SMOOTH",
"608 185 OFFCURVE",
"516 171 OFFCURVE"
);
}
);
width = 816;
}
);
},
{
glyphname = one.001;
lastChange = "2015-11-23 15:56:40 +0000";
layers = (
{
layerId = "3138562F-70A2-47D8-8787-D90195410BEE";
name = Regular;
paths = (
{
closed = 1;
nodes = (
"59 41 CURVE SMOOTH",
"53 29 OFFCURVE",
"49 18 OFFCURVE",
"49 12 CURVE SMOOTH",
"49 0 OFFCURVE",
"68 0 OFFCURVE",
"87 0 CURVE SMOOTH",
"634 0 LINE SMOOTH",
"659 0 OFFCURVE",
"682 11 OFFCURVE",
"702 43 CURVE SMOOTH",
"736 99 OFFCURVE",
"741 120 OFFCURVE",
"769 174 CURVE SMOOTH",
"774 185 OFFCURVE",
"781 200 OFFCURVE",
"781 208 CURVE SMOOTH",
"781 221 OFFCURVE",
"769 226 OFFCURVE",
"757 226 CURVE SMOOTH",
"600 226 LINE SMOOTH",
"567 226 OFFCURVE",
"545 240 OFFCURVE",
"545 274 CURVE SMOOTH",
"545 330 OFFCURVE",
"531 516 OFFCURVE",
"531 778 CURVE SMOOTH",
"531 819 OFFCURVE",
"531 973 OFFCURVE",
"507 1052 CURVE SMOOTH",
"499 1074 OFFCURVE",
"480 1084 OFFCURVE",
"460 1084 CURVE SMOOTH",
"439 1084 OFFCURVE",
"413 1075 OFFCURVE",
"388 1061 CURVE SMOOTH",
"317 1019 OFFCURVE",
"222 951 OFFCURVE",
"164 907 CURVE SMOOTH",
"141 889 OFFCURVE",
"126 869 OFFCURVE",
"126 858 CURVE SMOOTH",
"126 838 OFFCURVE",
"143 831 OFFCURVE",
"170 830 CURVE SMOOTH",
"252 823 LINE SMOOTH",
"290 819 OFFCURVE",
"315 780 OFFCURVE",
"324 708 CURVE SMOOTH",
"336 611 OFFCURVE",
"338 479 OFFCURVE",
"338 310 CURVE SMOOTH",
"338 272 OFFCURVE",
"338 226 OFFCURVE",
"297 226 CURVE SMOOTH",
"182 226 LINE SMOOTH",
"159 226 OFFCURVE",
"150 219 OFFCURVE",
"143 208 CURVE SMOOTH",
"123 179 OFFCURVE",
"75 79 OFFCURVE"
);
}
);
width = 816;
}
);
},
{
glyphname = two.001;
lastChange = "2015-11-23 15:56:40 +0000";
layers = (
{
layerId = "3138562F-70A2-47D8-8787-D90195410BEE";
name = Regular;
paths = (
{
closed = 1;
nodes = (
"126 154 CURVE SMOOTH",
"105 111 OFFCURVE",
"80 53 OFFCURVE",
"80 22 CURVE SMOOTH",
"80 5 OFFCURVE",
"89 2 OFFCURVE",
"111 2 CURVE SMOOTH",
"625 2 LINE SMOOTH",
"639 2 OFFCURVE",
"652 12 OFFCURVE",
"670 39 CURVE SMOOTH",
"699 82 OFFCURVE",
"729 144 OFFCURVE",
"750 181 CURVE SMOOTH",
"759 197 OFFCURVE",
"761 208 OFFCURVE",
"761 214 CURVE SMOOTH",
"761 221 OFFCURVE",
"755 226 OFFCURVE",
"741 226 CURVE SMOOTH",
"377 226 LINE SMOOTH",
"363 226 OFFCURVE",
"355 231 OFFCURVE",
"355 248 CURVE SMOOTH",
"356 282 OFFCURVE",
"458 414 OFFCURVE",
"509 475 CURVE SMOOTH",
"591 575 OFFCURVE",
"675 681 OFFCURVE",
"675 774 CURVE SMOOTH",
"675 995 OFFCURVE",
"453 1074 OFFCURVE",
"252 1074 CURVE SMOOTH",
"236 1074 OFFCURVE",
"218 1061 OFFCURVE",
"202 1040 CURVE SMOOTH",
"179 1007 OFFCURVE",
"141 948 OFFCURVE",
"118 912 CURVE SMOOTH",
"102 887 OFFCURVE",
"98 882 OFFCURVE",
"98 871 CURVE SMOOTH",
"98 857 OFFCURVE",
"114 857 OFFCURVE",
"136 857 CURVE SMOOTH",
"227 857 OFFCURVE",
"456 853 OFFCURVE",
"456 681 CURVE SMOOTH",
"456 607 OFFCURVE",
"392 522 OFFCURVE",
"335 452 CURVE SMOOTH",
"236 328 OFFCURVE",
"168 238 OFFCURVE"
);
}
);
width = 816;
}
);
},
{
glyphname = three.001;
lastChange = "2015-11-23 15:56:40 +0000";
layers = (
{
layerId = "3138562F-70A2-47D8-8787-D90195410BEE";
name = Regular;
paths = (
{
closed = 1;
nodes = (
"168 221 CURVE SMOOTH",
"146 197 OFFCURVE",
"89 93 OFFCURVE",
"71 58 CURVE SMOOTH",
"68 50 OFFCURVE",
"66 41 OFFCURVE",
"66 39 CURVE SMOOTH",
"66 27 OFFCURVE",
"71 22 OFFCURVE",
"87 12 CURVE SMOOTH",
"138 -12 OFFCURVE",
"249 -31 OFFCURVE",
"304 -31 CURVE SMOOTH",
"376 -31 OFFCURVE",
"494 -5 OFFCURVE",
"571 68 CURVE SMOOTH",
"641 137 OFFCURVE",
"716 240 OFFCURVE",
"716 364 CURVE SMOOTH",
"716 494 OFFCURVE",
"610 559 OFFCURVE",
"535 597 CURVE SMOOTH",
"524 602 OFFCURVE",
"517 604 OFFCURVE",
"517 609 CURVE SMOOTH",
"517 611 OFFCURVE",
"519 614 OFFCURVE",
"524 620 CURVE SMOOTH",
"591 670 OFFCURVE",
"650 749 OFFCURVE",
"650 831 CURVE SMOOTH",
"650 1018 OFFCURVE",
"419 1075 OFFCURVE",
"266 1075 CURVE SMOOTH",
"249 1075 OFFCURVE",
"242 1065 OFFCURVE",
"225 1041 CURVE SMOOTH",
"202 1007 OFFCURVE",
"162 942 OFFCURVE",
"148 910 CURVE SMOOTH",
"143 900 OFFCURVE",
"141 891 OFFCURVE",
"141 884 CURVE SMOOTH",
"141 871 OFFCURVE",
"148 864 OFFCURVE",
"164 864 CURVE SMOOTH",
"211 864 OFFCURVE",
"317 858 OFFCURVE",
"363 843 CURVE SMOOTH",
"426 821 OFFCURVE",
"454 795 OFFCURVE",
"454 756 CURVE SMOOTH",
"454 662 OFFCURVE",
"356 656 OFFCURVE",
"313 613 CURVE SMOOTH",
"275 575 OFFCURVE",
"236 489 OFFCURVE",
"236 462 CURVE SMOOTH",
"236 448 OFFCURVE",
"249 443 OFFCURVE",
"279 441 CURVE SMOOTH",
"311 439 OFFCURVE",
"356 436 OFFCURVE",
"384 428 CURVE SMOOTH",
"482 405 OFFCURVE",
"514 359 OFFCURVE",
"514 277 CURVE SMOOTH",
"514 204 OFFCURVE",
"428 193 OFFCURVE",
"355 193 CURVE SMOOTH",
"307 193 OFFCURVE",
"259 208 OFFCURVE",
"209 229 CURVE SMOOTH",
"202 233 OFFCURVE",
"193 235 OFFCURVE",
"189 235 CURVE SMOOTH",
"181 235 OFFCURVE",
"175 229 OFFCURVE"
);
}
);
width = 816;
}
);
},
{
glyphname = four.001;
lastChange = "2015-11-23 15:56:40 +0000";
layers = (
{
layerId = "3138562F-70A2-47D8-8787-D90195410BEE";
name = Regular;
paths = (
{
closed = 1;
nodes = (
"440 256 CURVE SMOOTH",
"440 228 OFFCURVE",
"447 65 OFFCURVE",
"447 -7 CURVE SMOOTH",
"447 -36 OFFCURVE",
"456 -45 OFFCURVE",
"469 -45 CURVE SMOOTH",
"480 -45 OFFCURVE",
"490 -34 OFFCURVE",
"507 -14 CURVE SMOOTH",
"541 27 OFFCURVE",
"566 58 OFFCURVE",
"589 93 CURVE SMOOTH",
"608 123 OFFCURVE",
"612 149 OFFCURVE",
"612 178 CURVE SMOOTH",
"612 258 LINE SMOOTH",
"612 276 OFFCURVE",
"618 289 OFFCURVE",
"630 289 CURVE SMOOTH",
"690 289 LINE SMOOTH",
"706 289 OFFCURVE",
"718 298 OFFCURVE",
"733 325 CURVE SMOOTH",
"752 361 OFFCURVE",
"776 416 OFFCURVE",
"790 452 CURVE SMOOTH",
"795 466 OFFCURVE",
"801 479 OFFCURVE",
"801 487 CURVE SMOOTH",
"801 501 OFFCURVE",
"793 509 OFFCURVE",
"777 509 CURVE SMOOTH",
"636 509 LINE SMOOTH",
"622 509 OFFCURVE",
"615 513 OFFCURVE",
"615 525 CURVE SMOOTH",
"615 552 OFFCURVE",
"610 910 OFFCURVE",
"591 1052 CURVE SMOOTH",
"587 1077 OFFCURVE",
"574 1084 OFFCURVE",
"559 1084 CURVE SMOOTH",
"533 1084 OFFCURVE",
"473 1055 OFFCURVE",
"447 1041 CURVE SMOOTH",
"350 987 OFFCURVE",
"266 916 OFFCURVE",
"202 812 CURVE SMOOTH",
"89 633 OFFCURVE",
"23 470 OFFCURVE",
"23 395 CURVE SMOOTH",
"23 326 OFFCURVE",
"51 289 OFFCURVE",
"125 289 CURVE SMOOTH",
"412 289 LINE SMOOTH",
"432 289 OFFCURVE",
"440 279 OFFCURVE"
);
},
{
closed = 1;
nodes = (
"428 819 CURVE SMOOTH",
"439 739 OFFCURVE",
"446 599 OFFCURVE",
"446 532 CURVE SMOOTH",
"446 516 OFFCURVE",
"439 508 OFFCURVE",
"426 508 CURVE SMOOTH",
"268 508 LINE SMOOTH",
"237 508 OFFCURVE",
"209 508 OFFCURVE",
"209 543 CURVE SMOOTH",
"209 590 OFFCURVE",
"242 670 OFFCURVE",
"275 727 CURVE SMOOTH",
"311 787 OFFCURVE",
"349 810 OFFCURVE",
"388 833 CURVE SMOOTH",
"394 837 OFFCURVE",
"410 843 OFFCURVE",
"413 843 CURVE SMOOTH",
"428 843 OFFCURVE",
"426 831 OFFCURVE"
);
}
);
width = 816;
}
);
},
{
glyphname = five.001;
lastChange = "2015-11-23 15:56:40 +0000";
layers = (
{
layerId = "3138562F-70A2-47D8-8787-D90195410BEE";
name = Regular;
paths = (
{
closed = 1;
nodes = (
"188 219 CURVE SMOOTH",
"172 199 OFFCURVE",
"121 108 OFFCURVE",
"100 65 CURVE SMOOTH",
"95 52 OFFCURVE",
"91 43 OFFCURVE",
"91 38 CURVE SMOOTH",
"91 31 OFFCURVE",
"98 22 OFFCURVE",
"114 14 CURVE SMOOTH",
"162 -7 OFFCURVE",
"272 -31 OFFCURVE",
"331 -31 CURVE SMOOTH",
"439 -31 OFFCURVE",
"562 25 OFFCURVE",
"654 152 CURVE SMOOTH",
"687 200 OFFCURVE",
"731 279 OFFCURVE",
"731 369 CURVE SMOOTH",
"731 571 OFFCURVE",
"545 647 OFFCURVE",
"456 647 CURVE SMOOTH",
"376 647 LINE SMOOTH",
"362 647 OFFCURVE",
"342 662 OFFCURVE",
"342 677 CURVE SMOOTH",
"342 710 OFFCURVE",
"340 732 OFFCURVE",
"340 754 CURVE SMOOTH",
"340 773 OFFCURVE",
"349 778 OFFCURVE",
"367 778 CURVE SMOOTH",
"573 778 LINE SMOOTH",
"605 778 OFFCURVE",
"616 783 OFFCURVE",
"627 797 CURVE SMOOTH",
"654 838 OFFCURVE",
"714 949 OFFCURVE",
"714 984 CURVE SMOOTH",
"714 1000 OFFCURVE",
"704 1009 OFFCURVE",
"678 1009 CURVE SMOOTH",
"343 1009 LINE SMOOTH",
"300 1009 OFFCURVE",
"311 1012 OFFCURVE",
"283 1067 CURVE SMOOTH",
"281 1072 OFFCURVE",
"272 1081 OFFCURVE",
"261 1081 CURVE SMOOTH",
"252 1081 OFFCURVE",
"239 1072 OFFCURVE",
"227 1055 CURVE SMOOTH",
"191 1011 OFFCURVE",
"146 925 OFFCURVE",
"141 891 CURVE SMOOTH",
"136 860 OFFCURVE",
"136 844 OFFCURVE",
"136 805 CURVE SMOOTH",
"136 706 OFFCURVE",
"138 606 OFFCURVE",
"150 494 CURVE SMOOTH",
"153 464 OFFCURVE",
"175 445 OFFCURVE",
"213 445 CURVE SMOOTH",
"326 445 LINE",
"471 436 OFFCURVE",
"521 382 OFFCURVE",
"521 305 CURVE SMOOTH",
"521 240 OFFCURVE",
"489 197 OFFCURVE",
"394 197 CURVE SMOOTH",
"349 197 OFFCURVE",
"290 212 OFFCURVE",
"254 224 CURVE SMOOTH",
"237 229 OFFCURVE",
"223 236 OFFCURVE",
"213 236 CURVE SMOOTH",
"202 236 OFFCURVE",
"193 226 OFFCURVE"
);
}
);
width = 816;
}
);
},
{
glyphname = six.001;
lastChange = "2015-11-23 15:56:40 +0000";
layers = (
{
layerId = "3138562F-70A2-47D8-8787-D90195410BEE";
name = Regular;
paths = (
{
closed = 1;
nodes = (
"150 600 CURVE SMOOTH",
"97 501 OFFCURVE",
"37 387 OFFCURVE",
"37 284 CURVE SMOOTH",
"37 82 OFFCURVE",
"213 -31 OFFCURVE",
"363 -31 CURVE SMOOTH",
"584 -31 OFFCURVE",
"755 221 OFFCURVE",
"755 371 CURVE SMOOTH",
"755 520 OFFCURVE",
"657 669 OFFCURVE",
"483 669 CURVE SMOOTH",
"419 669 OFFCURVE",
"396 650 OFFCURVE",
"391 650 CURVE",
"388 650 OFFCURVE",
"384 652 OFFCURVE",
"384 656 CURVE SMOOTH",
"384 658 OFFCURVE",
"388 663 OFFCURVE",
"394 672 CURVE SMOOTH",
"444 754 OFFCURVE",
"548 908 OFFCURVE",
"630 1012 CURVE SMOOTH",
"643 1029 OFFCURVE",
"656 1047 OFFCURVE",
"656 1059 CURVE SMOOTH",
"656 1068 OFFCURVE",
"650 1079 OFFCURVE",
"634 1079 CURVE SMOOTH",
"623 1079 OFFCURVE",
"605 1072 OFFCURVE",
"584 1065 CURVE SMOOTH",
"541 1050 OFFCURVE",
"483 1029 OFFCURVE",
"449 1009 CURVE SMOOTH",
"420 993 OFFCURVE",
"399 971 OFFCURVE",
"376 941 CURVE SMOOTH",
"313 858 OFFCURVE",
"220 730 OFFCURVE"
);
},
{
closed = 1;
nodes = (
"567 315 CURVE SMOOTH",
"567 224 OFFCURVE",
"531 166 OFFCURVE",
"408 166 CURVE SMOOTH",
"326 166 OFFCURVE",
"234 231 OFFCURVE",
"234 330 CURVE SMOOTH",
"234 423 OFFCURVE",
"299 496 OFFCURVE",
"394 496 CURVE SMOOTH",
"497 496 OFFCURVE",
"567 396 OFFCURVE"
);
}
);
width = 816;
}
);
},
{
glyphname = seven.001;
lastChange = "2015-11-23 15:56:40 +0000";
layers = (
{
layerId = "3138562F-70A2-47D8-8787-D90195410BEE";
name = Regular;
paths = (
{
closed = 1;
nodes = (
"179 195 CURVE SMOOTH",
"159 144 OFFCURVE",
"145 74 OFFCURVE",
"145 -18 CURVE SMOOTH",
"145 -34 OFFCURVE",
"152 -43 OFFCURVE",
"164 -43 CURVE SMOOTH",
"172 -43 OFFCURVE",
"182 -36 OFFCURVE",
"189 -31 CURVE SMOOTH",
"237 5 OFFCURVE",
"309 75 OFFCURVE",
"356 127 CURVE SMOOTH",
"370 144 OFFCURVE",
"376 171 OFFCURVE",
"377 192 CURVE SMOOTH",
"379 217 OFFCURVE",
"392 265 OFFCURVE",
"405 298 CURVE SMOOTH",
"435 383 OFFCURVE",
"510 506 OFFCURVE",
"564 585 CURVE SMOOTH",
"600 636 OFFCURVE",
"673 732 OFFCURVE",
"713 805 CURVE SMOOTH",
"745 865 OFFCURVE",
"774 935 OFFCURVE",
"774 964 CURVE SMOOTH",
"774 982 OFFCURVE",
"765 1007 OFFCURVE",
"727 1007 CURVE SMOOTH",
"292 1007 LINE SMOOTH",
"245 1007 OFFCURVE",
"236 1019 OFFCURVE",
"223 1061 CURVE SMOOTH",
"220 1072 OFFCURVE",
"211 1081 OFFCURVE",
"198 1081 CURVE SMOOTH",
"188 1081 OFFCURVE",
"175 1070 OFFCURVE",
"168 1059 CURVE SMOOTH",
"139 1016 OFFCURVE",
"76 914 OFFCURVE",
"42 844 CURVE SMOOTH",
"35 830 OFFCURVE",
"27 807 OFFCURVE",
"27 803 CURVE SMOOTH",
"27 781 OFFCURVE",
"41 773 OFFCURVE",
"66 773 CURVE SMOOTH",
"466 773 LINE SMOOTH",
"483 773 OFFCURVE",
"494 765 OFFCURVE",
"494 753 CURVE SMOOTH",
"494 710 OFFCURVE",
"432 620 OFFCURVE",
"377 534 CURVE SMOOTH",
"299 410 OFFCURVE",
"215 291 OFFCURVE"
);
}
);
width = 816;
}
);
},
{
glyphname = eight.001;
lastChange = "2015-11-23 15:56:40 +0000";
layers = (
{
layerId = "3138562F-70A2-47D8-8787-D90195410BEE";
name = Regular;
paths = (
{
closed = 1;
nodes = (
"37 263 CURVE SMOOTH",
"37 70 OFFCURVE",
"237 -31 OFFCURVE",
"367 -31 CURVE SMOOTH",
"550 -31 OFFCURVE",
"734 166 OFFCURVE",
"734 344 CURVE SMOOTH",
"734 431 OFFCURVE",
"678 508 OFFCURVE",
"555 579 CURVE SMOOTH",
"533 592 OFFCURVE",
"530 595 OFFCURVE",
"530 599 CURVE SMOOTH",
"530 600 OFFCURVE",
"537 607 OFFCURVE",
"539 609 CURVE SMOOTH",
"623 676 OFFCURVE",
"666 737 OFFCURVE",
"666 828 CURVE SMOOTH",
"666 963 OFFCURVE",
"541 1072 OFFCURVE",
"381 1072 CURVE SMOOTH",
"245 1072 OFFCURVE",
"69 923 OFFCURVE",
"69 749 CURVE SMOOTH",
"69 634 OFFCURVE",
"139 575 OFFCURVE",
"196 543 CURVE SMOOTH",
"202 541 OFFCURVE",
"208 536 OFFCURVE",
"208 532 CURVE SMOOTH",
"208 530 OFFCURVE",
"204 523 OFFCURVE",
"196 520 CURVE SMOOTH",
"141 486 OFFCURVE",
"37 402 OFFCURVE"
);
},
{
closed = 1;
nodes = (
"524 284 CURVE SMOOTH",
"524 217 OFFCURVE",
"492 174 OFFCURVE",
"408 174 CURVE SMOOTH",
"302 174 OFFCURVE",
"225 236 OFFCURVE",
"225 326 CURVE SMOOTH",
"225 424 OFFCURVE",
"315 460 OFFCURVE",
"321 460 CURVE SMOOTH",
"326 460 OFFCURVE",
"329 460 OFFCURVE",
"343 453 CURVE SMOOTH",
"461 395 OFFCURVE",
"524 355 OFFCURVE"
);
},
{
closed = 1;
nodes = (
"410 656 CURVE SMOOTH",
"399 656 OFFCURVE",
"388 660 OFFCURVE",
"374 667 CURVE SMOOTH",
"321 694 OFFCURVE",
"263 727 OFFCURVE",
"263 797 CURVE SMOOTH",
"263 841 OFFCURVE",
"277 882 OFFCURVE",
"347 882 CURVE SMOOTH",
"419 882 OFFCURVE",
"489 841 OFFCURVE",
"489 767 CURVE SMOOTH",
"489 735 OFFCURVE",
"476 704 OFFCURVE",
"449 681 CURVE SMOOTH",
"422 660 OFFCURVE",
"415 656 OFFCURVE"
);
}
);
width = 816;
}
);
},
{
glyphname = nine.001;
lastChange = "2015-11-23 15:56:40 +0000";
layers = (
{
layerId = "3138562F-70A2-47D8-8787-D90195410BEE";
name = Regular;
paths = (
{
closed = 1;
nodes = (
"413 366 CURVE SMOOTH",
"413 347 OFFCURVE",
"222 74 OFFCURVE",
"181 16 CURVE SMOOTH",
"172 4 OFFCURVE",
"162 -14 OFFCURVE",
"162 -25 CURVE SMOOTH",
"162 -36 OFFCURVE",
"174 -46 OFFCURVE",
"188 -46 CURVE SMOOTH",
"195 -46 OFFCURVE",
"204 -43 OFFCURVE",
"220 -36 CURVE SMOOTH",
"252 -22 OFFCURVE",
"313 2 OFFCURVE",
"353 25 CURVE SMOOTH",
"386 45 OFFCURVE",
"406 58 OFFCURVE",
"430 86 CURVE SMOOTH",
"505 178 OFFCURVE",
"657 412 OFFCURVE",
"721 552 CURVE SMOOTH",
"747 606 OFFCURVE",
"767 665 OFFCURVE",
"767 732 CURVE SMOOTH",
"767 923 OFFCURVE",
"598 1074 OFFCURVE",
"420 1074 CURVE SMOOTH",
"292 1074 OFFCURVE",
"188 985 OFFCURVE",
"138 923 CURVE SMOOTH",
"95 869 OFFCURVE",
"34 763 OFFCURVE",
"34 665 CURVE SMOOTH",
"34 466 OFFCURVE",
"195 357 OFFCURVE",
"321 357 CURVE SMOOTH",
"363 357 OFFCURVE",
"399 373 OFFCURVE",
"405 373 CURVE SMOOTH",
"410 373 OFFCURVE",
"413 371 OFFCURVE"
);
},
{
closed = 1;
nodes = (
"370 872 CURVE SMOOTH",
"478 872 OFFCURVE",
"555 794 OFFCURVE",
"555 699 CURVE SMOOTH",
"555 597 OFFCURVE",
"501 534 OFFCURVE",
"398 534 CURVE SMOOTH",
"304 534 OFFCURVE",
"222 606 OFFCURVE",
"222 720 CURVE SMOOTH",
"222 801 OFFCURVE",
"258 872 OFFCURVE"
);
}
);
width = 814;
}
);
},
{
glyphname = asterisk;
lastChange = "2015-11-23 15:56:40 +0000";
layers = (
{
layerId = "3138562F-70A2-47D8-8787-D90195410BEE";
name = Regular;
paths = (
{
closed = 1;
nodes = (
"336 1103 CURVE",
"345 1096 OFFCURVE",
"420 1047 OFFCURVE",
"430 1040 CURVE SMOOTH",
"437 1034 OFFCURVE",
"446 1033 OFFCURVE",
"446 1033 CURVE SMOOTH",
"453 1033 OFFCURVE",
"460 1041 OFFCURVE",
"460 1052 CURVE SMOOTH",
"460 1072 OFFCURVE",
"426 1142 OFFCURVE",
"426 1159 CURVE SMOOTH",
"426 1173 OFFCURVE",
"428 1180 OFFCURVE",
"433 1183 CURVE SMOOTH",
"460 1202 OFFCURVE",
"494 1228 OFFCURVE",
"507 1238 CURVE SMOOTH",
"519 1249 OFFCURVE",
"523 1257 OFFCURVE",
"523 1260 CURVE SMOOTH",
"523 1265 OFFCURVE",
"519 1272 OFFCURVE",
"509 1272 CURVE SMOOTH",
"408 1272 LINE SMOOTH",
"396 1272 OFFCURVE",
"383 1276 OFFCURVE",
"379 1291 CURVE SMOOTH",
"372 1317 OFFCURVE",
"350 1368 OFFCURVE",
"342 1392 CURVE SMOOTH",
"336 1407 OFFCURVE",
"331 1414 OFFCURVE",
"324 1414 CURVE SMOOTH",
"317 1414 OFFCURVE",
"311 1407 OFFCURVE",
"307 1397 CURVE SMOOTH",
"300 1373 OFFCURVE",
"277 1317 OFFCURVE",
"270 1291 CURVE SMOOTH",
"266 1276 OFFCURVE",
"254 1272 OFFCURVE",
"242 1272 CURVE SMOOTH",
"136 1272 LINE SMOOTH",
"125 1272 OFFCURVE",
"121 1264 OFFCURVE",
"121 1258 CURVE SMOOTH",
"121 1255 OFFCURVE",
"123 1247 OFFCURVE",
"131 1243 CURVE SMOOTH",
"139 1238 OFFCURVE",
"189 1204 OFFCURVE",
"216 1183 CURVE SMOOTH",
"220 1180 OFFCURVE",
"222 1173 OFFCURVE",
"222 1159 CURVE SMOOTH",
"222 1147 OFFCURVE",
"186 1070 OFFCURVE",
"186 1050 CURVE SMOOTH",
"186 1040 OFFCURVE",
"193 1033 OFFCURVE",
"202 1033 CURVE SMOOTH",
"204 1033 OFFCURVE",
"209 1034 OFFCURVE",
"213 1038 CURVE SMOOTH",
"223 1043 OFFCURVE",
"302 1096 OFFCURVE",
"313 1103 CURVE",
"317 1106 OFFCURVE",
"321 1108 OFFCURVE",
"324 1108 CURVE SMOOTH",
"328 1108 OFFCURVE",
"331 1106 OFFCURVE"
);
}
);
width = 652;
}
);
unicode = 002A;
},
{
glyphname = backslash;
lastChange = "2015-11-23 15:56:40 +0000";
layers = (
{
layerId = "3138562F-70A2-47D8-8787-D90195410BEE";
name = Regular;
paths = (
{
closed = 1;
nodes = (
"550 -151 LINE",
"559 -172 OFFCURVE",
"567 -181 OFFCURVE",
"577 -181 CURVE SMOOTH",
"587 -181 OFFCURVE",
"596 -166 OFFCURVE",
"598 -156 CURVE SMOOTH",
"603 -133 OFFCURVE",
"616 -53 OFFCURVE",
"616 -34 CURVE SMOOTH",
"616 -16 OFFCURVE",
"607 2 OFFCURVE",
"603 9 CURVE SMOOTH",
"516 188 OFFCURVE",
"432 400 OFFCURVE",
"363 573 CURVE SMOOTH",
"275 795 OFFCURVE",
"150 1104 OFFCURVE",
"107 1213 CURVE SMOOTH",
"104 1222 OFFCURVE",
"97 1228 OFFCURVE",
"89 1228 CURVE SMOOTH",
"80 1228 OFFCURVE",
"73 1219 OFFCURVE",
"68 1204 CURVE SMOOTH",
"57 1178 OFFCURVE",
"46 1156 OFFCURVE",
"39 1129 CURVE SMOOTH",
"37 1120 OFFCURVE",
"34 1110 OFFCURVE",
"34 1096 CURVE SMOOTH",
"34 1082 OFFCURVE",
"49 1055 OFFCURVE",
"59 1038 CURVE SMOOTH",
"119 914 OFFCURVE",
"170 805 OFFCURVE",
"288 508 CURVE SMOOTH"
);
}
);
width = 652;
}
);
unicode = 005C;
},
{
glyphname = periodcentered;
lastChange = "2015-11-23 15:56:40 +0000";
layers = (
{
layerId = "3138562F-70A2-47D8-8787-D90195410BEE";
name = Regular;
paths = (
{
closed = 1;
nodes = (
"168 486 CURVE",
"196 448 OFFCURVE",
"258 393 OFFCURVE",
"315 359 CURVE",
"322 353 OFFCURVE",
"329 351 OFFCURVE",
"336 351 CURVE",
"343 351 OFFCURVE",
"353 357 OFFCURVE",
"358 362 CURVE",
"388 390 OFFCURVE",
"440 450 OFFCURVE",
"475 496 CURVE",
"480 501 OFFCURVE",
"483 513 OFFCURVE",
"483 520 CURVE",
"483 529 OFFCURVE",
"478 537 OFFCURVE",
"469 543 CURVE",
"422 571 OFFCURVE",
"363 626 OFFCURVE",
"331 658 CURVE",
"322 667 OFFCURVE",
"317 670 OFFCURVE",
"309 670 CURVE",
"300 670 OFFCURVE",
"292 665 OFFCURVE",
"285 656 CURVE",
"170 530 LINE",
"160 522 OFFCURVE",
"159 513 OFFCURVE",
"159 506 CURVE",
"159 496 OFFCURVE",
"164 491 OFFCURVE"
);
}
);
width = 575;
}
);
unicode = 00B7;
},
{
glyphname = bullet;
lastChange = "2015-11-23 15:56:40 +0000";
layers = (
{
layerId = "3138562F-70A2-47D8-8787-D90195410BEE";
name = Regular;
paths = (
{
closed = 1;
nodes = (
"98 382 CURVE SMOOTH",
"136 344 OFFCURVE",
"218 272 OFFCURVE",
"281 233 CURVE SMOOTH",
"288 228 OFFCURVE",
"300 224 OFFCURVE",
"307 224 CURVE SMOOTH",
"319 224 OFFCURVE",
"329 231 OFFCURVE",
"336 238 CURVE SMOOTH",
"374 282 OFFCURVE",
"422 346 OFFCURVE",
"461 403 CURVE SMOOTH",
"466 409 OFFCURVE",
"469 419 OFFCURVE",
"469 426 CURVE SMOOTH",
"469 441 OFFCURVE",
"461 455 OFFCURVE",
"451 460 CURVE SMOOTH",
"401 487 OFFCURVE",
"333 537 OFFCURVE",
"283 590 CURVE SMOOTH",
"273 599 OFFCURVE",
"266 604 OFFCURVE",
"256 604 CURVE SMOOTH",
"245 604 OFFCURVE",
"232 597 OFFCURVE",
"225 588 CURVE SMOOTH",
"213 575 OFFCURVE",
"109 448 OFFCURVE",
"97 432 CURVE SMOOTH",
"87 421 OFFCURVE",
"85 412 OFFCURVE",
"85 405 CURVE SMOOTH",
"85 396 OFFCURVE",
"93 387 OFFCURVE"
);
}
);
width = 570;
}
);
unicode = 2022;
},
{
glyphname = colon;
lastChange = "2015-11-23 15:56:40 +0000";
layers = (
{
layerId = "3138562F-70A2-47D8-8787-D90195410BEE";
name = Regular;
paths = (
{
closed = 1;
nodes = (
"184 568 CURVE SMOOTH",
"218 522 OFFCURVE",
"281 468 OFFCURVE",
"329 439 CURVE SMOOTH",
"335 436 OFFCURVE",
"342 434 OFFCURVE",
"349 434 CURVE SMOOTH",
"356 434 OFFCURVE",
"363 438 OFFCURVE",
"369 443 CURVE SMOOTH",
"403 477 OFFCURVE",
"454 530 OFFCURVE",
"483 575 CURVE SMOOTH",
"489 585 OFFCURVE",
"494 595 OFFCURVE",
"494 604 CURVE SMOOTH",
"494 614 OFFCURVE",
"487 624 OFFCURVE",
"478 631 CURVE SMOOTH",
"442 655 OFFCURVE",
"379 711 OFFCURVE",
"343 742 CURVE SMOOTH",
"335 749 OFFCURVE",
"329 754 OFFCURVE",
"321 754 CURVE SMOOTH",
"311 754 OFFCURVE",
"302 749 OFFCURVE",
"295 740 CURVE SMOOTH",
"275 717 OFFCURVE",
"211 645 OFFCURVE",
"182 614 CURVE SMOOTH",
"175 607 OFFCURVE",
"174 599 OFFCURVE",
"174 592 CURVE SMOOTH",
"174 585 OFFCURVE",
"179 575 OFFCURVE"
);
},
{
closed = 1;
nodes = (
"184 97 CURVE SMOOTH",
"218 50 OFFCURVE",
"281 -4 OFFCURVE",
"329 -32 CURVE SMOOTH",
"335 -36 OFFCURVE",
"342 -38 OFFCURVE",
"349 -38 CURVE SMOOTH",
"356 -38 OFFCURVE",
"363 -34 OFFCURVE",
"369 -29 CURVE SMOOTH",
"403 5 OFFCURVE",
"454 60 OFFCURVE",
"483 104 CURVE SMOOTH",
"489 113 OFFCURVE",
"494 123 OFFCURVE",
"494 133 CURVE SMOOTH",
"494 144 OFFCURVE",
"487 152 OFFCURVE",
"478 159 CURVE SMOOTH",
"442 183 OFFCURVE",
"379 240 OFFCURVE",
"343 270 CURVE SMOOTH",
"335 277 OFFCURVE",
"329 284 OFFCURVE",
"321 284 CURVE SMOOTH",
"311 284 OFFCURVE",
"302 277 OFFCURVE",
"295 269 CURVE SMOOTH",
"275 246 OFFCURVE",
"211 174 OFFCURVE",
"182 144 CURVE SMOOTH",
"175 137 OFFCURVE",
"174 127 OFFCURVE",
"174 120 CURVE SMOOTH",
"174 113 OFFCURVE",
"179 104 OFFCURVE"
);
}
);
width = 633;
}
);
unicode = 003A;
},
{
glyphname = comma;
lastChange = "2015-11-23 15:56:40 +0000";
layers = (
{
layerId = "3138562F-70A2-47D8-8787-D90195410BEE";
name = Regular;
paths = (
{
closed = 1;
nodes = (
"245 27 CURVE SMOOTH",
"234 -65 OFFCURVE",
"153 -285 OFFCURVE",
"153 -310 CURVE SMOOTH",
"153 -321 OFFCURVE",
"164 -330 OFFCURVE",
"174 -330 CURVE SMOOTH",
"242 -330 OFFCURVE",
"394 -67 OFFCURVE",
"420 -5 CURVE SMOOTH",
"444 50 OFFCURVE",
"466 108 OFFCURVE",
"466 174 CURVE SMOOTH",
"466 276 OFFCURVE",
"420 344 OFFCURVE",
"401 344 CURVE SMOOTH",
"391 344 OFFCURVE",
"379 339 OFFCURVE",
"367 326 CURVE SMOOTH",
"326 285 OFFCURVE",
"268 226 OFFCURVE",
"249 200 CURVE SMOOTH",
"244 192 OFFCURVE",
"237 183 OFFCURVE",
"237 172 CURVE SMOOTH",
"237 152 OFFCURVE",
"247 118 OFFCURVE",
"247 75 CURVE SMOOTH",
"247 61 OFFCURVE",
"247 45 OFFCURVE"
);
}
);
width = 619;
}
);
unicode = 002C;
},
{
color = (153,255,187,1);
glyphname = ellipsis;
lastChange = "2015-11-23 15:56:40 +0000";
layers = (
{
layerId = "3138562F-70A2-47D8-8787-D90195410BEE";
name = Regular;
paths = (
{
closed = 1;
nodes = (
"721 97 CURVE",
"755 52 OFFCURVE",
"818 -2 OFFCURVE",
"867 -31 CURVE SMOOTH",
"872 -34 OFFCURVE",
"880 -36 OFFCURVE",
"887 -36 CURVE SMOOTH",
"894 -36 OFFCURVE",
"902 -32 OFFCURVE",
"908 -27 CURVE SMOOTH",
"942 5 OFFCURVE",
"993 61 OFFCURVE",
"1021 106 CURVE SMOOTH",
"1027 115 OFFCURVE",
"1032 123 OFFCURVE",
"1032 133 CURVE SMOOTH",
"1032 145 OFFCURVE",
"1025 154 OFFCURVE",
"1015 159 CURVE SMOOTH",
"978 181 OFFCURVE",
"917 240 OFFCURVE",
"881 272 CURVE SMOOTH",
"872 279 OFFCURVE",
"867 284 OFFCURVE",
"858 284 CURVE SMOOTH",
"849 284 OFFCURVE",
"840 277 OFFCURVE",
"832 270 CURVE SMOOTH",
"811 248 OFFCURVE",
"747 178 OFFCURVE",
"720 145 CURVE SMOOTH",
"713 137 OFFCURVE",
"711 129 OFFCURVE",
"711 122 CURVE SMOOTH",
"711 113 OFFCURVE",
"716 104 OFFCURVE"
);
},
{
closed = 1;
nodes = (
"1246 97 CURVE",
"1280 52 OFFCURVE",
"1343 -2 OFFCURVE",
"1392 -31 CURVE SMOOTH",
"1397 -34 OFFCURVE",
"1405 -36 OFFCURVE",
"1412 -36 CURVE SMOOTH",
"1419 -36 OFFCURVE",
"1427 -32 OFFCURVE",
"1433 -27 CURVE SMOOTH",
"1467 5 OFFCURVE",
"1518 61 OFFCURVE",
"1546 106 CURVE SMOOTH",
"1552 115 OFFCURVE",
"1557 123 OFFCURVE",
"1557 133 CURVE SMOOTH",
"1557 145 OFFCURVE",
"1550 154 OFFCURVE",
"1540 159 CURVE SMOOTH",
"1503 181 OFFCURVE",
"1442 240 OFFCURVE",
"1406 272 CURVE SMOOTH",
"1397 279 OFFCURVE",
"1392 284 OFFCURVE",
"1383 284 CURVE SMOOTH",
"1374 284 OFFCURVE",
"1365 277 OFFCURVE",
"1357 270 CURVE SMOOTH",
"1336 248 OFFCURVE",
"1272 178 OFFCURVE",
"1245 145 CURVE SMOOTH",
"1238 137 OFFCURVE",
"1236 129 OFFCURVE",
"1236 122 CURVE SMOOTH",
"1236 113 OFFCURVE",
"1241 104 OFFCURVE"
);
},
{
closed = 1;
nodes = (
"193 97 CURVE",
"227 52 OFFCURVE",
"290 -2 OFFCURVE",
"338 -31 CURVE SMOOTH",
"343 -34 OFFCURVE",
"350 -36 OFFCURVE",
"358 -36 CURVE SMOOTH",
"365 -36 OFFCURVE",
"374 -32 OFFCURVE",
"379 -27 CURVE SMOOTH",
"413 5 OFFCURVE",
"463 61 OFFCURVE",
"492 106 CURVE SMOOTH",
"497 115 OFFCURVE",
"503 123 OFFCURVE",
"503 133 CURVE SMOOTH",
"503 145 OFFCURVE",
"496 154 OFFCURVE",
"487 159 CURVE SMOOTH",
"449 181 OFFCURVE",
"388 240 OFFCURVE",
"353 272 CURVE SMOOTH",
"343 279 OFFCURVE",
"338 284 OFFCURVE",
"329 284 CURVE SMOOTH",
"321 284 OFFCURVE",
"311 277 OFFCURVE",
"304 270 CURVE SMOOTH",
"283 248 OFFCURVE",
"218 178 OFFCURVE",
"191 145 CURVE SMOOTH",
"184 137 OFFCURVE",
"182 129 OFFCURVE",
"182 122 CURVE SMOOTH",
"182 113 OFFCURVE",
"188 104 OFFCURVE"
);
}
);
width = 1739;
}
);
unicode = 2026;
userData = {
com.typemytype.robofont.mark = (
0.6,
1,
0.732,
1
);
};
},
{
glyphname = exclam;
lastChange = "2015-11-23 15:56:40 +0000";
layers = (
{
layerId = "3138562F-70A2-47D8-8787-D90195410BEE";
name = Regular;
paths = (
{
closed = 1;
nodes = (
"299 443 CURVE SMOOTH",
"302 421 OFFCURVE",
"309 405 OFFCURVE",
"319 405 CURVE SMOOTH",
"329 405 OFFCURVE",
"343 414 OFFCURVE",
"358 434 CURVE SMOOTH",
"383 468 OFFCURVE",
"396 489 OFFCURVE",
"408 513 CURVE SMOOTH",
"426 545 OFFCURVE",
"433 561 OFFCURVE",
"435 595 CURVE SMOOTH",
"440 667 OFFCURVE",
"440 795 OFFCURVE",
"440 874 CURVE SMOOTH",
"440 1055 OFFCURVE",
"435 1222 OFFCURVE",
"432 1264 CURVE SMOOTH",
"430 1274 OFFCURVE",
"424 1291 OFFCURVE",
"408 1291 CURVE SMOOTH",
"394 1291 OFFCURVE",
"379 1278 OFFCURVE",
"362 1260 CURVE SMOOTH",
"326 1224 OFFCURVE",
"286 1183 OFFCURVE",
"252 1144 CURVE SMOOTH",
"242 1131 OFFCURVE",
"232 1111 OFFCURVE",
"232 1089 CURVE SMOOTH",
"232 959 OFFCURVE",
"268 636 OFFCURVE"
);
},
{
closed = 1;
nodes = (
"204 97 CURVE SMOOTH",
"239 46 OFFCURVE",
"293 2 OFFCURVE",
"355 -31 CURVE SMOOTH",
"360 -34 OFFCURVE",
"369 -36 OFFCURVE",
"377 -36 CURVE SMOOTH",
"384 -36 OFFCURVE",
"394 -29 OFFCURVE",
"399 -24 CURVE SMOOTH",
"437 14 OFFCURVE",
"471 52 OFFCURVE",
"510 106 CURVE SMOOTH",
"514 111 OFFCURVE",
"519 125 OFFCURVE",
"519 137 CURVE SMOOTH",
"519 147 OFFCURVE",
"514 154 OFFCURVE",
"505 161 CURVE SMOOTH",
"460 188 OFFCURVE",
"408 228 OFFCURVE",
"370 269 CURVE SMOOTH",
"360 279 OFFCURVE",
"355 284 OFFCURVE",
"347 284 CURVE SMOOTH",
"336 284 OFFCURVE",
"326 276 OFFCURVE",
"317 267 CURVE SMOOTH",
"300 251 OFFCURVE",
"223 169 OFFCURVE",
"204 145 CURVE SMOOTH",
"196 137 OFFCURVE",
"195 125 OFFCURVE",
"195 118 CURVE SMOOTH",
"195 109 OFFCURVE",
"198 102 OFFCURVE"
);
}
);
width = 652;
}
);
unicode = 0021;
},
{
glyphname = numbersign;
lastChange = "2015-11-23 15:56:40 +0000";
layers = (
{
layerId = "3138562F-70A2-47D8-8787-D90195410BEE";
name = Regular;
paths = (
{
closed = 1;
nodes = (
"643 961 LINE",
"641 956 OFFCURVE",
"636 946 OFFCURVE",
"627 946 CURVE",
"417 946 LINE SMOOTH",
"412 946 OFFCURVE",
"405 948 OFFCURVE",
"405 954 CURVE",
"405 954 OFFCURVE",
"408 970 OFFCURVE",
"471 1235 CURVE SMOOTH",
"478 1265 OFFCURVE",
"490 1305 OFFCURVE",
"490 1320 CURVE",
"490 1332 OFFCURVE",
"485 1335 OFFCURVE",
"478 1335 CURVE",
"469 1335 OFFCURVE",
"458 1327 OFFCURVE",
"446 1319 CURVE",
"398 1286 LINE SMOOTH",
"381 1276 OFFCURVE",
"376 1258 OFFCURVE",
"372 1236 CURVE SMOOTH",
"322 961 LINE SMOOTH",
"321 951 OFFCURVE",
"315 946 OFFCURVE",
"306 946 CURVE",
"198 946 LINE SMOOTH",
"188 946 OFFCURVE",
"175 944 OFFCURVE",
"160 932 CURVE",
"141 912 OFFCURVE",
"87 824 OFFCURVE",
"59 773 CURVE",
"57 769 OFFCURVE",
"55 763 OFFCURVE",
"55 758 CURVE",
"55 749 OFFCURVE",
"62 742 OFFCURVE",
"82 742 CURVE",
"266 742 LINE SMOOTH",
"272 742 OFFCURVE",
"275 737 OFFCURVE",
"275 732 CURVE",
"258 640 OFFCURVE",
"251 607 OFFCURVE",
"230 522 CURVE",
"230 518 OFFCURVE",
"229 511 OFFCURVE",
"216 511 CURVE",
"89 511 LINE SMOOTH",
"78 511 OFFCURVE",
"66 509 OFFCURVE",
"51 496 CURVE",
"32 477 OFFCURVE",
"-18 390 OFFCURVE",
"-49 337 CURVE",
"-51 333 OFFCURVE",
"-52 328 OFFCURVE",
"-52 323 CURVE",
"-52 313 OFFCURVE",
"-45 306 OFFCURVE",
"-26 306 CURVE",
"172 306 LINE SMOOTH",
"181 306 OFFCURVE",
"182 299 OFFCURVE",
"182 294 CURVE",
"155 176 OFFCURVE",
"125 79 OFFCURVE",
"93 -29 CURVE SMOOTH",
"85 -52 OFFCURVE",
"75 -93 OFFCURVE",
"75 -101 CURVE",
"75 -111 OFFCURVE",
"82 -118 OFFCURVE",
"95 -118 CURVE",
"100 -118 OFFCURVE",
"111 -108 OFFCURVE",
"123 -95 CURVE",
"143 -74 OFFCURVE",
"177 -38 OFFCURVE",
"177 -38 CURVE",
"188 -24 OFFCURVE",
"196 2 OFFCURVE",
"202 29 CURVE SMOOTH",
"259 292 LINE SMOOTH",
"261 301 OFFCURVE",
"265 306 OFFCURVE",
"275 306 CURVE",
"496 306 LINE SMOOTH",
"505 306 OFFCURVE",
"507 303 OFFCURVE",
"507 299 CURVE SMOOTH",
"507 292 OFFCURVE",
"449 70 OFFCURVE",
"419 -29 CURVE SMOOTH",
"410 -55 OFFCURVE",
"401 -93 OFFCURVE",
"401 -101 CURVE",
"401 -111 OFFCURVE",
"408 -118 OFFCURVE",
"420 -118 CURVE",
"426 -118 OFFCURVE",
"437 -108 OFFCURVE",
"449 -95 CURVE",
"469 -74 OFFCURVE",
"503 -38 OFFCURVE",
"503 -38 CURVE",
"514 -24 OFFCURVE",
"523 2 OFFCURVE",
"528 29 CURVE SMOOTH",
"582 294 LINE",
"584 298 OFFCURVE",
"584 306 OFFCURVE",
"598 306 CURVE",
"713 306 LINE SMOOTH",
"736 306 OFFCURVE",
"750 312 OFFCURVE",
"757 321 CURVE",
"784 353 OFFCURVE",
"818 405 OFFCURVE",
"853 468 CURVE",
"858 477 OFFCURVE",
"861 486 OFFCURVE",
"861 493 CURVE",
"861 503 OFFCURVE",
"854 511 OFFCURVE",
"834 511 CURVE",
"636 511 LINE SMOOTH",
"629 511 OFFCURVE",
"627 515 OFFCURVE",
"627 520 CURVE",
"673 727 LINE SMOOTH",
"675 739 OFFCURVE",
"678 742 OFFCURVE",
"693 742 CURVE",
"818 742 LINE SMOOTH",
"842 742 OFFCURVE",
"858 747 OFFCURVE",
"863 756 CURVE",
"894 797 OFFCURVE",
"924 846 OFFCURVE",
"955 901 CURVE",
"960 910 OFFCURVE",
"964 921 OFFCURVE",
"964 928 CURVE",
"964 939 OFFCURVE",
"957 946 OFFCURVE",
"937 946 CURVE",
"733 946 LINE SMOOTH",
"727 946 OFFCURVE",
"723 948 OFFCURVE",
"723 954 CURVE",
"723 956 OFFCURVE",
"748 1054 OFFCURVE",
"790 1226 CURVE SMOOTH",
"798 1262 OFFCURVE",
"811 1305 OFFCURVE",
"811 1320 CURVE",
"811 1332 OFFCURVE",
"806 1335 OFFCURVE",
"798 1335 CURVE",
"790 1335 OFFCURVE",
"779 1327 OFFCURVE",
"767 1319 CURVE",
"718 1286 LINE SMOOTH",
"702 1276 OFFCURVE",
"697 1258 OFFCURVE",
"693 1236 CURVE SMOOTH"
);
},
{
closed = 1;
nodes = (
"356 730 LINE",
"358 739 OFFCURVE",
"365 744 OFFCURVE",
"372 744 CURVE",
"586 744 LINE SMOOTH",
"594 744 OFFCURVE",
"598 739 OFFCURVE",
"598 735 CURVE",
"598 724 OFFCURVE",
"552 525 OFFCURVE",
"552 523 CURVE",
"552 518 OFFCURVE",
"546 511 OFFCURVE",
"531 511 CURVE",
"319 511 LINE SMOOTH",
"309 511 OFFCURVE",
"306 513 OFFCURVE",
"306 518 CURVE"
);
}
);
width = 938;
}
);
unicode = 0023;
},
{
glyphname = period;
lastChange = "2015-11-23 15:56:40 +0000";
layers = (
{
layerId = "3138562F-70A2-47D8-8787-D90195410BEE";
name = Regular;
paths = (
{
closed = 1;
nodes = (
"193 97 CURVE",
"227 52 OFFCURVE",
"290 -2 OFFCURVE",
"338 -31 CURVE SMOOTH",
"343 -34 OFFCURVE",
"350 -36 OFFCURVE",
"358 -36 CURVE SMOOTH",
"365 -36 OFFCURVE",
"374 -32 OFFCURVE",
"379 -27 CURVE SMOOTH",
"413 5 OFFCURVE",
"463 61 OFFCURVE",
"492 106 CURVE SMOOTH",
"497 115 OFFCURVE",
"503 123 OFFCURVE",
"503 133 CURVE SMOOTH",
"503 145 OFFCURVE",
"496 154 OFFCURVE",
"487 159 CURVE SMOOTH",
"449 181 OFFCURVE",
"388 240 OFFCURVE",
"353 272 CURVE SMOOTH",
"343 279 OFFCURVE",
"338 284 OFFCURVE",
"329 284 CURVE SMOOTH",
"321 284 OFFCURVE",
"311 277 OFFCURVE",
"304 270 CURVE SMOOTH",
"283 248 OFFCURVE",
"218 178 OFFCURVE",
"191 145 CURVE SMOOTH",
"184 137 OFFCURVE",
"182 129 OFFCURVE",
"182 122 CURVE SMOOTH",
"182 113 OFFCURVE",
"188 104 OFFCURVE"
);
}
);
width = 610;
}
);
unicode = 002E;
},
{
glyphname = question;
lastChange = "2015-11-23 15:56:40 +0000";
layers = (
{
layerId = "3138562F-70A2-47D8-8787-D90195410BEE";
name = Regular;
paths = (
{
closed = 1;
nodes = (
"196 545 CURVE SMOOTH",
"196 503 OFFCURVE",
"230 441 OFFCURVE",
"270 407 CURVE SMOOTH",
"285 395 OFFCURVE",
"297 387 OFFCURVE",
"309 387 CURVE SMOOTH",
"317 387 OFFCURVE",
"326 390 OFFCURVE",
"338 405 CURVE SMOOTH",
"362 432 OFFCURVE",
"384 455 OFFCURVE",
"406 489 CURVE SMOOTH",
"415 503 OFFCURVE",
"426 516 OFFCURVE",
"426 530 CURVE SMOOTH",
"426 541 OFFCURVE",
"419 547 OFFCURVE",
"410 556 CURVE SMOOTH",
"384 585 OFFCURVE",
"374 607 OFFCURVE",
"374 631 CURVE SMOOTH",
"374 732 OFFCURVE",
"567 828 OFFCURVE",
"567 1031 CURVE SMOOTH",
"567 1180 OFFCURVE",
"379 1292 OFFCURVE",
"259 1292 CURVE SMOOTH",
"234 1292 OFFCURVE",
"220 1289 OFFCURVE",
"198 1262 CURVE SMOOTH",
"160 1217 OFFCURVE",
"123 1172 OFFCURVE",
"97 1136 CURVE SMOOTH",
"85 1122 OFFCURVE",
"78 1110 OFFCURVE",
"78 1104 CURVE SMOOTH",
"78 1095 OFFCURVE",
"82 1089 OFFCURVE",
"93 1086 CURVE SMOOTH",
"186 1061 OFFCURVE",
"356 1040 OFFCURVE",
"356 907 CURVE SMOOTH",
"356 761 OFFCURVE",
"196 686 OFFCURVE"
);
},
{
closed = 1;
nodes = (
"184 97 CURVE SMOOTH",
"218 50 OFFCURVE",
"281 -4 OFFCURVE",
"329 -32 CURVE SMOOTH",
"335 -36 OFFCURVE",
"342 -38 OFFCURVE",
"349 -38 CURVE SMOOTH",
"356 -38 OFFCURVE",
"363 -34 OFFCURVE",
"369 -29 CURVE SMOOTH",
"403 5 OFFCURVE",
"454 60 OFFCURVE",
"483 104 CURVE SMOOTH",
"489 113 OFFCURVE",
"494 123 OFFCURVE",
"494 133 CURVE SMOOTH",
"494 144 OFFCURVE",
"487 152 OFFCURVE",
"478 159 CURVE SMOOTH",
"442 183 OFFCURVE",
"379 240 OFFCURVE",
"343 270 CURVE SMOOTH",
"335 277 OFFCURVE",
"329 284 OFFCURVE",
"321 284 CURVE SMOOTH",
"311 284 OFFCURVE",
"302 277 OFFCURVE",
"295 269 CURVE SMOOTH",
"275 246 OFFCURVE",
"211 174 OFFCURVE",
"182 144 CURVE SMOOTH",
"175 137 OFFCURVE",
"174 127 OFFCURVE",
"174 120 CURVE SMOOTH",
"174 113 OFFCURVE",
"179 104 OFFCURVE"
);
}
);
width = 652;
}
);
unicode = 003F;
},
{
glyphname = quotedbl;
lastChange = "2015-11-23 15:56:40 +0000";
layers = (
{
layerId = "3138562F-70A2-47D8-8787-D90195410BEE";
name = Regular;
paths = (
{
closed = 1;
nodes = (
"251 493 CURVE SMOOTH",
"270 493 OFFCURVE",
"281 509 OFFCURVE",
"285 523 CURVE SMOOTH",
"297 581 OFFCURVE",
"335 781 OFFCURVE",
"347 930 CURVE SMOOTH",
"350 966 OFFCURVE",
"350 1004 OFFCURVE",
"350 1047 CURVE SMOOTH",
"350 1074 OFFCURVE",
"342 1104 OFFCURVE",
"315 1104 CURVE",
"186 1104 LINE SMOOTH",
"159 1104 OFFCURVE",
"150 1074 OFFCURVE",
"150 1047 CURVE SMOOTH",
"150 1004 OFFCURVE",
"150 966 OFFCURVE",
"153 930 CURVE SMOOTH",
"167 781 OFFCURVE",
"206 581 OFFCURVE",
"218 523 CURVE SMOOTH",
"222 509 OFFCURVE",
"230 493 OFFCURVE"
);
},
{
closed = 1;
nodes = (
"677 493 CURVE SMOOTH",
"697 493 OFFCURVE",
"707 509 OFFCURVE",
"711 523 CURVE SMOOTH",
"723 581 OFFCURVE",
"761 781 OFFCURVE",
"774 930 CURVE SMOOTH",
"777 966 OFFCURVE",
"777 1004 OFFCURVE",
"777 1047 CURVE SMOOTH",
"777 1074 OFFCURVE",
"769 1104 OFFCURVE",
"741 1104 CURVE",
"612 1104 LINE SMOOTH",
"586 1104 OFFCURVE",
"577 1074 OFFCURVE",
"577 1047 CURVE SMOOTH",
"577 1004 OFFCURVE",
"577 966 OFFCURVE",
"580 930 CURVE SMOOTH",
"593 781 OFFCURVE",
"632 581 OFFCURVE",
"644 523 CURVE SMOOTH",
"648 509 OFFCURVE",
"657 493 OFFCURVE"
);
}
);
width = 929;
}
);
unicode = 0022;
},
{
glyphname = quotesingle;
lastChange = "2015-11-23 15:56:40 +0000";
layers = (
{
layerId = "3138562F-70A2-47D8-8787-D90195410BEE";
name = Regular;
paths = (
{
closed = 1;
nodes = (
"237 493 CURVE",
"258 493 OFFCURVE",
"268 509 OFFCURVE",
"272 523 CURVE SMOOTH",
"285 581 OFFCURVE",
"322 781 OFFCURVE",
"335 930 CURVE SMOOTH",
"338 966 OFFCURVE",
"338 1004 OFFCURVE",
"338 1047 CURVE SMOOTH",
"338 1074 OFFCURVE",
"329 1104 OFFCURVE",
"302 1104 CURVE",
"174 1104 LINE SMOOTH",
"146 1104 OFFCURVE",
"138 1074 OFFCURVE",
"138 1047 CURVE SMOOTH",
"138 1004 OFFCURVE",
"138 966 OFFCURVE",
"141 930 CURVE SMOOTH",
"153 781 OFFCURVE",
"191 581 OFFCURVE",
"204 523 CURVE SMOOTH",
"208 509 OFFCURVE",
"218 493 OFFCURVE"
);
}
);
width = 476;
}
);
unicode = 0027;
},
{
glyphname = semicolon;
lastChange = "2015-11-23 15:56:40 +0000";
layers = (
{
layerId = "3138562F-70A2-47D8-8787-D90195410BEE";
name = Regular;
paths = (
{
closed = 1;
nodes = (
"184 568 CURVE SMOOTH",
"218 522 OFFCURVE",
"281 468 OFFCURVE",
"329 439 CURVE SMOOTH",
"335 436 OFFCURVE",
"342 434 OFFCURVE",
"349 434 CURVE SMOOTH",
"356 434 OFFCURVE",
"363 438 OFFCURVE",
"369 443 CURVE SMOOTH",
"403 477 OFFCURVE",
"454 530 OFFCURVE",
"483 575 CURVE SMOOTH",
"489 585 OFFCURVE",
"494 595 OFFCURVE",
"494 604 CURVE SMOOTH",
"494 614 OFFCURVE",
"487 624 OFFCURVE",
"478 631 CURVE SMOOTH",
"442 655 OFFCURVE",
"379 711 OFFCURVE",
"343 742 CURVE SMOOTH",
"335 749 OFFCURVE",
"329 754 OFFCURVE",
"321 754 CURVE SMOOTH",
"311 754 OFFCURVE",
"302 749 OFFCURVE",
"295 740 CURVE SMOOTH",
"275 717 OFFCURVE",
"211 645 OFFCURVE",
"182 614 CURVE SMOOTH",
"175 607 OFFCURVE",
"174 599 OFFCURVE",
"174 592 CURVE SMOOTH",
"174 585 OFFCURVE",
"179 575 OFFCURVE"
);
},
{
closed = 1;
nodes = (
"170 -246 CURVE SMOOTH",
"159 -277 OFFCURVE",
"153 -291 OFFCURVE",
"153 -305 CURVE SMOOTH",
"153 -317 OFFCURVE",
"160 -330 OFFCURVE",
"174 -330 CURVE SMOOTH",
"193 -330 OFFCURVE",
"211 -312 OFFCURVE",
"230 -292 CURVE SMOOTH",
"299 -224 OFFCURVE",
"343 -138 OFFCURVE",
"392 -61 CURVE SMOOTH",
"439 12 OFFCURVE",
"466 106 OFFCURVE",
"466 165 CURVE SMOOTH",
"466 214 OFFCURVE",
"454 269 OFFCURVE",
"437 305 CURVE SMOOTH",
"426 326 OFFCURVE",
"413 342 OFFCURVE",
"403 342 CURVE SMOOTH",
"386 342 OFFCURVE",
"377 339 OFFCURVE",
"363 325 CURVE SMOOTH",
"313 274 OFFCURVE",
"279 242 OFFCURVE",
"254 208 CURVE SMOOTH",
"245 195 OFFCURVE",
"237 185 OFFCURVE",
"237 166 CURVE SMOOTH",
"237 145 OFFCURVE",
"245 113 OFFCURVE",
"245 68 CURVE SMOOTH",
"245 -39 OFFCURVE",
"200 -156 OFFCURVE"
);
}
);
width = 652;
}
);
unicode = 003B;
},
{
glyphname = slash;
lastChange = "2015-11-23 15:56:40 +0000";
layers = (
{
layerId = "3138562F-70A2-47D8-8787-D90195410BEE";
name = Regular;
paths = (
{
closed = 1;
nodes = (
"261 475 CURVE",
"160 226 OFFCURVE",
"49 -7 OFFCURVE",
"-1 -129 CURVE SMOOTH",
"-4 -138 OFFCURVE",
"-8 -149 OFFCURVE",
"-8 -156 CURVE SMOOTH",
"-8 -166 OFFCURVE",
"-1 -174 OFFCURVE",
"12 -174 CURVE SMOOTH",
"18 -174 OFFCURVE",
"23 -172 OFFCURVE",
"32 -166 CURVE SMOOTH",
"53 -154 OFFCURVE",
"95 -127 OFFCURVE",
"121 -102 CURVE SMOOTH",
"136 -88 OFFCURVE",
"153 -38 OFFCURVE",
"174 9 CURVE SMOOTH",
"237 158 OFFCURVE",
"297 313 OFFCURVE",
"374 508 CURVE SMOOTH",
"433 656 OFFCURVE",
"596 1045 OFFCURVE",
"648 1180 CURVE SMOOTH",
"652 1188 OFFCURVE",
"657 1208 OFFCURVE",
"657 1215 CURVE SMOOTH",
"657 1221 OFFCURVE",
"652 1228 OFFCURVE",
"644 1228 CURVE SMOOTH",
"634 1228 OFFCURVE",
"620 1219 OFFCURVE",
"608 1209 CURVE SMOOTH",
"528 1149 LINE SMOOTH",
"510 1136 OFFCURVE",
"503 1122 OFFCURVE",
"496 1100 CURVE SMOOTH",
"471 1031 OFFCURVE",
"377 763 OFFCURVE"
);
}
);
width = 652;
}
);
unicode = 002F;
},
{
glyphname = braceleft;
lastChange = "2015-11-23 15:56:40 +0000";
layers = (
{
layerId = "3138562F-70A2-47D8-8787-D90195410BEE";
name = Regular;
paths = (
{
closed = 1;
nodes = (
"396 -122 LINE",
"319 -122 OFFCURVE",
"307 -52 OFFCURVE",
"307 2 CURVE SMOOTH",
"307 55 OFFCURVE",
"315 152 OFFCURVE",
"315 236 CURVE SMOOTH",
"315 355 OFFCURVE",
"286 434 OFFCURVE",
"222 477 CURVE SMOOTH",
"204 487 LINE SMOOTH",
"200 489 OFFCURVE",
"198 493 OFFCURVE",
"198 498 CURVE SMOOTH",
"198 503 OFFCURVE",
"200 508 OFFCURVE",
"204 509 CURVE SMOOTH",
"281 549 OFFCURVE",
"315 631 OFFCURVE",
"315 760 CURVE SMOOTH",
"315 837 OFFCURVE",
"307 937 OFFCURVE",
"307 991 CURVE SMOOTH",
"307 1062 OFFCURVE",
"317 1118 OFFCURVE",
"420 1118 CURVE SMOOTH",
"475 1118 LINE SMOOTH",
"487 1118 OFFCURVE",
"509 1125 OFFCURVE",
"530 1145 CURVE SMOOTH",
"552 1165 OFFCURVE",
"571 1180 OFFCURVE",
"587 1195 CURVE SMOOTH",
"600 1209 OFFCURVE",
"612 1221 OFFCURVE",
"612 1231 CURVE SMOOTH",
"612 1242 OFFCURVE",
"601 1243 OFFCURVE",
"587 1243 CURVE SMOOTH",
"367 1243 LINE SMOOTH",
"200 1243 OFFCURVE",
"139 1156 OFFCURVE",
"139 1002 CURVE SMOOTH",
"139 932 OFFCURVE",
"153 848 OFFCURVE",
"153 765 CURVE SMOOTH",
"153 696 OFFCURVE",
"139 636 OFFCURVE",
"73 609 CURVE SMOOTH",
"64 606 OFFCURVE",
"53 597 OFFCURVE",
"53 585 CURVE SMOOTH",
"53 412 LINE SMOOTH",
"53 400 OFFCURVE",
"64 390 OFFCURVE",
"73 387 CURVE SMOOTH",
"141 361 OFFCURVE",
"153 299 OFFCURVE",
"153 231 CURVE SMOOTH",
"153 149 OFFCURVE",
"141 65 OFFCURVE",
"141 -4 CURVE SMOOTH",
"141 -159 OFFCURVE",
"200 -246 OFFCURVE",
"369 -246 CURVE SMOOTH",
"454 -246 LINE SMOOTH",
"487 -246 OFFCURVE",
"510 -238 OFFCURVE",
"531 -221 CURVE SMOOTH",
"559 -197 OFFCURVE",
"573 -179 OFFCURVE",
"591 -161 CURVE SMOOTH",
"600 -152 OFFCURVE",
"605 -145 OFFCURVE",
"610 -137 CURVE",
"610 -125 OFFCURVE",
"601 -122 OFFCURVE",
"586 -122 CURVE SMOOTH"
);
}
);
width = 652;
}
);
unicode = 007B;
},
{
glyphname = braceright;
lastChange = "2015-11-23 15:56:40 +0000";
layers = (
{
layerId = "3138562F-70A2-47D8-8787-D90195410BEE";
name = Regular;
paths = (
{
closed = 1;
nodes = (
"256 1120 LINE",
"333 1120 OFFCURVE",
"343 1050 OFFCURVE",
"343 995 CURVE SMOOTH",
"343 941 OFFCURVE",
"336 844 OFFCURVE",
"336 760 CURVE SMOOTH",
"336 624 OFFCURVE",
"372 559 OFFCURVE",
"447 509 CURVE SMOOTH",
"451 508 OFFCURVE",
"453 503 OFFCURVE",
"453 498 CURVE SMOOTH",
"453 493 OFFCURVE",
"451 489 OFFCURVE",
"447 487 CURVE SMOOTH",
"370 448 OFFCURVE",
"336 366 OFFCURVE",
"336 236 CURVE SMOOTH",
"336 159 OFFCURVE",
"343 61 OFFCURVE",
"343 7 CURVE SMOOTH",
"343 -65 OFFCURVE",
"335 -120 OFFCURVE",
"230 -120 CURVE SMOOTH",
"177 -120 LINE SMOOTH",
"162 -120 OFFCURVE",
"148 -123 OFFCURVE",
"125 -142 CURVE SMOOTH",
"104 -159 OFFCURVE",
"76 -183 OFFCURVE",
"59 -200 CURVE SMOOTH",
"46 -214 OFFCURVE",
"39 -222 OFFCURVE",
"39 -231 CURVE SMOOTH",
"39 -242 OFFCURVE",
"49 -246 OFFCURVE",
"64 -246 CURVE SMOOTH",
"285 -246 LINE SMOOTH",
"451 -246 OFFCURVE",
"512 -158 OFFCURVE",
"512 -4 CURVE SMOOTH",
"512 65 OFFCURVE",
"497 149 OFFCURVE",
"497 231 CURVE SMOOTH",
"497 301 OFFCURVE",
"512 361 OFFCURVE",
"579 387 CURVE SMOOTH",
"587 390 OFFCURVE",
"598 400 OFFCURVE",
"598 412 CURVE SMOOTH",
"598 585 LINE SMOOTH",
"598 597 OFFCURVE",
"587 606 OFFCURVE",
"579 609 CURVE SMOOTH",
"512 636 OFFCURVE",
"497 697 OFFCURVE",
"497 765 CURVE SMOOTH",
"497 848 OFFCURVE",
"510 932 OFFCURVE",
"510 1002 CURVE SMOOTH",
"510 1158 OFFCURVE",
"451 1243 OFFCURVE",
"283 1243 CURVE",
"193 1243 LINE SMOOTH",
"162 1243 OFFCURVE",
"146 1238 OFFCURVE",
"129 1222 CURVE SMOOTH",
"105 1201 OFFCURVE",
"80 1180 OFFCURVE",
"61 1158 CURVE SMOOTH",
"49 1145 OFFCURVE",
"41 1134 OFFCURVE",
"41 1132 CURVE SMOOTH",
"41 1122 OFFCURVE",
"49 1120 OFFCURVE",
"66 1120 CURVE SMOOTH"
);
}
);
width = 652;
}
);
unicode = 007D;
},
{
glyphname = bracketleft;
lastChange = "2015-11-23 15:56:40 +0000";
layers = (
{
layerId = "3138562F-70A2-47D8-8787-D90195410BEE";
name = Regular;
paths = (
{
closed = 1;
nodes = (
"93 -75 CURVE SMOOTH",
"93 -200 OFFCURVE",
"138 -248 OFFCURVE",
"261 -248 CURVE SMOOTH",
"447 -248 LINE SMOOTH",
"483 -248 OFFCURVE",
"507 -238 OFFCURVE",
"531 -219 CURVE SMOOTH",
"552 -204 OFFCURVE",
"569 -190 OFFCURVE",
"593 -166 CURVE SMOOTH",
"605 -154 OFFCURVE",
"615 -147 OFFCURVE",
"615 -138 CURVE SMOOTH",
"615 -127 OFFCURVE",
"603 -123 OFFCURVE",
"584 -123 CURVE SMOOTH",
"309 -123 LINE SMOOTH",
"283 -123 OFFCURVE",
"263 -108 OFFCURVE",
"263 -70 CURVE SMOOTH",
"261 22 OFFCURVE",
"259 373 OFFCURVE",
"259 541 CURVE",
"259 617 OFFCURVE",
"258 790 OFFCURVE",
"258 921 CURVE SMOOTH",
"258 1082 OFFCURVE",
"259 1118 OFFCURVE",
"307 1118 CURVE SMOOTH",
"476 1118 LINE SMOOTH",
"492 1118 OFFCURVE",
"512 1127 OFFCURVE",
"537 1147 CURVE SMOOTH",
"555 1161 OFFCURVE",
"579 1183 OFFCURVE",
"594 1199 CURVE SMOOTH",
"608 1213 OFFCURVE",
"615 1221 OFFCURVE",
"615 1229 CURVE SMOOTH",
"615 1240 OFFCURVE",
"603 1242 OFFCURVE",
"589 1242 CURVE SMOOTH",
"204 1242 LINE SMOOTH",
"125 1242 OFFCURVE",
"89 1165 OFFCURVE",
"89 1095 CURVE SMOOTH",
"89 1000 OFFCURVE",
"102 763 OFFCURVE",
"102 559 CURVE SMOOTH",
"102 277 OFFCURVE",
"93 81 OFFCURVE"
);
}
);
width = 652;
}
);
unicode = 005B;
},
{
glyphname = bracketright;
lastChange = "2015-11-23 15:56:40 +0000";
layers = (
{
layerId = "3138562F-70A2-47D8-8787-D90195410BEE";
name = Regular;
paths = (
{
closed = 1;
nodes = (
"559 -75 CURVE SMOOTH",
"559 -200 OFFCURVE",
"514 -248 OFFCURVE",
"391 -248 CURVE SMOOTH",
"204 -248 LINE SMOOTH",
"168 -248 OFFCURVE",
"145 -238 OFFCURVE",
"119 -219 CURVE SMOOTH",
"100 -204 OFFCURVE",
"82 -190 OFFCURVE",
"59 -166 CURVE SMOOTH",
"46 -154 OFFCURVE",
"37 -147 OFFCURVE",
"37 -138 CURVE SMOOTH",
"37 -127 OFFCURVE",
"48 -123 OFFCURVE",
"68 -123 CURVE SMOOTH",
"342 -123 LINE SMOOTH",
"369 -123 OFFCURVE",
"388 -108 OFFCURVE",
"388 -70 CURVE SMOOTH",
"391 22 OFFCURVE",
"392 373 OFFCURVE",
"392 541 CURVE SMOOTH",
"392 617 OFFCURVE",
"394 790 OFFCURVE",
"394 921 CURVE SMOOTH",
"394 1082 OFFCURVE",
"392 1118 OFFCURVE",
"343 1118 CURVE SMOOTH",
"175 1118 LINE SMOOTH",
"159 1118 OFFCURVE",
"139 1127 OFFCURVE",
"114 1147 CURVE SMOOTH",
"97 1161 OFFCURVE",
"73 1183 OFFCURVE",
"57 1199 CURVE SMOOTH",
"42 1213 OFFCURVE",
"37 1221 OFFCURVE",
"37 1229 CURVE SMOOTH",
"37 1240 OFFCURVE",
"48 1242 OFFCURVE",
"62 1242 CURVE SMOOTH",
"447 1242 LINE SMOOTH",
"526 1242 OFFCURVE",
"562 1165 OFFCURVE",
"562 1095 CURVE SMOOTH",
"562 1000 OFFCURVE",
"550 763 OFFCURVE",
"550 559 CURVE SMOOTH",
"550 277 OFFCURVE",
"559 81 OFFCURVE"
);
}
);
width = 652;
}
);
unicode = 005D;
},
{
glyphname = parenleft;
lastChange = "2015-11-23 15:56:40 +0000";
layers = (
{
layerId = "3138562F-70A2-47D8-8787-D90195410BEE";
name = Regular;
paths = (
{
closed = 1;
nodes = (
"292 536 CURVE SMOOTH",
"292 690 OFFCURVE",
"345 837 OFFCURVE",
"384 935 CURVE SMOOTH",
"415 1012 OFFCURVE",
"485 1151 OFFCURVE",
"521 1215 CURVE SMOOTH",
"530 1231 OFFCURVE",
"533 1236 OFFCURVE",
"533 1242 CURVE SMOOTH",
"533 1249 OFFCURVE",
"528 1255 OFFCURVE",
"521 1255 CURVE SMOOTH",
"516 1255 OFFCURVE",
"501 1249 OFFCURVE",
"492 1243 CURVE SMOOTH",
"456 1222 OFFCURVE",
"401 1175 OFFCURVE",
"394 1170 CURVE SMOOTH",
"376 1154 OFFCURVE",
"353 1127 OFFCURVE",
"336 1100 CURVE SMOOTH",
"322 1077 OFFCURVE",
"251 949 OFFCURVE",
"220 887 CURVE SMOOTH",
"172 785 OFFCURVE",
"100 631 OFFCURVE",
"100 457 CURVE SMOOTH",
"100 340 OFFCURVE",
"126 183 OFFCURVE",
"189 41 CURVE SMOOTH",
"249 -91 OFFCURVE",
"333 -212 OFFCURVE",
"394 -279 CURVE SMOOTH",
"399 -287 OFFCURVE",
"413 -299 OFFCURVE",
"422 -299 CURVE SMOOTH",
"432 -299 OFFCURVE",
"437 -294 OFFCURVE",
"442 -285 CURVE SMOOTH",
"460 -256 OFFCURVE",
"503 -178 OFFCURVE",
"524 -122 CURVE SMOOTH",
"528 -113 OFFCURVE",
"530 -104 OFFCURVE",
"530 -99 CURVE SMOOTH",
"530 -86 OFFCURVE",
"523 -77 OFFCURVE",
"516 -67 CURVE SMOOTH",
"460 14 OFFCURVE",
"428 53 OFFCURVE",
"367 190 CURVE SMOOTH",
"317 303 OFFCURVE",
"292 439 OFFCURVE"
);
}
);
width = 652;
}
);
unicode = 0028;
},
{
glyphname = parenright;
lastChange = "2015-11-23 15:56:40 +0000";
layers = (
{
layerId = "3138562F-70A2-47D8-8787-D90195410BEE";
name = Regular;
paths = (
{
closed = 1;
nodes = (
"338 419 CURVE SMOOTH",
"338 265 OFFCURVE",
"286 118 OFFCURVE",
"247 20 CURVE SMOOTH",
"216 -58 OFFCURVE",
"143 -192 OFFCURVE",
"104 -270 CURVE SMOOTH",
"102 -274 OFFCURVE",
"97 -284 OFFCURVE",
"97 -287 CURVE SMOOTH",
"97 -294 OFFCURVE",
"102 -299 OFFCURVE",
"109 -299 CURVE SMOOTH",
"114 -299 OFFCURVE",
"129 -294 OFFCURVE",
"138 -289 CURVE SMOOTH",
"174 -267 OFFCURVE",
"229 -221 OFFCURVE",
"236 -215 CURVE SMOOTH",
"254 -199 OFFCURVE",
"277 -172 OFFCURVE",
"293 -145 CURVE SMOOTH",
"307 -122 OFFCURVE",
"379 5 OFFCURVE",
"410 68 CURVE SMOOTH",
"458 171 OFFCURVE",
"530 325 OFFCURVE",
"530 498 CURVE SMOOTH",
"530 614 OFFCURVE",
"503 773 OFFCURVE",
"440 914 CURVE SMOOTH",
"381 1047 OFFCURVE",
"297 1166 OFFCURVE",
"236 1235 CURVE SMOOTH",
"230 1242 OFFCURVE",
"216 1255 OFFCURVE",
"208 1255 CURVE SMOOTH",
"198 1255 OFFCURVE",
"193 1249 OFFCURVE",
"188 1240 CURVE SMOOTH",
"170 1211 OFFCURVE",
"126 1132 OFFCURVE",
"105 1077 CURVE SMOOTH",
"102 1068 OFFCURVE",
"100 1059 OFFCURVE",
"100 1054 CURVE SMOOTH",
"100 1041 OFFCURVE",
"107 1033 OFFCURVE",
"114 1021 CURVE SMOOTH",
"170 941 OFFCURVE",
"202 901 OFFCURVE",
"263 765 CURVE SMOOTH",
"313 652 OFFCURVE",
"338 516 OFFCURVE"
);
}
);
width = 652;
}
);
unicode = 0029;
},
{
color = (255,153,153,1);
glyphname = emdash;
lastChange = "2015-11-23 15:56:40 +0000";
layers = (
{
layerId = "3138562F-70A2-47D8-8787-D90195410BEE";
name = Regular;
paths = (
{
closed = 1;
nodes = (
"167 557 CURVE",
"139 525 OFFCURVE",
"118 496 OFFCURVE",
"102 468 CURVE",
"98 460 OFFCURVE",
"89 445 OFFCURVE",
"89 432 CURVE",
"89 414 OFFCURVE",
"105 409 OFFCURVE",
"125 409 CURVE",
"191 409 OFFCURVE",
"853 409 OFFCURVE",
"916 409 CURVE",
"938 409 OFFCURVE",
"951 414 OFFCURVE",
"967 436 CURVE",
"993 468 OFFCURVE",
"1003 489 OFFCURVE",
"1022 525 CURVE",
"1030 537 OFFCURVE",
"1034 550 OFFCURVE",
"1034 559 CURVE",
"1034 579 OFFCURVE",
"1021 585 OFFCURVE",
"996 585 CURVE",
"227 585 LINE SMOOTH",
"202 585 OFFCURVE",
"186 579 OFFCURVE"
);
}
);
width = 1124;
}
);
unicode = 2014;
userData = {
com.typemytype.robofont.mark = (
1,
0.6,
0.6,
1
);
};
},
{
color = (255,153,153,1);
glyphname = endash;
lastChange = "2015-11-23 15:56:40 +0000";
layers = (
{
layerId = "3138562F-70A2-47D8-8787-D90195410BEE";
name = Regular;
paths = (
{
closed = 1;
nodes = (
"167 557 CURVE",
"139 525 OFFCURVE",
"116 489 OFFCURVE",
"98 460 CURVE",
"95 453 OFFCURVE",
"89 445 OFFCURVE",
"89 432 CURVE",
"89 414 OFFCURVE",
"105 409 OFFCURVE",
"125 409 CURVE",
"191 409 OFFCURVE",
"650 409 OFFCURVE",
"713 409 CURVE",
"736 409 OFFCURVE",
"748 414 OFFCURVE",
"765 436 CURVE",
"791 468 OFFCURVE",
"803 491 OFFCURVE",
"822 529 CURVE",
"827 537 OFFCURVE",
"831 550 OFFCURVE",
"831 557 CURVE",
"831 577 OFFCURVE",
"818 585 OFFCURVE",
"793 585 CURVE",
"227 585 LINE SMOOTH",
"202 585 OFFCURVE",
"186 579 OFFCURVE"
);
}
);
width = 922;
}
);
unicode = 2013;
userData = {
com.typemytype.robofont.mark = (
1,
0.6,
0.6,
1
);
};
},
{
glyphname = hyphen;
lastChange = "2015-11-23 15:56:40 +0000";
layers = (
{
layerId = "3138562F-70A2-47D8-8787-D90195410BEE";
name = Regular;
paths = (
{
closed = 1;
nodes = (
"138 957 CURVE SMOOTH",
"91 894 OFFCURVE",
"35 803 OFFCURVE",
"35 778 CURVE SMOOTH",
"35 760 OFFCURVE",
"53 754 OFFCURVE",
"73 754 CURVE SMOOTH",
"478 754 LINE SMOOTH",
"501 754 OFFCURVE",
"524 778 OFFCURVE",
"550 812 CURVE SMOOTH",
"573 844 OFFCURVE",
"594 884 OFFCURVE",
"615 928 CURVE SMOOTH",
"620 941 OFFCURVE",
"623 951 OFFCURVE",
"623 959 CURVE SMOOTH",
"623 982 OFFCURVE",
"607 989 OFFCURVE",
"582 989 CURVE SMOOTH",
"193 989 LINE SMOOTH",
"174 989 OFFCURVE",
"155 980 OFFCURVE"
);
}
);
width = 650;
}
);
unicode = 002D;
},
{
glyphname = guillemotleft;
lastChange = "2015-11-23 15:56:40 +0000";
layers = (
{
layerId = "3138562F-70A2-47D8-8787-D90195410BEE";
name = Regular;
paths = (
{
closed = 1;
nodes = (
"112 650 CURVE SMOOTH",
"85 614 OFFCURVE",
"32 539 OFFCURVE",
"10 494 CURVE SMOOTH",
"6 487 OFFCURVE",
"3 477 OFFCURVE",
"3 468 CURVE SMOOTH",
"3 457 OFFCURVE",
"6 446 OFFCURVE",
"20 426 CURVE SMOOTH",
"46 382 OFFCURVE",
"126 294 OFFCURVE",
"175 253 CURVE SMOOTH",
"184 246 OFFCURVE",
"189 244 OFFCURVE",
"193 244 CURVE SMOOTH",
"198 244 OFFCURVE",
"206 248 OFFCURVE",
"213 256 CURVE SMOOTH",
"247 298 OFFCURVE",
"265 326 OFFCURVE",
"288 364 CURVE SMOOTH",
"299 382 OFFCURVE",
"297 387 OFFCURVE",
"299 390 CURVE",
"299 402 OFFCURVE",
"295 407 OFFCURVE",
"292 410 CURVE SMOOTH",
"209 500 LINE SMOOTH",
"204 506 OFFCURVE",
"200 516 OFFCURVE",
"200 522 CURVE SMOOTH",
"200 527 OFFCURVE",
"202 534 OFFCURVE",
"206 543 CURVE SMOOTH",
"279 701 LINE SMOOTH",
"283 708 OFFCURVE",
"286 718 OFFCURVE",
"286 724 CURVE SMOOTH",
"286 732 OFFCURVE",
"281 737 OFFCURVE",
"272 737 CURVE SMOOTH",
"268 737 OFFCURVE",
"263 737 OFFCURVE",
"256 733 CURVE SMOOTH",
"242 727 OFFCURVE",
"174 696 OFFCURVE",
"164 690 CURVE SMOOTH",
"152 683 OFFCURVE",
"129 672 OFFCURVE"
);
},
{
closed = 1;
nodes = (
"451 650 CURVE SMOOTH",
"424 614 OFFCURVE",
"370 539 OFFCURVE",
"349 494 CURVE SMOOTH",
"345 487 OFFCURVE",
"342 477 OFFCURVE",
"342 468 CURVE SMOOTH",
"342 457 OFFCURVE",
"345 446 OFFCURVE",
"358 426 CURVE SMOOTH",
"384 382 OFFCURVE",
"466 294 OFFCURVE",
"514 253 CURVE SMOOTH",
"523 246 OFFCURVE",
"528 244 OFFCURVE",
"531 244 CURVE SMOOTH",
"537 244 OFFCURVE",
"545 248 OFFCURVE",
"552 256 CURVE SMOOTH",
"586 298 OFFCURVE",
"603 326 OFFCURVE",
"627 364 CURVE SMOOTH",
"637 382 OFFCURVE",
"636 387 OFFCURVE",
"637 390 CURVE",
"637 402 OFFCURVE",
"634 407 OFFCURVE",
"630 410 CURVE SMOOTH",
"548 500 LINE SMOOTH",
"543 506 OFFCURVE",
"539 516 OFFCURVE",
"539 522 CURVE SMOOTH",
"539 527 OFFCURVE",
"541 534 OFFCURVE",
"545 543 CURVE SMOOTH",
"618 701 LINE SMOOTH",
"622 708 OFFCURVE",
"625 718 OFFCURVE",
"625 724 CURVE SMOOTH",
"625 732 OFFCURVE",
"620 737 OFFCURVE",
"610 737 CURVE SMOOTH",
"607 737 OFFCURVE",
"601 737 OFFCURVE",
"594 733 CURVE SMOOTH",
"580 727 OFFCURVE",
"512 696 OFFCURVE",
"503 690 CURVE SMOOTH",
"490 683 OFFCURVE",
"468 672 OFFCURVE"
);
}
);
width = 644;
}
);
unicode = 00AB;
},
{
glyphname = guillemotright;
lastChange = "2015-11-23 15:56:40 +0000";
layers = (
{
layerId = "3138562F-70A2-47D8-8787-D90195410BEE";
name = Regular;
paths = (
{
closed = 1;
nodes = (
"528 330 CURVE SMOOTH",
"555 366 OFFCURVE",
"608 441 OFFCURVE",
"630 486 CURVE SMOOTH",
"634 493 OFFCURVE",
"637 503 OFFCURVE",
"637 513 CURVE SMOOTH",
"637 523 OFFCURVE",
"634 534 OFFCURVE",
"622 554 CURVE SMOOTH",
"594 599 OFFCURVE",
"514 686 OFFCURVE",
"466 727 CURVE SMOOTH",
"456 735 OFFCURVE",
"451 737 OFFCURVE",
"447 737 CURVE SMOOTH",
"442 737 OFFCURVE",
"435 733 OFFCURVE",
"428 724 CURVE SMOOTH",
"394 683 OFFCURVE",
"376 655 OFFCURVE",
"353 617 CURVE SMOOTH",
"342 599 OFFCURVE",
"343 593 OFFCURVE",
"342 590 CURVE",
"342 579 OFFCURVE",
"345 573 OFFCURVE",
"349 570 CURVE SMOOTH",
"432 480 LINE SMOOTH",
"437 475 OFFCURVE",
"440 464 OFFCURVE",
"440 459 CURVE SMOOTH",
"440 453 OFFCURVE",
"439 446 OFFCURVE",
"435 438 CURVE SMOOTH",
"362 279 LINE SMOOTH",
"358 272 OFFCURVE",
"355 262 OFFCURVE",
"355 256 CURVE SMOOTH",
"355 249 OFFCURVE",
"360 244 OFFCURVE",
"369 244 CURVE SMOOTH",
"372 244 OFFCURVE",
"377 244 OFFCURVE",
"384 248 CURVE SMOOTH",
"399 253 OFFCURVE",
"468 285 OFFCURVE",
"476 291 CURVE SMOOTH",
"489 298 OFFCURVE",
"512 308 OFFCURVE"
);
},
{
closed = 1;
nodes = (
"189 330 CURVE SMOOTH",
"216 366 OFFCURVE",
"270 441 OFFCURVE",
"292 486 CURVE SMOOTH",
"295 493 OFFCURVE",
"299 503 OFFCURVE",
"299 513 CURVE SMOOTH",
"299 523 OFFCURVE",
"295 534 OFFCURVE",
"283 554 CURVE SMOOTH",
"256 599 OFFCURVE",
"175 686 OFFCURVE",
"126 727 CURVE SMOOTH",
"118 735 OFFCURVE",
"112 737 OFFCURVE",
"109 737 CURVE SMOOTH",
"104 737 OFFCURVE",
"97 733 OFFCURVE",
"89 724 CURVE SMOOTH",
"55 683 OFFCURVE",
"37 655 OFFCURVE",
"13 617 CURVE SMOOTH",
"3 599 OFFCURVE",
"5 593 OFFCURVE",
"3 590 CURVE",
"3 579 OFFCURVE",
"6 573 OFFCURVE",
"10 570 CURVE SMOOTH",
"93 480 LINE SMOOTH",
"98 475 OFFCURVE",
"102 464 OFFCURVE",
"102 459 CURVE SMOOTH",
"102 453 OFFCURVE",
"100 446 OFFCURVE",
"97 438 CURVE SMOOTH",
"23 279 LINE SMOOTH",
"20 272 OFFCURVE",
"15 262 OFFCURVE",
"15 256 CURVE SMOOTH",
"15 249 OFFCURVE",
"21 244 OFFCURVE",
"30 244 CURVE SMOOTH",
"34 244 OFFCURVE",
"39 244 OFFCURVE",
"46 248 CURVE SMOOTH",
"61 253 OFFCURVE",
"129 285 OFFCURVE",
"138 291 CURVE SMOOTH",
"150 298 OFFCURVE",
"174 308 OFFCURVE"
);
}
);
width = 644;
}
);
unicode = 00BB;
},
{
glyphname = guilsinglleft;
lastChange = "2015-11-23 15:56:40 +0000";
layers = (
{
layerId = "3138562F-70A2-47D8-8787-D90195410BEE";
name = Regular;
paths = (
{
closed = 1;
nodes = (
"112 650 CURVE SMOOTH",
"85 614 OFFCURVE",
"32 539 OFFCURVE",
"10 494 CURVE SMOOTH",
"6 487 OFFCURVE",
"3 477 OFFCURVE",
"3 468 CURVE SMOOTH",
"3 457 OFFCURVE",
"6 446 OFFCURVE",
"20 426 CURVE SMOOTH",
"46 382 OFFCURVE",
"126 294 OFFCURVE",
"175 253 CURVE SMOOTH",
"184 246 OFFCURVE",
"189 244 OFFCURVE",
"193 244 CURVE SMOOTH",
"198 244 OFFCURVE",
"206 248 OFFCURVE",
"213 256 CURVE SMOOTH",
"247 298 OFFCURVE",
"265 326 OFFCURVE",
"288 364 CURVE SMOOTH",
"299 382 OFFCURVE",
"297 387 OFFCURVE",
"299 390 CURVE SMOOTH",
"299 402 OFFCURVE",
"295 407 OFFCURVE",
"292 410 CURVE SMOOTH",
"209 500 LINE",
"204 506 OFFCURVE",
"200 516 OFFCURVE",
"200 522 CURVE SMOOTH",
"200 527 OFFCURVE",
"202 534 OFFCURVE",
"206 543 CURVE SMOOTH",
"279 701 LINE SMOOTH",
"283 708 OFFCURVE",
"286 718 OFFCURVE",
"286 724 CURVE SMOOTH",
"286 732 OFFCURVE",
"281 737 OFFCURVE",
"272 737 CURVE SMOOTH",
"268 737 OFFCURVE",
"263 737 OFFCURVE",
"256 733 CURVE SMOOTH",
"242 727 OFFCURVE",
"174 696 OFFCURVE",
"164 690 CURVE SMOOTH",
"152 683 OFFCURVE",
"129 672 OFFCURVE"
);
}
);
width = 334;
}
);
unicode = 2039;
},
{
glyphname = guilsinglright;
lastChange = "2015-11-23 15:56:40 +0000";
layers = (
{
layerId = "3138562F-70A2-47D8-8787-D90195410BEE";
name = Regular;
paths = (
{
closed = 1;
nodes = (
"189 330 CURVE SMOOTH",
"216 366 OFFCURVE",
"270 441 OFFCURVE",
"292 486 CURVE SMOOTH",
"295 493 OFFCURVE",
"299 503 OFFCURVE",
"299 513 CURVE SMOOTH",
"299 523 OFFCURVE",
"295 534 OFFCURVE",
"283 554 CURVE SMOOTH",
"256 599 OFFCURVE",
"175 686 OFFCURVE",
"126 727 CURVE SMOOTH",
"118 735 OFFCURVE",
"112 737 OFFCURVE",
"109 737 CURVE SMOOTH",
"104 737 OFFCURVE",
"97 733 OFFCURVE",
"89 724 CURVE SMOOTH",
"55 683 OFFCURVE",
"37 655 OFFCURVE",
"13 617 CURVE SMOOTH",
"3 599 OFFCURVE",
"5 593 OFFCURVE",
"3 590 CURVE",
"3 579 OFFCURVE",
"6 573 OFFCURVE",
"10 570 CURVE SMOOTH",
"93 480 LINE SMOOTH",
"98 475 OFFCURVE",
"102 464 OFFCURVE",
"102 459 CURVE SMOOTH",
"102 453 OFFCURVE",
"100 446 OFFCURVE",
"97 438 CURVE SMOOTH",
"23 279 LINE SMOOTH",
"20 272 OFFCURVE",
"15 262 OFFCURVE",
"15 256 CURVE SMOOTH",
"15 249 OFFCURVE",
"21 244 OFFCURVE",
"30 244 CURVE SMOOTH",
"34 244 OFFCURVE",
"39 244 OFFCURVE",
"46 248 CURVE SMOOTH",
"61 253 OFFCURVE",
"129 285 OFFCURVE",
"138 291 CURVE SMOOTH",
"150 298 OFFCURVE",
"174 308 OFFCURVE"
);
}
);
width = 334;
}
);
unicode = 203A;
},
{
glyphname = quotedblbase;
lastChange = "2015-11-23 15:56:40 +0000";
layers = (
{
layerId = "3138562F-70A2-47D8-8787-D90195410BEE";
name = Regular;
paths = (
{
closed = 1;
nodes = (
"114 -246 CURVE SMOOTH",
"104 -277 OFFCURVE",
"98 -291 OFFCURVE",
"98 -305 CURVE SMOOTH",
"98 -317 OFFCURVE",
"105 -330 OFFCURVE",
"118 -330 CURVE SMOOTH",
"138 -330 OFFCURVE",
"155 -312 OFFCURVE",
"175 -292 CURVE SMOOTH",
"244 -224 OFFCURVE",
"288 -138 OFFCURVE",
"336 -61 CURVE SMOOTH",
"383 12 OFFCURVE",
"410 106 OFFCURVE",
"410 165 CURVE SMOOTH",
"410 214 OFFCURVE",
"399 269 OFFCURVE",
"381 305 CURVE SMOOTH",
"370 326 OFFCURVE",
"358 342 OFFCURVE",
"347 342 CURVE SMOOTH",
"331 342 OFFCURVE",
"322 339 OFFCURVE",
"307 325 CURVE SMOOTH",
"258 274 OFFCURVE",
"223 242 OFFCURVE",
"198 208 CURVE SMOOTH",
"189 195 OFFCURVE",
"182 185 OFFCURVE",
"182 166 CURVE SMOOTH",
"182 145 OFFCURVE",
"189 113 OFFCURVE",
"189 68 CURVE SMOOTH",
"189 -39 OFFCURVE",
"145 -156 OFFCURVE"
);
},
{
closed = 1;
nodes = (
"535 -246 CURVE SMOOTH",
"524 -277 OFFCURVE",
"519 -291 OFFCURVE",
"519 -305 CURVE SMOOTH",
"519 -317 OFFCURVE",
"526 -330 OFFCURVE",
"539 -330 CURVE SMOOTH",
"559 -330 OFFCURVE",
"577 -312 OFFCURVE",
"596 -292 CURVE SMOOTH",
"664 -224 OFFCURVE",
"709 -138 OFFCURVE",
"757 -61 CURVE SMOOTH",
"804 12 OFFCURVE",
"831 106 OFFCURVE",
"831 165 CURVE SMOOTH",
"831 214 OFFCURVE",
"820 269 OFFCURVE",
"803 305 CURVE SMOOTH",
"791 326 OFFCURVE",
"779 342 OFFCURVE",
"769 342 CURVE SMOOTH",
"752 342 OFFCURVE",
"743 339 OFFCURVE",
"729 325 CURVE SMOOTH",
"678 274 OFFCURVE",
"644 242 OFFCURVE",
"620 208 CURVE SMOOTH",
"610 195 OFFCURVE",
"603 185 OFFCURVE",
"603 166 CURVE SMOOTH",
"603 145 OFFCURVE",
"610 113 OFFCURVE",
"610 68 CURVE SMOOTH",
"610 -39 OFFCURVE",
"566 -156 OFFCURVE"
);
}
);
width = 927;
}
);
unicode = 201E;
},
{
glyphname = quotedblleft;
lastChange = "2015-11-23 15:56:40 +0000";
layers = (
{
layerId = "3138562F-70A2-47D8-8787-D90195410BEE";
name = Regular;
paths = (
{
closed = 1;
nodes = (
"815 1043 CURVE SMOOTH",
"825 1075 OFFCURVE",
"831 1088 OFFCURVE",
"831 1103 CURVE SMOOTH",
"831 1115 OFFCURVE",
"824 1127 OFFCURVE",
"811 1127 CURVE SMOOTH",
"791 1127 OFFCURVE",
"774 1110 OFFCURVE",
"754 1089 CURVE SMOOTH",
"685 1021 OFFCURVE",
"641 935 OFFCURVE",
"593 858 CURVE SMOOTH",
"546 785 OFFCURVE",
"519 692 OFFCURVE",
"519 633 CURVE SMOOTH",
"519 585 OFFCURVE",
"530 529 OFFCURVE",
"548 493 CURVE SMOOTH",
"559 472 OFFCURVE",
"571 455 OFFCURVE",
"582 455 CURVE SMOOTH",
"598 455 OFFCURVE",
"607 459 OFFCURVE",
"622 473 CURVE SMOOTH",
"671 523 OFFCURVE",
"706 556 OFFCURVE",
"731 590 CURVE SMOOTH",
"740 602 OFFCURVE",
"747 613 OFFCURVE",
"747 631 CURVE SMOOTH",
"747 652 OFFCURVE",
"740 684 OFFCURVE",
"740 730 CURVE SMOOTH",
"740 837 OFFCURVE",
"784 954 OFFCURVE"
);
},
{
closed = 1;
nodes = (
"394 1043 CURVE SMOOTH",
"405 1075 OFFCURVE",
"410 1088 OFFCURVE",
"410 1103 CURVE SMOOTH",
"410 1115 OFFCURVE",
"403 1127 OFFCURVE",
"391 1127 CURVE SMOOTH",
"370 1127 OFFCURVE",
"353 1110 OFFCURVE",
"333 1089 CURVE SMOOTH",
"265 1021 OFFCURVE",
"220 935 OFFCURVE",
"172 858 CURVE SMOOTH",
"125 785 OFFCURVE",
"98 692 OFFCURVE",
"98 633 CURVE SMOOTH",
"98 585 OFFCURVE",
"109 529 OFFCURVE",
"126 493 CURVE SMOOTH",
"138 472 OFFCURVE",
"150 455 OFFCURVE",
"160 455 CURVE SMOOTH",
"177 455 OFFCURVE",
"186 459 OFFCURVE",
"200 473 CURVE SMOOTH",
"251 523 OFFCURVE",
"285 556 OFFCURVE",
"309 590 CURVE SMOOTH",
"319 602 OFFCURVE",
"326 613 OFFCURVE",
"326 631 CURVE SMOOTH",
"326 652 OFFCURVE",
"319 684 OFFCURVE",
"319 730 CURVE SMOOTH",
"319 837 OFFCURVE",
"363 954 OFFCURVE"
);
}
);
width = 927;
}
);
unicode = 201C;
},
{
glyphname = quotedblright;
lastChange = "2015-11-23 15:56:40 +0000";
layers = (
{
layerId = "3138562F-70A2-47D8-8787-D90195410BEE";
name = Regular;
paths = (
{
closed = 1;
nodes = (
"114 539 CURVE SMOOTH",
"104 508 OFFCURVE",
"98 494 OFFCURVE",
"98 480 CURVE SMOOTH",
"98 468 OFFCURVE",
"105 455 OFFCURVE",
"118 455 CURVE SMOOTH",
"138 455 OFFCURVE",
"155 473 OFFCURVE",
"175 493 CURVE SMOOTH",
"244 561 OFFCURVE",
"288 647 OFFCURVE",
"336 724 CURVE SMOOTH",
"383 797 OFFCURVE",
"410 891 OFFCURVE",
"410 949 CURVE SMOOTH",
"410 998 OFFCURVE",
"399 1054 OFFCURVE",
"381 1089 CURVE SMOOTH",
"370 1111 OFFCURVE",
"358 1127 OFFCURVE",
"347 1127 CURVE SMOOTH",
"331 1127 OFFCURVE",
"322 1124 OFFCURVE",
"307 1110 CURVE SMOOTH",
"258 1059 OFFCURVE",
"223 1027 OFFCURVE",
"198 993 CURVE SMOOTH",
"189 980 OFFCURVE",
"182 970 OFFCURVE",
"182 951 CURVE SMOOTH",
"182 930 OFFCURVE",
"189 898 OFFCURVE",
"189 853 CURVE SMOOTH",
"189 746 OFFCURVE",
"145 629 OFFCURVE"
);
},
{
closed = 1;
nodes = (
"535 539 CURVE SMOOTH",
"524 508 OFFCURVE",
"519 494 OFFCURVE",
"519 480 CURVE SMOOTH",
"519 468 OFFCURVE",
"526 455 OFFCURVE",
"539 455 CURVE SMOOTH",
"559 455 OFFCURVE",
"577 473 OFFCURVE",
"596 493 CURVE SMOOTH",
"664 561 OFFCURVE",
"709 647 OFFCURVE",
"757 724 CURVE SMOOTH",
"804 797 OFFCURVE",
"831 891 OFFCURVE",
"831 949 CURVE SMOOTH",
"831 998 OFFCURVE",
"820 1054 OFFCURVE",
"803 1089 CURVE SMOOTH",
"791 1111 OFFCURVE",
"779 1127 OFFCURVE",
"769 1127 CURVE SMOOTH",
"752 1127 OFFCURVE",
"743 1124 OFFCURVE",
"729 1110 CURVE SMOOTH",
"678 1059 OFFCURVE",
"644 1027 OFFCURVE",
"620 993 CURVE SMOOTH",
"610 980 OFFCURVE",
"603 970 OFFCURVE",
"603 951 CURVE SMOOTH",
"603 930 OFFCURVE",
"610 898 OFFCURVE",
"610 853 CURVE SMOOTH",
"610 746 OFFCURVE",
"566 629 OFFCURVE"
);
}
);
width = 927;
}
);
unicode = 201D;
},
{
glyphname = quoteleft;
lastChange = "2015-11-23 15:56:40 +0000";
layers = (
{
layerId = "3138562F-70A2-47D8-8787-D90195410BEE";
name = Regular;
paths = (
{
closed = 1;
nodes = (
"420 1043 CURVE SMOOTH",
"432 1075 OFFCURVE",
"437 1088 OFFCURVE",
"437 1103 CURVE SMOOTH",
"437 1115 OFFCURVE",
"430 1127 OFFCURVE",
"417 1127 CURVE SMOOTH",
"398 1127 OFFCURVE",
"379 1110 OFFCURVE",
"360 1089 CURVE SMOOTH",
"292 1021 OFFCURVE",
"242 935 OFFCURVE",
"198 858 CURVE SMOOTH",
"155 781 OFFCURVE",
"125 692 OFFCURVE",
"125 633 CURVE SMOOTH",
"125 585 OFFCURVE",
"136 529 OFFCURVE",
"153 493 CURVE SMOOTH",
"164 472 OFFCURVE",
"177 455 OFFCURVE",
"188 455 CURVE SMOOTH",
"204 455 OFFCURVE",
"213 459 OFFCURVE",
"227 473 CURVE SMOOTH",
"277 523 OFFCURVE",
"311 556 OFFCURVE",
"336 590 CURVE SMOOTH",
"345 602 OFFCURVE",
"353 613 OFFCURVE",
"353 631 CURVE SMOOTH",
"353 652 OFFCURVE",
"345 684 OFFCURVE",
"345 730 CURVE SMOOTH",
"345 837 OFFCURVE",
"391 954 OFFCURVE"
);
}
);
width = 531;
}
);
unicode = 2018;
},
{
glyphname = quoteright;
lastChange = "2015-11-23 15:56:40 +0000";
layers = (
{
layerId = "3138562F-70A2-47D8-8787-D90195410BEE";
name = Regular;
paths = (
{
closed = 1;
nodes = (
"111 539 CURVE SMOOTH",
"100 508 OFFCURVE",
"95 494 OFFCURVE",
"95 480 CURVE SMOOTH",
"95 468 OFFCURVE",
"102 455 OFFCURVE",
"114 455 CURVE SMOOTH",
"134 455 OFFCURVE",
"152 473 OFFCURVE",
"172 493 CURVE SMOOTH",
"239 561 OFFCURVE",
"290 647 OFFCURVE",
"333 724 CURVE SMOOTH",
"376 801 OFFCURVE",
"406 891 OFFCURVE",
"406 949 CURVE SMOOTH",
"406 998 OFFCURVE",
"396 1054 OFFCURVE",
"377 1089 CURVE SMOOTH",
"367 1111 OFFCURVE",
"355 1127 OFFCURVE",
"343 1127 CURVE SMOOTH",
"328 1127 OFFCURVE",
"319 1124 OFFCURVE",
"304 1110 CURVE SMOOTH",
"254 1059 OFFCURVE",
"220 1027 OFFCURVE",
"195 993 CURVE SMOOTH",
"186 980 OFFCURVE",
"179 970 OFFCURVE",
"179 951 CURVE SMOOTH",
"179 930 OFFCURVE",
"186 898 OFFCURVE",
"186 853 CURVE SMOOTH",
"186 746 OFFCURVE",
"141 629 OFFCURVE"
);
}
);
width = 531;
}
);
unicode = 2019;
},
{
glyphname = afii67842;
lastChange = "2015-11-23 15:56:40 +0000";
layers = (
{
layerId = "3138562F-70A2-47D8-8787-D90195410BEE";
name = Regular;
paths = (
{
closed = 1;
nodes = (
"195 -63 CURVE",
"195 -77 OFFCURVE",
"198 -93 OFFCURVE",
"220 -93 CURVE",
"285 -93 LINE SMOOTH",
"304 -93 OFFCURVE",
"311 -79 OFFCURVE",
"311 -65 CURVE",
"319 256 OFFCURVE",
"322 383 OFFCURVE",
"322 498 CURVE",
"322 645 OFFCURVE",
"317 853 OFFCURVE",
"311 1086 CURVE",
"311 1100 OFFCURVE",
"304 1115 OFFCURVE",
"285 1115 CURVE",
"220 1115 LINE SMOOTH",
"198 1115 OFFCURVE",
"195 1098 OFFCURVE",
"195 1084 CURVE",
"188 857 OFFCURVE",
"182 645 OFFCURVE",
"182 498 CURVE",
"182 383 OFFCURVE",
"189 214 OFFCURVE"
);
}
);
width = 505;
}
);
unicode = 05C0;
},
{
glyphname = afii57658;
lastChange = "2015-11-23 15:56:40 +0000";
layers = (
{
layerId = "3138562F-70A2-47D8-8787-D90195410BEE";
name = Regular;
paths = (
{
closed = 1;
nodes = (
"184 568 CURVE SMOOTH",
"218 522 OFFCURVE",
"281 468 OFFCURVE",
"329 439 CURVE SMOOTH",
"335 436 OFFCURVE",
"342 434 OFFCURVE",
"349 434 CURVE SMOOTH",
"356 434 OFFCURVE",
"363 438 OFFCURVE",
"369 443 CURVE SMOOTH",
"403 477 OFFCURVE",
"454 530 OFFCURVE",
"483 575 CURVE SMOOTH",
"489 585 OFFCURVE",
"494 595 OFFCURVE",
"494 604 CURVE SMOOTH",
"494 614 OFFCURVE",
"487 624 OFFCURVE",
"478 631 CURVE SMOOTH",
"442 655 OFFCURVE",
"379 711 OFFCURVE",
"343 742 CURVE SMOOTH",
"335 749 OFFCURVE",
"329 754 OFFCURVE",
"321 754 CURVE SMOOTH",
"311 754 OFFCURVE",
"302 749 OFFCURVE",
"295 740 CURVE SMOOTH",
"275 717 OFFCURVE",
"211 645 OFFCURVE",
"182 614 CURVE SMOOTH",
"175 607 OFFCURVE",
"174 599 OFFCURVE",
"174 592 CURVE SMOOTH",
"174 585 OFFCURVE",
"179 575 OFFCURVE"
);
},
{
closed = 1;
nodes = (
"184 97 CURVE SMOOTH",
"218 50 OFFCURVE",
"281 -4 OFFCURVE",
"329 -32 CURVE SMOOTH",
"335 -36 OFFCURVE",
"342 -38 OFFCURVE",
"349 -38 CURVE SMOOTH",
"356 -38 OFFCURVE",
"363 -34 OFFCURVE",
"369 -29 CURVE SMOOTH",
"403 5 OFFCURVE",
"454 60 OFFCURVE",
"483 104 CURVE SMOOTH",
"489 113 OFFCURVE",
"494 123 OFFCURVE",
"494 133 CURVE SMOOTH",
"494 144 OFFCURVE",
"487 152 OFFCURVE",
"478 159 CURVE SMOOTH",
"442 183 OFFCURVE",
"379 240 OFFCURVE",
"343 270 CURVE SMOOTH",
"335 277 OFFCURVE",
"329 284 OFFCURVE",
"321 284 CURVE SMOOTH",
"311 284 OFFCURVE",
"302 277 OFFCURVE",
"295 269 CURVE SMOOTH",
"275 246 OFFCURVE",
"211 174 OFFCURVE",
"182 144 CURVE SMOOTH",
"175 137 OFFCURVE",
"174 127 OFFCURVE",
"174 120 CURVE SMOOTH",
"174 113 OFFCURVE",
"179 104 OFFCURVE"
);
}
);
width = 616;
}
);
unicode = 05C3;
},
{
glyphname = uni05F3;
lastChange = "2015-11-23 15:56:40 +0000";
layers = (
{
layerId = "3138562F-70A2-47D8-8787-D90195410BEE";
name = Regular;
paths = (
{
closed = 1;
nodes = (
"232 1181 CURVE SMOOTH",
"129 1052 OFFCURVE",
"23 830 OFFCURVE",
"23 830 CURVE",
"23 810 OFFCURVE",
"37 799 OFFCURVE",
"55 799 CURVE SMOOTH",
"95 799 OFFCURVE",
"242 925 OFFCURVE",
"299 1002 CURVE SMOOTH",
"319 1029 OFFCURVE",
"338 1072 OFFCURVE",
"338 1132 CURVE SMOOTH",
"338 1166 OFFCURVE",
"333 1197 OFFCURVE",
"309 1197 CURVE SMOOTH",
"261 1197 LINE SMOOTH",
"251 1197 OFFCURVE",
"239 1192 OFFCURVE"
);
}
);
width = 395;
}
);
unicode = 05F3;
},
{
glyphname = uni05F4;
lastChange = "2015-11-23 15:56:40 +0000";
layers = (
{
layerId = "3138562F-70A2-47D8-8787-D90195410BEE";
name = Regular;
paths = (
{
closed = 1;
nodes = (
"247 1192 CURVE SMOOTH",
"234 1187 OFFCURVE",
"220 1172 OFFCURVE",
"206 1152 CURVE SMOOTH",
"98 1009 OFFCURVE",
"10 841 OFFCURVE",
"10 824 CURVE SMOOTH",
"10 809 OFFCURVE",
"27 797 OFFCURVE",
"39 797 CURVE SMOOTH",
"85 797 OFFCURVE",
"263 954 OFFCURVE",
"288 998 CURVE SMOOTH",
"319 1052 OFFCURVE",
"333 1082 OFFCURVE",
"336 1131 CURVE SMOOTH",
"336 1147 LINE SMOOTH",
"336 1178 OFFCURVE",
"333 1195 OFFCURVE",
"300 1195 CURVE SMOOTH",
"273 1195 LINE SMOOTH",
"263 1195 OFFCURVE",
"254 1194 OFFCURVE"
);
},
{
closed = 1;
nodes = (
"528 1194 CURVE",
"514 1187 OFFCURVE",
"499 1173 OFFCURVE",
"485 1154 CURVE SMOOTH",
"391 1029 OFFCURVE",
"293 857 OFFCURVE",
"293 835 CURVE",
"292 830 OFFCURVE",
"292 826 OFFCURVE",
"292 823 CURVE SMOOTH",
"292 805 OFFCURVE",
"304 795 OFFCURVE",
"319 795 CURVE SMOOTH",
"394 795 OFFCURVE",
"579 1012 OFFCURVE",
"580 1016 CURVE SMOOTH",
"598 1048 OFFCURVE",
"615 1084 OFFCURVE",
"618 1132 CURVE SMOOTH",
"618 1149 LINE SMOOTH",
"618 1181 OFFCURVE",
"610 1197 OFFCURVE",
"582 1197 CURVE SMOOTH",
"573 1197 LINE SMOOTH",
"557 1197 OFFCURVE",
"541 1195 OFFCURVE"
);
}
);
width = 642;
}
);
unicode = 05F4;
},
{
glyphname = afii57645;
lastChange = "2015-11-23 15:56:40 +0000";
layers = (
{
layerId = "3138562F-70A2-47D8-8787-D90195410BEE";
name = Regular;
paths = (
{
closed = 1;
nodes = (
"125 975 CURVE SMOOTH",
"141 989 OFFCURVE",
"155 989 OFFCURVE",
"168 989 CURVE SMOOTH",
"589 989 LINE SMOOTH",
"608 989 OFFCURVE",
"616 984 OFFCURVE",
"616 973 CURVE SMOOTH",
"616 966 OFFCURVE",
"610 954 OFFCURVE",
"603 942 CURVE SMOOTH",
"574 900 OFFCURVE",
"552 865 OFFCURVE",
"523 833 CURVE SMOOTH",
"510 819 OFFCURVE",
"499 819 OFFCURVE",
"480 819 CURVE SMOOTH",
"57 819 LINE SMOOTH",
"37 819 OFFCURVE",
"30 826 OFFCURVE",
"30 835 CURVE SMOOTH",
"30 841 OFFCURVE",
"32 846 OFFCURVE",
"34 850 CURVE SMOOTH",
"62 896 OFFCURVE",
"105 956 OFFCURVE"
);
}
);
width = 645;
}
);
unicode = 05BE;
},
{
glyphname = Euro;
lastChange = "2015-11-23 15:56:40 +0000";
layers = (
{
layerId = "3138562F-70A2-47D8-8787-D90195410BEE";
name = Regular;
paths = (
{
closed = 1;
nodes = (
"596 -29 CURVE SMOOTH",
"671 -29 OFFCURVE",
"754 -9 OFFCURVE",
"786 20 CURVE SMOOTH",
"829 58 OFFCURVE",
"867 91 OFFCURVE",
"933 166 CURVE SMOOTH",
"945 181 OFFCURVE",
"958 195 OFFCURVE",
"958 210 CURVE SMOOTH",
"958 219 OFFCURVE",
"951 226 OFFCURVE",
"942 226 CURVE SMOOTH",
"928 226 OFFCURVE",
"765 171 OFFCURVE",
"657 171 CURVE SMOOTH",
"460 171 OFFCURVE",
"319 253 OFFCURVE",
"299 522 CURVE",
"440 522 OFFCURVE",
"567 523 OFFCURVE",
"721 523 CURVE SMOOTH",
"763 523 OFFCURVE",
"797 525 OFFCURVE",
"832 547 CURVE SMOOTH",
"851 557 OFFCURVE",
"876 571 OFFCURVE",
"895 586 CURVE SMOOTH",
"904 593 OFFCURVE",
"917 609 OFFCURVE",
"917 614 CURVE SMOOTH",
"917 622 OFFCURVE",
"911 626 OFFCURVE",
"899 626 CURVE SMOOTH",
"292 626 LINE",
"292 658 OFFCURVE",
"293 692 OFFCURVE",
"295 717 CURVE",
"376 718 OFFCURVE",
"641 717 OFFCURVE",
"750 724 CURVE SMOOTH",
"776 725 OFFCURVE",
"798 732 OFFCURVE",
"820 740 CURVE SMOOTH",
"851 753 OFFCURVE",
"887 773 OFFCURVE",
"908 787 CURVE SMOOTH",
"919 794 OFFCURVE",
"926 801 OFFCURVE",
"926 809 CURVE SMOOTH",
"926 816 OFFCURVE",
"916 821 OFFCURVE",
"902 821 CURVE SMOOTH",
"313 821 LINE SMOOTH",
"307 821 OFFCURVE",
"307 824 OFFCURVE",
"307 828 CURVE SMOOTH",
"307 867 OFFCURVE",
"329 944 OFFCURVE",
"363 1000 CURVE SMOOTH",
"398 1054 OFFCURVE",
"458 1089 OFFCURVE",
"541 1089 CURVE SMOOTH",
"634 1089 OFFCURVE",
"704 1050 OFFCURVE",
"757 1025 CURVE SMOOTH",
"765 1021 OFFCURVE",
"777 1014 OFFCURVE",
"790 1014 CURVE SMOOTH",
"798 1014 OFFCURVE",
"811 1021 OFFCURVE",
"825 1041 CURVE SMOOTH",
"856 1082 OFFCURVE",
"895 1142 OFFCURVE",
"911 1168 CURVE SMOOTH",
"919 1181 OFFCURVE",
"924 1192 OFFCURVE",
"924 1201 CURVE SMOOTH",
"924 1209 OFFCURVE",
"914 1217 OFFCURVE",
"897 1224 CURVE SMOOTH",
"847 1247 OFFCURVE",
"743 1267 OFFCURVE",
"695 1267 CURVE SMOOTH",
"598 1267 OFFCURVE",
"531 1253 OFFCURVE",
"447 1208 CURVE SMOOTH",
"349 1154 OFFCURVE",
"245 1093 OFFCURVE",
"181 1021 CURVE SMOOTH",
"138 975 OFFCURVE",
"105 872 OFFCURVE",
"93 826 CURVE SMOOTH",
"91 819 OFFCURVE",
"89 819 OFFCURVE",
"80 819 CURVE SMOOTH",
"71 819 OFFCURVE",
"48 819 OFFCURVE",
"48 819 CURVE SMOOTH",
"49 819 OFFCURVE",
"30 817 OFFCURVE",
"13 807 CURVE SMOOTH",
"-4 794 OFFCURVE",
"-28 773 OFFCURVE",
"-45 756 CURVE SMOOTH",
"-60 744 OFFCURVE",
"-69 735 OFFCURVE",
"-69 727 CURVE SMOOTH",
"-69 720 OFFCURVE",
"-62 717 OFFCURVE",
"-49 717 CURVE SMOOTH",
"71 717 LINE",
"64 683 OFFCURVE",
"61 658 OFFCURVE",
"61 624 CURVE",
"35 624 LINE SMOOTH",
"18 624 OFFCURVE",
"5 619 OFFCURVE",
"-9 607 CURVE",
"-51 564 LINE SMOOTH",
"-64 552 OFFCURVE",
"-74 537 OFFCURVE",
"-74 530 CURVE SMOOTH",
"-74 523 OFFCURVE",
"-67 523 OFFCURVE",
"-54 523 CURVE SMOOTH",
"64 523 LINE",
"91 208 OFFCURVE",
"249 -29 OFFCURVE"
);
}
);
width = 938;
}
);
unicode = 20AC;
},
{
color = (153,255,187,1);
glyphname = currency;
lastChange = "2015-11-23 15:56:40 +0000";
layers = (
{
layerId = "3138562F-70A2-47D8-8787-D90195410BEE";
name = Regular;
paths = (
{
closed = 1;
nodes = (
"914 788 CURVE SMOOTH",
"902 805 OFFCURVE",
"892 823 OFFCURVE",
"906 837 CURVE SMOOTH",
"978 910 OFFCURVE",
"1044 975 OFFCURVE",
"1044 975 CURVE SMOOTH",
"1051 984 OFFCURVE",
"1055 991 OFFCURVE",
"1055 997 CURVE SMOOTH",
"1055 1005 OFFCURVE",
"1051 1011 OFFCURVE",
"1046 1018 CURVE SMOOTH",
"978 1086 LINE SMOOTH",
"969 1095 OFFCURVE",
"962 1098 OFFCURVE",
"958 1098 CURVE SMOOTH",
"949 1098 OFFCURVE",
"944 1095 OFFCURVE",
"940 1088 CURVE SMOOTH",
"940 1088 OFFCURVE",
"883 1031 OFFCURVE",
"806 941 CURVE SMOOTH",
"791 927 OFFCURVE",
"779 937 OFFCURVE",
"759 946 CURVE SMOOTH",
"704 978 OFFCURVE",
"630 995 OFFCURVE",
"543 995 CURVE SMOOTH",
"460 995 OFFCURVE",
"383 971 OFFCURVE",
"329 934 CURVE SMOOTH",
"311 920 OFFCURVE",
"302 918 OFFCURVE",
"288 934 CURVE SMOOTH",
"208 1019 OFFCURVE",
"159 1077 OFFCURVE",
"159 1077 CURVE SMOOTH",
"153 1084 OFFCURVE",
"145 1088 OFFCURVE",
"141 1088 CURVE SMOOTH",
"132 1088 OFFCURVE",
"125 1084 OFFCURVE",
"118 1077 CURVE SMOOTH",
"53 1009 LINE SMOOTH",
"46 998 OFFCURVE",
"42 991 OFFCURVE",
"42 985 CURVE SMOOTH",
"42 978 OFFCURVE",
"46 971 OFFCURVE",
"49 964 CURVE SMOOTH",
"49 964 OFFCURVE",
"100 916 OFFCURVE",
"188 828 CURVE SMOOTH",
"202 816 OFFCURVE",
"200 801 OFFCURVE",
"188 785 CURVE SMOOTH",
"148 722 OFFCURVE",
"129 640 OFFCURVE",
"129 564 CURVE SMOOTH",
"129 473 OFFCURVE",
"150 390 OFFCURVE",
"177 337 CURVE SMOOTH",
"186 319 OFFCURVE",
"191 306 OFFCURVE",
"177 292 CURVE SMOOTH",
"82 195 OFFCURVE",
"23 142 OFFCURVE",
"23 142 CURVE SMOOTH",
"15 135 OFFCURVE",
"12 127 OFFCURVE",
"12 122 CURVE SMOOTH",
"12 113 OFFCURVE",
"15 109 OFFCURVE",
"23 101 CURVE SMOOTH",
"91 31 LINE SMOOTH",
"95 25 OFFCURVE",
"100 22 OFFCURVE",
"109 22 CURVE SMOOTH",
"114 22 OFFCURVE",
"121 25 OFFCURVE",
"131 34 CURVE SMOOTH",
"131 34 OFFCURVE",
"188 88 OFFCURVE",
"277 188 CURVE SMOOTH",
"290 202 OFFCURVE",
"302 197 OFFCURVE",
"319 188 CURVE SMOOTH",
"376 156 OFFCURVE",
"456 140 OFFCURVE",
"528 140 CURVE SMOOTH",
"616 140 OFFCURVE",
"697 163 OFFCURVE",
"752 200 CURVE SMOOTH",
"767 212 OFFCURVE",
"779 217 OFFCURVE",
"793 200 CURVE SMOOTH",
"878 113 OFFCURVE",
"933 53 OFFCURVE",
"933 53 CURVE SMOOTH",
"940 43 OFFCURVE",
"947 41 OFFCURVE",
"953 41 CURVE SMOOTH",
"960 41 OFFCURVE",
"969 46 OFFCURVE",
"974 53 CURVE SMOOTH",
"1042 120 LINE SMOOTH",
"1051 127 OFFCURVE",
"1053 137 OFFCURVE",
"1053 144 CURVE SMOOTH",
"1053 151 OFFCURVE",
"1049 156 OFFCURVE",
"1042 163 CURVE SMOOTH",
"1042 163 OFFCURVE",
"993 214 OFFCURVE",
"902 301 CURVE SMOOTH",
"888 315 OFFCURVE",
"890 328 OFFCURVE",
"902 346 CURVE SMOOTH",
"921 369 OFFCURVE",
"930 395 OFFCURVE",
"938 416 CURVE SMOOTH",
"955 460 OFFCURVE",
"965 515 OFFCURVE",
"965 566 CURVE SMOOTH",
"965 640 OFFCURVE",
"957 730 OFFCURVE"
);
},
{
closed = 1;
nodes = (
"598 306 CURVE SMOOTH",
"403 306 OFFCURVE",
"290 382 OFFCURVE",
"290 581 CURVE SMOOTH",
"290 655 OFFCURVE",
"293 677 OFFCURVE",
"302 710 CURVE SMOOTH",
"321 773 OFFCURVE",
"374 826 OFFCURVE",
"485 826 CURVE SMOOTH",
"740 826 OFFCURVE",
"804 672 OFFCURVE",
"804 518 CURVE SMOOTH",
"804 317 OFFCURVE",
"682 306 OFFCURVE"
);
}
);
width = 1067;
}
);
unicode = 00A4;
userData = {
com.typemytype.robofont.mark = (
0.6,
1,
0.732,
1
);
};
},
{
glyphname = dollar;
lastChange = "2015-11-23 15:56:40 +0000";
layers = (
{
layerId = "3138562F-70A2-47D8-8787-D90195410BEE";
name = Regular;
paths = (
{
closed = 1;
nodes = (
"157 228 CURVE SMOOTH",
"132 200 OFFCURVE",
"75 102 OFFCURVE",
"49 65 CURVE SMOOTH",
"46 58 OFFCURVE",
"41 50 OFFCURVE",
"41 43 CURVE SMOOTH",
"41 36 OFFCURVE",
"44 31 OFFCURVE",
"53 25 CURVE SMOOTH",
"121 -12 OFFCURVE",
"297 -36 OFFCURVE",
"374 -36 CURVE SMOOTH",
"392 -36 OFFCURVE",
"394 -41 OFFCURVE",
"394 -58 CURVE SMOOTH",
"394 -154 OFFCURVE",
"388 -253 OFFCURVE",
"388 -347 CURVE SMOOTH",
"388 -357 OFFCURVE",
"391 -371 OFFCURVE",
"403 -371 CURVE SMOOTH",
"408 -371 OFFCURVE",
"413 -369 OFFCURVE",
"419 -364 CURVE SMOOTH",
"433 -346 OFFCURVE",
"473 -296 OFFCURVE",
"483 -270 CURVE SMOOTH",
"490 -256 OFFCURVE",
"492 -249 OFFCURVE",
"492 -226 CURVE SMOOTH",
"492 -158 OFFCURVE",
"483 -101 OFFCURVE",
"483 -34 CURVE SMOOTH",
"483 -24 OFFCURVE",
"487 -24 OFFCURVE",
"499 -18 CURVE SMOOTH",
"693 79 OFFCURVE",
"829 287 OFFCURVE",
"829 395 CURVE SMOOTH",
"829 515 OFFCURVE",
"763 593 OFFCURVE",
"657 656 CURVE SMOOTH",
"596 692 OFFCURVE",
"535 724 OFFCURVE",
"489 751 CURVE SMOOTH",
"476 758 OFFCURVE",
"471 767 OFFCURVE",
"471 778 CURVE SMOOTH",
"471 1036 LINE SMOOTH",
"471 1045 OFFCURVE",
"480 1052 OFFCURVE",
"487 1052 CURVE SMOOTH",
"516 1052 OFFCURVE",
"580 1031 OFFCURVE",
"632 1012 CURVE SMOOTH",
"637 1011 OFFCURVE",
"644 1009 OFFCURVE",
"650 1009 CURVE SMOOTH",
"657 1009 OFFCURVE",
"666 1012 OFFCURVE",
"673 1019 CURVE SMOOTH",
"692 1038 OFFCURVE",
"754 1138 OFFCURVE",
"774 1172 CURVE SMOOTH",
"779 1181 OFFCURVE",
"781 1188 OFFCURVE",
"781 1192 CURVE SMOOTH",
"781 1197 OFFCURVE",
"777 1206 OFFCURVE",
"770 1209 CURVE SMOOTH",
"680 1242 OFFCURVE",
"593 1264 OFFCURVE",
"480 1264 CURVE SMOOTH",
"473 1264 OFFCURVE",
"471 1265 OFFCURVE",
"471 1269 CURVE SMOOTH",
"471 1305 OFFCURVE",
"469 1344 OFFCURVE",
"469 1371 CURVE SMOOTH",
"469 1392 OFFCURVE",
"468 1399 OFFCURVE",
"454 1399 CURVE SMOOTH",
"451 1399 OFFCURVE",
"449 1397 OFFCURVE",
"446 1394 CURVE SMOOTH",
"422 1369 OFFCURVE",
"405 1348 OFFCURVE",
"388 1327 CURVE SMOOTH",
"379 1315 OFFCURVE",
"379 1303 OFFCURVE",
"379 1292 CURVE SMOOTH",
"379 1257 LINE SMOOTH",
"379 1245 OFFCURVE",
"374 1242 OFFCURVE",
"363 1238 CURVE SMOOTH",
"242 1195 OFFCURVE",
"186 1140 OFFCURVE",
"132 1067 CURVE SMOOTH",
"80 997 OFFCURVE",
"61 928 OFFCURVE",
"61 855 CURVE SMOOTH",
"61 769 OFFCURVE",
"85 704 OFFCURVE",
"136 665 CURVE SMOOTH",
"195 619 OFFCURVE",
"345 530 OFFCURVE",
"388 511 CURVE SMOOTH",
"396 508 OFFCURVE",
"399 501 OFFCURVE",
"399 494 CURVE SMOOTH",
"399 197 LINE SMOOTH",
"399 181 OFFCURVE",
"392 178 OFFCURVE",
"384 178 CURVE SMOOTH",
"338 178 OFFCURVE",
"244 214 OFFCURVE",
"195 229 CURVE SMOOTH",
"184 233 OFFCURVE",
"177 235 OFFCURVE",
"170 235 CURVE SMOOTH",
"167 235 OFFCURVE",
"160 231 OFFCURVE"
);
},
{
closed = 1;
nodes = (
"386 799 CURVE",
"384 799 OFFCURVE",
"370 807 OFFCURVE",
"369 807 CURVE SMOOTH",
"309 841 OFFCURVE",
"251 872 OFFCURVE",
"251 941 CURVE SMOOTH",
"251 1009 OFFCURVE",
"299 1055 OFFCURVE",
"372 1055 CURVE SMOOTH",
"381 1055 OFFCURVE",
"384 1050 OFFCURVE",
"384 1038 CURVE SMOOTH",
"384 991 OFFCURVE",
"392 843 OFFCURVE",
"392 810 CURVE SMOOTH",
"392 810 OFFCURVE",
"392 799 OFFCURVE"
);
},
{
closed = 1;
nodes = (
"494 179 CURVE SMOOTH",
"487 179 OFFCURVE",
"483 183 OFFCURVE",
"483 193 CURVE SMOOTH",
"483 229 OFFCURVE",
"476 419 OFFCURVE",
"476 460 CURVE SMOOTH",
"476 466 OFFCURVE",
"482 468 OFFCURVE",
"483 468 CURVE",
"512 455 OFFCURVE",
"559 423 OFFCURVE",
"580 407 CURVE SMOOTH",
"601 389 OFFCURVE",
"630 351 OFFCURVE",
"630 305 CURVE SMOOTH",
"630 267 OFFCURVE",
"615 229 OFFCURVE",
"593 210 CURVE SMOOTH",
"567 188 OFFCURVE",
"516 179 OFFCURVE"
);
}
);
width = 936;
}
);
unicode = 0024;
},
{
glyphname = sheqelhebrew;
lastChange = "2015-11-23 15:56:40 +0000";
layers = (
{
layerId = "3138562F-70A2-47D8-8787-D90195410BEE";
name = Regular;
paths = (
{
closed = 1;
nodes = (
"170 -29 CURVE SMOOTH",
"170 -38 OFFCURVE",
"175 -45 OFFCURVE",
"184 -45 CURVE SMOOTH",
"198 -45 OFFCURVE",
"211 -34 OFFCURVE",
"222 -18 CURVE SMOOTH",
"244 14 OFFCURVE",
"279 75 OFFCURVE",
"300 115 CURVE SMOOTH",
"329 169 OFFCURVE",
"329 200 OFFCURVE",
"329 258 CURVE SMOOTH",
"329 472 OFFCURVE",
"313 634 OFFCURVE",
"313 722 CURVE SMOOTH",
"313 746 OFFCURVE",
"324 763 OFFCURVE",
"350 763 CURVE SMOOTH",
"661 763 LINE SMOOTH",
"786 763 OFFCURVE",
"810 713 OFFCURVE",
"810 655 CURVE SMOOTH",
"810 568 OFFCURVE",
"769 496 OFFCURVE",
"706 453 CURVE SMOOTH",
"697 448 OFFCURVE",
"682 446 OFFCURVE",
"677 446 CURVE SMOOTH",
"670 446 OFFCURVE",
"664 457 OFFCURVE",
"659 477 CURVE SMOOTH",
"637 554 OFFCURVE",
"625 617 OFFCURVE",
"607 663 CURVE SMOOTH",
"600 681 OFFCURVE",
"589 694 OFFCURVE",
"577 694 CURVE SMOOTH",
"567 694 OFFCURVE",
"560 686 OFFCURVE",
"548 676 CURVE SMOOTH",
"501 634 OFFCURVE",
"433 534 OFFCURVE",
"433 534 CURVE SMOOTH",
"432 530 OFFCURVE",
"430 525 OFFCURVE",
"430 520 CURVE SMOOTH",
"430 511 OFFCURVE",
"437 493 OFFCURVE",
"446 472 CURVE SMOOTH",
"509 321 OFFCURVE",
"546 159 OFFCURVE",
"598 60 CURVE SMOOTH",
"627 4 OFFCURVE",
"673 -32 OFFCURVE",
"736 -32 CURVE SMOOTH",
"847 -32 OFFCURVE",
"996 31 OFFCURVE",
"1073 86 CURVE SMOOTH",
"1132 129 OFFCURVE",
"1220 238 OFFCURVE",
"1252 305 CURVE SMOOTH",
"1294 390 OFFCURVE",
"1379 575 OFFCURVE",
"1379 758 CURVE SMOOTH",
"1379 831 OFFCURVE",
"1352 989 OFFCURVE",
"1326 1057 CURVE SMOOTH",
"1316 1081 OFFCURVE",
"1306 1088 OFFCURVE",
"1295 1088 CURVE SMOOTH",
"1288 1088 OFFCURVE",
"1277 1081 OFFCURVE",
"1263 1065 CURVE SMOOTH",
"1225 1023 OFFCURVE",
"1162 949 OFFCURVE",
"1145 927 CURVE SMOOTH",
"1132 910 OFFCURVE",
"1125 903 OFFCURVE",
"1125 887 CURVE SMOOTH",
"1125 876 OFFCURVE",
"1130 864 OFFCURVE",
"1140 838 CURVE SMOOTH",
"1162 776 OFFCURVE",
"1193 658 OFFCURVE",
"1193 556 CURVE SMOOTH",
"1193 337 OFFCURVE",
"940 190 OFFCURVE",
"804 190 CURVE SMOOTH",
"770 190 OFFCURVE",
"736 215 OFFCURVE",
"725 240 CURVE SMOOTH",
"713 272 OFFCURVE",
"702 301 OFFCURVE",
"702 315 CURVE SMOOTH",
"702 326 OFFCURVE",
"706 330 OFFCURVE",
"716 337 CURVE SMOOTH",
"784 378 OFFCURVE",
"853 431 OFFCURVE",
"933 534 CURVE SMOOTH",
"976 590 OFFCURVE",
"1001 679 OFFCURVE",
"1001 747 CURVE SMOOTH",
"1001 910 OFFCURVE",
"906 998 OFFCURVE",
"714 998 CURVE SMOOTH",
"377 998 LINE SMOOTH",
"342 998 OFFCURVE",
"313 1002 OFFCURVE",
"299 1054 CURVE SMOOTH",
"292 1079 OFFCURVE",
"285 1088 OFFCURVE",
"265 1088 CURVE SMOOTH",
"258 1088 OFFCURVE",
"245 1077 OFFCURVE",
"230 1059 CURVE SMOOTH",
"195 1014 OFFCURVE",
"129 918 OFFCURVE",
"105 880 CURVE SMOOTH",
"91 857 OFFCURVE",
"87 846 OFFCURVE",
"85 824 CURVE SMOOTH",
"85 821 OFFCURVE",
"91 795 OFFCURVE",
"93 788 CURVE SMOOTH",
"153 547 OFFCURVE",
"153 282 OFFCURVE"
);
}
);
width = 1499;
}
);
unicode = 20AA;
},
{
glyphname = sterling;
lastChange = "2015-11-23 15:56:40 +0000";
layers = (
{
layerId = "3138562F-70A2-47D8-8787-D90195410BEE";
name = Regular;
paths = (
{
closed = 1;
nodes = (
"804 1332 CURVE SMOOTH",
"752 1366 OFFCURVE",
"684 1396 OFFCURVE",
"591 1396 CURVE SMOOTH",
"505 1396 OFFCURVE",
"428 1364 OFFCURVE",
"360 1310 CURVE SMOOTH",
"281 1247 OFFCURVE",
"211 1166 OFFCURVE",
"177 1100 CURVE SMOOTH",
"155 1061 OFFCURVE",
"136 1016 OFFCURVE",
"136 954 CURVE SMOOTH",
"136 932 OFFCURVE",
"139 901 OFFCURVE",
"164 810 CURVE SMOOTH",
"164 809 OFFCURVE",
"168 799 OFFCURVE",
"168 794 CURVE SMOOTH",
"168 776 OFFCURVE",
"64 670 OFFCURVE",
"64 634 CURVE SMOOTH",
"64 624 OFFCURVE",
"71 619 OFFCURVE",
"82 619 CURVE",
"196 619 LINE",
"220 619 OFFCURVE",
"242 484 OFFCURVE",
"249 438 CURVE SMOOTH",
"254 405 OFFCURVE",
"258 375 OFFCURVE",
"258 353 CURVE SMOOTH",
"258 269 OFFCURVE",
"179 248 OFFCURVE",
"139 204 CURVE SMOOTH",
"93 154 OFFCURVE",
"48 32 OFFCURVE",
"48 27 CURVE SMOOTH",
"48 11 OFFCURVE",
"57 4 OFFCURVE",
"69 4 CURVE SMOOTH",
"109 4 OFFCURVE",
"172 12 OFFCURVE",
"215 12 CURVE SMOOTH",
"324 12 OFFCURVE",
"476 -29 OFFCURVE",
"589 -29 CURVE SMOOTH",
"697 -29 OFFCURVE",
"772 7 OFFCURVE",
"790 32 CURVE SMOOTH",
"827 84 OFFCURVE",
"878 163 OFFCURVE",
"911 231 CURVE SMOOTH",
"917 242 OFFCURVE",
"917 249 OFFCURVE",
"917 256 CURVE SMOOTH",
"917 263 OFFCURVE",
"914 267 OFFCURVE",
"904 267 CURVE SMOOTH",
"894 267 OFFCURVE",
"825 210 OFFCURVE",
"680 210 CURVE SMOOTH",
"630 210 OFFCURVE",
"392 244 OFFCURVE",
"392 246 CURVE SMOOTH",
"392 270 OFFCURVE",
"466 385 OFFCURVE",
"466 466 CURVE SMOOTH",
"466 511 OFFCURVE",
"440 607 OFFCURVE",
"440 611 CURVE SMOOTH",
"440 617 OFFCURVE",
"444 620 OFFCURVE",
"449 620 CURVE SMOOTH",
"571 626 LINE SMOOTH",
"607 627 OFFCURVE",
"641 640 OFFCURVE",
"670 663 CURVE SMOOTH",
"707 694 OFFCURVE",
"734 722 OFFCURVE",
"770 763 CURVE SMOOTH",
"776 771 OFFCURVE",
"783 781 OFFCURVE",
"783 788 CURVE SMOOTH",
"783 801 OFFCURVE",
"770 809 OFFCURVE",
"754 809 CURVE SMOOTH",
"410 809 LINE SMOOTH",
"408 809 OFFCURVE",
"398 809 OFFCURVE",
"396 817 CURVE SMOOTH",
"396 817 OFFCURVE",
"343 998 OFFCURVE",
"343 1067 CURVE SMOOTH",
"343 1134 OFFCURVE",
"386 1187 OFFCURVE",
"461 1187 CURVE SMOOTH",
"519 1187 OFFCURVE",
"571 1170 OFFCURVE",
"661 1125 CURVE SMOOTH",
"671 1120 OFFCURVE",
"680 1118 OFFCURVE",
"687 1118 CURVE SMOOTH",
"697 1118 OFFCURVE",
"704 1124 OFFCURVE",
"714 1138 CURVE SMOOTH",
"748 1185 OFFCURVE",
"803 1264 OFFCURVE",
"810 1276 CURVE SMOOTH",
"817 1289 OFFCURVE",
"818 1298 OFFCURVE",
"818 1305 CURVE SMOOTH",
"818 1313 OFFCURVE",
"817 1322 OFFCURVE"
);
}
);
width = 938;
}
);
unicode = 00A3;
},
{
glyphname = divide;
lastChange = "2015-11-23 15:56:40 +0000";
layers = (
{
components = (
{
name = minus;
}
);
layerId = "3138562F-70A2-47D8-8787-D90195410BEE";
name = Regular;
paths = (
{
closed = 1;
nodes = (
"550 835 CURVE SMOOTH",
"550 884 OFFCURVE",
"509 923 OFFCURVE",
"461 923 CURVE SMOOTH",
"412 923 OFFCURVE",
"372 884 OFFCURVE",
"372 835 CURVE SMOOTH",
"372 788 OFFCURVE",
"412 749 OFFCURVE",
"461 749 CURVE SMOOTH",
"509 749 OFFCURVE",
"550 788 OFFCURVE"
);
},
{
closed = 1;
nodes = (
"548 298 CURVE SMOOTH",
"548 346 OFFCURVE",
"507 385 OFFCURVE",
"460 385 CURVE SMOOTH",
"410 385 OFFCURVE",
"370 346 OFFCURVE",
"370 298 CURVE SMOOTH",
"370 251 OFFCURVE",
"410 212 OFFCURVE",
"460 212 CURVE SMOOTH",
"507 212 OFFCURVE",
"548 251 OFFCURVE"
);
}
);
width = 895;
}
);
unicode = 00F7;
},
{
glyphname = equal;
lastChange = "2015-11-23 17:34:49 +0000";
layers = (
{
layerId = "3138562F-70A2-47D8-8787-D90195410BEE";
name = Regular;
paths = (
{
closed = 1;
nodes = (
"97 843 CURVE",
"73 843 OFFCURVE",
"68 831 OFFCURVE",
"68 814 CURVE SMOOTH",
"68 722 LINE SMOOTH",
"68 706 OFFCURVE",
"73 696 OFFCURVE",
"97 696 CURVE SMOOTH",
"97 696 OFFCURVE",
"392 701 OFFCURVE",
"490 701 CURVE SMOOTH",
"573 701 OFFCURVE",
"820 696 OFFCURVE",
"820 696 CURVE",
"844 696 OFFCURVE",
"849 706 OFFCURVE",
"849 722 CURVE SMOOTH",
"849 814 LINE SMOOTH",
"849 838 OFFCURVE",
"840 843 OFFCURVE",
"824 843 CURVE SMOOTH",
"824 843 OFFCURVE",
"589 837 OFFCURVE",
"487 837 CURVE SMOOTH",
"370 837 OFFCURVE",
"97 843 OFFCURVE"
);
},
{
closed = 1;
nodes = (
"97 453 CURVE",
"73 453 OFFCURVE",
"68 443 OFFCURVE",
"68 424 CURVE SMOOTH",
"68 333 LINE SMOOTH",
"68 317 OFFCURVE",
"73 306 OFFCURVE",
"97 306 CURVE SMOOTH",
"97 306 OFFCURVE",
"392 312 OFFCURVE",
"490 312 CURVE SMOOTH",
"573 312 OFFCURVE",
"820 306 OFFCURVE",
"820 306 CURVE",
"844 306 OFFCURVE",
"849 317 OFFCURVE",
"849 333 CURVE SMOOTH",
"849 424 LINE SMOOTH",
"849 450 OFFCURVE",
"834 453 OFFCURVE",
"824 453 CURVE SMOOTH",
"824 453 OFFCURVE",
"589 448 OFFCURVE",
"487 448 CURVE SMOOTH",
"370 448 OFFCURVE",
"97 453 OFFCURVE"
);
}
);
width = 895;
}
);
unicode = 003D;
},
{
glyphname = greater;
lastChange = "2015-11-23 15:56:40 +0000";
layers = (
{
layerId = "3138562F-70A2-47D8-8787-D90195410BEE";
name = Regular;
paths = (
{
closed = 1;
nodes = (
"461 330 CURVE SMOOTH",
"372 285 OFFCURVE",
"167 172 OFFCURVE",
"167 172 CURVE",
"159 169 OFFCURVE",
"148 165 OFFCURVE",
"143 165 CURVE SMOOTH",
"134 165 OFFCURVE",
"132 166 OFFCURVE",
"125 181 CURVE SMOOTH",
"85 263 LINE SMOOTH",
"82 270 OFFCURVE",
"78 277 OFFCURVE",
"78 284 CURVE SMOOTH",
"78 291 OFFCURVE",
"82 298 OFFCURVE",
"97 305 CURVE SMOOTH",
"162 335 OFFCURVE",
"295 400 OFFCURVE",
"430 468 CURVE SMOOTH",
"503 506 OFFCURVE",
"577 543 OFFCURVE",
"641 579 CURVE",
"394 708 LINE SMOOTH",
"321 746 OFFCURVE",
"97 853 OFFCURVE",
"97 853 CURVE",
"83 860 OFFCURVE",
"78 865 OFFCURVE",
"78 874 CURVE SMOOTH",
"78 882 OFFCURVE",
"80 887 OFFCURVE",
"85 898 CURVE",
"132 977 LINE",
"139 987 OFFCURVE",
"146 991 OFFCURVE",
"148 991 CURVE SMOOTH",
"153 991 OFFCURVE",
"160 989 OFFCURVE",
"167 985 CURVE SMOOTH",
"263 932 OFFCURVE",
"584 767 OFFCURVE",
"811 655 CURVE SMOOTH",
"829 645 OFFCURVE",
"839 643 OFFCURVE",
"839 624 CURVE SMOOTH",
"839 537 LINE SMOOTH",
"839 516 OFFCURVE",
"829 511 OFFCURVE",
"815 503 CURVE SMOOTH",
"648 419 OFFCURVE",
"516 357 OFFCURVE"
);
}
);
width = 895;
}
);
unicode = 003E;
},
{
glyphname = greaterequal;
lastChange = "2015-11-23 15:56:40 +0000";
layers = (
{
layerId = "3138562F-70A2-47D8-8787-D90195410BEE";
name = Regular;
paths = (
{
closed = 1;
nodes = (
"801 151 CURVE",
"818 151 OFFCURVE",
"827 144 OFFCURVE",
"827 122 CURVE SMOOTH",
"827 31 LINE SMOOTH",
"827 14 OFFCURVE",
"822 4 OFFCURVE",
"798 4 CURVE SMOOTH",
"798 4 OFFCURVE",
"543 9 OFFCURVE",
"453 9 CURVE SMOOTH",
"362 9 OFFCURVE",
"105 4 OFFCURVE",
"105 4 CURVE",
"82 4 OFFCURVE",
"76 14 OFFCURVE",
"76 31 CURVE SMOOTH",
"76 122 LINE SMOOTH",
"76 144 OFFCURVE",
"87 151 OFFCURVE",
"104 151 CURVE SMOOTH",
"104 151 OFFCURVE",
"343 145 OFFCURVE",
"453 145 CURVE SMOOTH",
"562 145 OFFCURVE",
"801 151 OFFCURVE"
);
},
{
closed = 1;
nodes = (
"817 529 CURVE SMOOTH",
"755 503 OFFCURVE",
"607 436 OFFCURVE",
"466 369 CURVE SMOOTH",
"338 310 OFFCURVE",
"215 251 OFFCURVE",
"164 224 CURVE SMOOTH",
"159 222 OFFCURVE",
"152 221 OFFCURVE",
"146 221 CURVE SMOOTH",
"139 221 OFFCURVE",
"132 224 OFFCURVE",
"125 236 CURVE SMOOTH",
"83 323 LINE SMOOTH",
"82 328 OFFCURVE",
"80 333 OFFCURVE",
"80 337 CURVE SMOOTH",
"80 346 OFFCURVE",
"83 353 OFFCURVE",
"98 359 CURVE SMOOTH",
"155 382 OFFCURVE",
"277 439 OFFCURVE",
"396 493 CURVE SMOOTH",
"487 534 OFFCURVE",
"564 571 OFFCURVE",
"641 607 CURVE",
"394 722 LINE SMOOTH",
"315 758 OFFCURVE",
"102 851 OFFCURVE",
"102 851 CURVE",
"85 860 OFFCURVE",
"80 865 OFFCURVE",
"80 876 CURVE",
"82 879 OFFCURVE",
"83 882 OFFCURVE",
"83 886 CURVE",
"123 971 LINE SMOOTH",
"131 987 OFFCURVE",
"139 991 OFFCURVE",
"146 991 CURVE SMOOTH",
"153 991 OFFCURVE",
"159 989 OFFCURVE",
"164 987 CURVE SMOOTH",
"476 835 LINE SMOOTH",
"586 781 OFFCURVE",
"740 720 OFFCURVE",
"817 688 CURVE SMOOTH",
"831 681 OFFCURVE",
"840 676 OFFCURVE",
"840 658 CURVE SMOOTH",
"840 563 LINE SMOOTH",
"840 543 OFFCURVE",
"832 536 OFFCURVE"
);
}
);
width = 895;
}
);
unicode = 2265;
},
{
glyphname = less;
lastChange = "2015-11-23 15:56:40 +0000";
layers = (
{
layerId = "3138562F-70A2-47D8-8787-D90195410BEE";
name = Regular;
paths = (
{
closed = 1;
nodes = (
"454 330 CURVE SMOOTH",
"545 285 OFFCURVE",
"750 172 OFFCURVE",
"750 172 CURVE",
"757 169 OFFCURVE",
"765 165 OFFCURVE",
"770 165 CURVE SMOOTH",
"781 165 OFFCURVE",
"784 171 OFFCURVE",
"791 185 CURVE SMOOTH",
"831 262 LINE SMOOTH",
"836 272 OFFCURVE",
"839 277 OFFCURVE",
"839 284 CURVE SMOOTH",
"839 291 OFFCURVE",
"834 298 OFFCURVE",
"820 305 CURVE SMOOTH",
"754 335 OFFCURVE",
"622 400 OFFCURVE",
"487 468 CURVE SMOOTH",
"413 506 OFFCURVE",
"340 543 OFFCURVE",
"275 579 CURVE",
"523 708 LINE SMOOTH",
"596 746 OFFCURVE",
"820 853 OFFCURVE",
"820 853 CURVE",
"832 860 OFFCURVE",
"839 865 OFFCURVE",
"839 874 CURVE SMOOTH",
"839 882 OFFCURVE",
"836 887 OFFCURVE",
"831 898 CURVE",
"784 977 LINE",
"777 987 OFFCURVE",
"770 991 OFFCURVE",
"769 991 CURVE SMOOTH",
"763 991 OFFCURVE",
"755 989 OFFCURVE",
"750 985 CURVE SMOOTH",
"654 932 OFFCURVE",
"333 767 OFFCURVE",
"105 655 CURVE SMOOTH",
"87 645 OFFCURVE",
"78 643 OFFCURVE",
"78 624 CURVE SMOOTH",
"78 537 LINE SMOOTH",
"78 516 OFFCURVE",
"87 511 OFFCURVE",
"102 503 CURVE SMOOTH",
"268 419 OFFCURVE",
"401 357 OFFCURVE"
);
}
);
width = 895;
}
);
unicode = 003C;
},
{
glyphname = lessequal;
lastChange = "2015-11-23 15:56:40 +0000";
layers = (
{
layerId = "3138562F-70A2-47D8-8787-D90195410BEE";
name = Regular;
paths = (
{
closed = 1;
nodes = (
"116 151 CURVE",
"98 151 OFFCURVE",
"89 144 OFFCURVE",
"89 122 CURVE SMOOTH",
"89 31 LINE SMOOTH",
"89 14 OFFCURVE",
"95 4 OFFCURVE",
"118 4 CURVE SMOOTH",
"118 4 OFFCURVE",
"374 9 OFFCURVE",
"463 9 CURVE SMOOTH",
"555 9 OFFCURVE",
"811 4 OFFCURVE",
"811 4 CURVE",
"834 4 OFFCURVE",
"840 14 OFFCURVE",
"840 31 CURVE SMOOTH",
"840 122 LINE SMOOTH",
"840 144 OFFCURVE",
"829 151 OFFCURVE",
"813 151 CURVE SMOOTH",
"813 151 OFFCURVE",
"573 145 OFFCURVE",
"463 145 CURVE SMOOTH",
"355 145 OFFCURVE",
"116 151 OFFCURVE"
);
},
{
closed = 1;
nodes = (
"100 529 CURVE SMOOTH",
"160 503 OFFCURVE",
"309 436 OFFCURVE",
"451 369 CURVE SMOOTH",
"579 310 OFFCURVE",
"702 251 OFFCURVE",
"752 224 CURVE SMOOTH",
"757 222 OFFCURVE",
"765 221 OFFCURVE",
"770 221 CURVE SMOOTH",
"777 221 OFFCURVE",
"784 224 OFFCURVE",
"791 236 CURVE SMOOTH",
"832 323 LINE SMOOTH",
"834 328 OFFCURVE",
"836 333 OFFCURVE",
"836 337 CURVE SMOOTH",
"836 346 OFFCURVE",
"832 353 OFFCURVE",
"818 359 CURVE SMOOTH",
"761 382 OFFCURVE",
"639 439 OFFCURVE",
"521 493 CURVE SMOOTH",
"430 534 OFFCURVE",
"353 571 OFFCURVE",
"275 607 CURVE",
"523 722 LINE SMOOTH",
"601 758 OFFCURVE",
"815 851 OFFCURVE",
"815 851 CURVE",
"831 860 OFFCURVE",
"836 865 OFFCURVE",
"836 876 CURVE",
"834 879 OFFCURVE",
"832 882 OFFCURVE",
"832 886 CURVE",
"793 971 LINE SMOOTH",
"786 987 OFFCURVE",
"777 991 OFFCURVE",
"770 991 CURVE SMOOTH",
"763 991 OFFCURVE",
"757 989 OFFCURVE",
"752 987 CURVE SMOOTH",
"440 835 LINE SMOOTH",
"331 781 OFFCURVE",
"177 720 OFFCURVE",
"100 688 CURVE SMOOTH",
"85 681 OFFCURVE",
"76 676 OFFCURVE",
"76 658 CURVE SMOOTH",
"76 563 LINE SMOOTH",
"76 543 OFFCURVE",
"83 536 OFFCURVE"
);
}
);
width = 895;
}
);
unicode = 2264;
},
{
color = (153,255,187,1);
glyphname = logicalnot;
lastChange = "2015-11-23 15:56:40 +0000";
layers = (
{
layerId = "3138562F-70A2-47D8-8787-D90195410BEE";
name = Regular;
paths = (
{
closed = 1;
nodes = (
"779 633 CURVE SMOOTH",
"650 634 OFFCURVE",
"97 640 OFFCURVE",
"97 640 CURVE",
"73 640 OFFCURVE",
"68 629 OFFCURVE",
"68 611 CURVE SMOOTH",
"68 520 LINE SMOOTH",
"68 503 OFFCURVE",
"73 493 OFFCURVE",
"97 493 CURVE SMOOTH",
"97 493 OFFCURVE",
"545 500 OFFCURVE",
"670 501 CURVE",
"668 371 OFFCURVE",
"664 199 OFFCURVE",
"664 199 CURVE",
"664 176 OFFCURVE",
"675 171 OFFCURVE",
"693 171 CURVE SMOOTH",
"784 171 LINE SMOOTH",
"801 171 OFFCURVE",
"811 176 OFFCURVE",
"811 199 CURVE SMOOTH",
"811 199 OFFCURVE",
"806 477 OFFCURVE",
"804 604 CURVE",
"804 629 OFFCURVE",
"795 633 OFFCURVE"
);
}
);
width = 895;
}
);
unicode = 00AC;
userData = {
com.typemytype.robofont.mark = (
0.6,
1,
0.732,
1
);
};
},
{
glyphname = minus;
lastChange = "2015-11-23 15:56:40 +0000";
layers = (
{
layerId = "3138562F-70A2-47D8-8787-D90195410BEE";
name = Regular;
paths = (
{
closed = 1;
nodes = (
"97 645 CURVE",
"73 645 OFFCURVE",
"68 634 OFFCURVE",
"68 617 CURVE SMOOTH",
"68 525 LINE SMOOTH",
"68 509 OFFCURVE",
"73 498 OFFCURVE",
"97 498 CURVE SMOOTH",
"97 498 OFFCURVE",
"392 503 OFFCURVE",
"490 503 CURVE SMOOTH",
"573 503 OFFCURVE",
"820 498 OFFCURVE",
"820 498 CURVE",
"844 498 OFFCURVE",
"849 509 OFFCURVE",
"849 525 CURVE SMOOTH",
"849 617 LINE SMOOTH",
"849 641 OFFCURVE",
"834 645 OFFCURVE",
"824 645 CURVE SMOOTH",
"825 645 OFFCURVE",
"594 640 OFFCURVE",
"487 640 CURVE SMOOTH",
"370 640 OFFCURVE",
"97 645 OFFCURVE"
);
}
);
width = 895;
}
);
unicode = 2212;
},
{
glyphname = multiply;
lastChange = "2015-11-23 15:56:40 +0000";
layers = (
{
layerId = "3138562F-70A2-47D8-8787-D90195410BEE";
name = Regular;
paths = (
{
closed = 1;
nodes = (
"71 279 CURVE",
"64 272 OFFCURVE",
"61 265 OFFCURVE",
"61 260 CURVE SMOOTH",
"61 253 OFFCURVE",
"64 248 OFFCURVE",
"71 240 CURVE SMOOTH",
"136 176 LINE SMOOTH",
"141 171 OFFCURVE",
"146 166 OFFCURVE",
"153 166 CURVE SMOOTH",
"159 166 OFFCURVE",
"167 171 OFFCURVE",
"175 178 CURVE",
"175 178 OFFCURVE",
"372 375 OFFCURVE",
"460 466 CURVE",
"539 383 OFFCURVE",
"738 185 OFFCURVE",
"738 185 CURVE",
"745 176 OFFCURVE",
"752 174 OFFCURVE",
"757 174 CURVE SMOOTH",
"765 174 OFFCURVE",
"772 178 OFFCURVE",
"779 185 CURVE SMOOTH",
"844 248 LINE SMOOTH",
"851 255 OFFCURVE",
"854 262 OFFCURVE",
"854 269 CURVE SMOOTH",
"854 274 OFFCURVE",
"851 279 OFFCURVE",
"844 287 CURVE",
"844 287 OFFCURVE",
"641 479 OFFCURVE",
"557 563 CURVE",
"627 631 OFFCURVE",
"832 835 OFFCURVE",
"832 835 CURVE",
"840 843 OFFCURVE",
"844 850 OFFCURVE",
"844 855 CURVE SMOOTH",
"844 862 OFFCURVE",
"840 867 OFFCURVE",
"834 874 CURVE SMOOTH",
"770 939 LINE SMOOTH",
"761 948 OFFCURVE",
"754 949 OFFCURVE",
"748 949 CURVE SMOOTH",
"741 949 OFFCURVE",
"736 946 OFFCURVE",
"733 941 CURVE",
"733 941 OFFCURVE",
"539 739 OFFCURVE",
"460 660 CURVE",
"381 740 OFFCURVE",
"193 937 OFFCURVE",
"193 937 CURVE",
"186 944 OFFCURVE",
"179 948 OFFCURVE",
"174 948 CURVE SMOOTH",
"167 948 OFFCURVE",
"159 944 OFFCURVE",
"152 937 CURVE SMOOTH",
"89 872 LINE",
"80 865 OFFCURVE",
"78 858 OFFCURVE",
"78 851 CURVE SMOOTH",
"78 846 OFFCURVE",
"82 838 OFFCURVE",
"87 833 CURVE",
"87 833 OFFCURVE",
"279 645 OFFCURVE",
"363 563 CURVE",
"272 473 OFFCURVE",
"71 279 OFFCURVE"
);
}
);
width = 895;
}
);
unicode = 00D7;
},
{
glyphname = percent;
lastChange = "2015-11-23 15:56:40 +0000";
layers = (
{
layerId = "3138562F-70A2-47D8-8787-D90195410BEE";
name = Regular;
paths = (
{
closed = 1;
nodes = (
"15 939 CURVE SMOOTH",
"15 758 OFFCURVE",
"102 650 OFFCURVE",
"227 650 CURVE SMOOTH",
"328 650 OFFCURVE",
"405 751 OFFCURVE",
"435 799 CURVE SMOOTH",
"468 851 OFFCURVE",
"501 941 OFFCURVE",
"501 1043 CURVE SMOOTH",
"501 1154 OFFCURVE",
"442 1303 OFFCURVE",
"315 1303 CURVE SMOOTH",
"220 1303 OFFCURVE",
"107 1180 OFFCURVE",
"62 1111 CURVE SMOOTH",
"46 1088 OFFCURVE",
"15 1034 OFFCURVE"
);
},
{
closed = 1;
nodes = (
"391 586 CURVE SMOOTH",
"251 349 OFFCURVE",
"136 151 OFFCURVE",
"75 36 CURVE SMOOTH",
"71 29 OFFCURVE",
"69 24 OFFCURVE",
"69 18 CURVE SMOOTH",
"69 5 OFFCURVE",
"73 0 OFFCURVE",
"85 0 CURVE SMOOTH",
"91 0 OFFCURVE",
"102 4 OFFCURVE",
"114 12 CURVE SMOOTH",
"134 27 OFFCURVE",
"168 43 OFFCURVE",
"193 67 CURVE SMOOTH",
"213 84 OFFCURVE",
"237 131 OFFCURVE",
"256 165 CURVE SMOOTH",
"317 282 OFFCURVE",
"460 539 OFFCURVE",
"510 624 CURVE SMOOTH",
"550 692 OFFCURVE",
"853 1208 OFFCURVE",
"870 1260 CURVE SMOOTH",
"874 1271 OFFCURVE",
"878 1278 OFFCURVE",
"878 1286 CURVE SMOOTH",
"878 1294 OFFCURVE",
"874 1299 OFFCURVE",
"867 1299 CURVE SMOOTH",
"860 1299 OFFCURVE",
"844 1296 OFFCURVE",
"827 1283 CURVE",
"759 1235 LINE",
"740 1221 OFFCURVE",
"721 1202 OFFCURVE",
"714 1187 CURVE SMOOTH",
"685 1120 OFFCURVE",
"546 848 OFFCURVE"
);
},
{
closed = 1;
nodes = (
"350 942 CURVE SMOOTH",
"350 857 OFFCURVE",
"324 819 OFFCURVE",
"265 819 CURVE SMOOTH",
"193 819 OFFCURVE",
"164 905 OFFCURVE",
"164 991 CURVE SMOOTH",
"164 1067 OFFCURVE",
"179 1142 OFFCURVE",
"232 1142 CURVE SMOOTH",
"306 1142 OFFCURVE",
"350 1082 OFFCURVE"
);
},
{
closed = 1;
nodes = (
"453 291 CURVE SMOOTH",
"453 91 OFFCURVE",
"546 -2 OFFCURVE",
"664 -2 CURVE SMOOTH",
"765 -2 OFFCURVE",
"842 97 OFFCURVE",
"872 147 CURVE SMOOTH",
"904 200 OFFCURVE",
"938 289 OFFCURVE",
"938 390 CURVE SMOOTH",
"938 503 OFFCURVE",
"874 648 OFFCURVE",
"752 648 CURVE SMOOTH",
"652 648 OFFCURVE",
"545 523 OFFCURVE",
"499 459 CURVE SMOOTH",
"483 436 OFFCURVE",
"453 380 OFFCURVE"
);
},
{
closed = 1;
nodes = (
"788 289 CURVE SMOOTH",
"788 202 OFFCURVE",
"761 165 OFFCURVE",
"702 165 CURVE SMOOTH",
"630 165 OFFCURVE",
"601 249 OFFCURVE",
"601 335 CURVE SMOOTH",
"601 414 OFFCURVE",
"616 489 OFFCURVE",
"668 489 CURVE SMOOTH",
"747 489 OFFCURVE",
"788 424 OFFCURVE"
);
}
);
width = 936;
}
);
unicode = 0025;
},
{
glyphname = plus;
lastChange = "2015-11-23 15:56:40 +0000";
layers = (
{
layerId = "3138562F-70A2-47D8-8787-D90195410BEE";
name = Regular;
paths = (
{
closed = 1;
nodes = (
"381 199 CURVE",
"381 176 OFFCURVE",
"392 171 OFFCURVE",
"410 171 CURVE SMOOTH",
"501 171 LINE SMOOTH",
"517 171 OFFCURVE",
"528 176 OFFCURVE",
"528 199 CURVE SMOOTH",
"528 199 OFFCURVE",
"524 371 OFFCURVE",
"523 498 CURVE",
"620 496 OFFCURVE",
"820 493 OFFCURVE",
"820 493 CURVE",
"844 493 OFFCURVE",
"849 503 OFFCURVE",
"849 520 CURVE SMOOTH",
"849 611 LINE SMOOTH",
"849 636 OFFCURVE",
"840 640 OFFCURVE",
"824 640 CURVE SMOOTH",
"824 640 OFFCURVE",
"634 634 OFFCURVE",
"523 634 CURVE",
"523 735 OFFCURVE",
"528 923 OFFCURVE",
"528 923 CURVE",
"528 946 OFFCURVE",
"517 951 OFFCURVE",
"501 951 CURVE SMOOTH",
"410 951 LINE SMOOTH",
"384 951 OFFCURVE",
"381 937 OFFCURVE",
"381 927 CURVE SMOOTH",
"381 927 OFFCURVE",
"384 747 OFFCURVE",
"386 634 CURVE",
"258 636 OFFCURVE",
"97 640 OFFCURVE",
"97 640 CURVE",
"73 640 OFFCURVE",
"68 629 OFFCURVE",
"68 611 CURVE SMOOTH",
"68 520 LINE SMOOTH",
"68 503 OFFCURVE",
"73 493 OFFCURVE",
"97 493 CURVE SMOOTH",
"97 493 OFFCURVE",
"261 496 OFFCURVE",
"386 498 CURVE",
"384 368 OFFCURVE",
"381 199 OFFCURVE"
);
}
);
width = 895;
}
);
unicode = 002B;
},
{
glyphname = plusminus;
lastChange = "2015-11-23 15:56:40 +0000";
layers = (
{
layerId = "3138562F-70A2-47D8-8787-D90195410BEE";
name = Regular;
paths = (
{
closed = 1;
nodes = (
"111 151 CURVE",
"87 151 OFFCURVE",
"82 140 OFFCURVE",
"82 122 CURVE SMOOTH",
"82 31 LINE SMOOTH",
"82 14 OFFCURVE",
"87 4 OFFCURVE",
"111 4 CURVE SMOOTH",
"111 4 OFFCURVE",
"362 9 OFFCURVE",
"460 9 CURVE SMOOTH",
"543 9 OFFCURVE",
"804 4 OFFCURVE",
"804 4 CURVE",
"827 4 OFFCURVE",
"832 14 OFFCURVE",
"832 31 CURVE SMOOTH",
"832 122 LINE SMOOTH",
"832 147 OFFCURVE",
"818 151 OFFCURVE",
"808 151 CURVE SMOOTH",
"808 151 OFFCURVE",
"559 145 OFFCURVE",
"456 145 CURVE SMOOTH",
"340 145 OFFCURVE",
"111 151 OFFCURVE"
);
},
{
closed = 1;
nodes = (
"383 248 CURVE",
"383 224 OFFCURVE",
"394 219 OFFCURVE",
"412 219 CURVE SMOOTH",
"503 219 LINE SMOOTH",
"519 219 OFFCURVE",
"530 224 OFFCURVE",
"530 248 CURVE SMOOTH",
"530 248 OFFCURVE",
"526 409 OFFCURVE",
"524 536 CURVE",
"622 534 OFFCURVE",
"804 530 OFFCURVE",
"804 530 CURVE",
"827 530 OFFCURVE",
"832 541 OFFCURVE",
"832 557 CURVE SMOOTH",
"832 648 LINE SMOOTH",
"832 674 OFFCURVE",
"824 677 OFFCURVE",
"808 677 CURVE SMOOTH",
"808 677 OFFCURVE",
"636 672 OFFCURVE",
"524 672 CURVE",
"524 773 OFFCURVE",
"530 949 OFFCURVE",
"530 949 CURVE",
"530 973 OFFCURVE",
"519 978 OFFCURVE",
"503 978 CURVE SMOOTH",
"412 978 LINE SMOOTH",
"386 978 OFFCURVE",
"383 964 OFFCURVE",
"383 954 CURVE SMOOTH",
"383 954 OFFCURVE",
"386 785 OFFCURVE",
"388 672 CURVE",
"259 674 OFFCURVE",
"111 677 OFFCURVE",
"111 677 CURVE",
"87 677 OFFCURVE",
"82 667 OFFCURVE",
"82 648 CURVE SMOOTH",
"82 557 LINE SMOOTH",
"82 541 OFFCURVE",
"87 530 OFFCURVE",
"111 530 CURVE SMOOTH",
"111 530 OFFCURVE",
"263 534 OFFCURVE",
"388 536 CURVE",
"386 405 OFFCURVE",
"383 248 OFFCURVE"
);
}
);
width = 895;
}
);
unicode = 00B1;
},
{
glyphname = radical;
lastChange = "2015-11-23 15:56:40 +0000";
layers = (
{
layerId = "3138562F-70A2-47D8-8787-D90195410BEE";
name = Regular;
paths = (
{
closed = 1;
nodes = (
"302 61 CURVE SMOOTH",
"347 93 OFFCURVE",
"388 140 OFFCURVE",
"419 202 CURVE SMOOTH",
"466 298 OFFCURVE",
"492 405 OFFCURVE",
"523 525 CURVE SMOOTH",
"526 539 OFFCURVE",
"528 556 OFFCURVE",
"541 556 CURVE SMOOTH",
"546 556 OFFCURVE",
"559 550 OFFCURVE",
"573 537 CURVE SMOOTH",
"729 402 OFFCURVE",
"931 207 OFFCURVE",
"1121 -31 CURVE SMOOTH",
"1128 -39 OFFCURVE",
"1133 -45 OFFCURVE",
"1141 -45 CURVE SMOOTH",
"1145 -45 OFFCURVE",
"1155 -34 OFFCURVE",
"1164 -18 CURVE SMOOTH",
"1188 24 OFFCURVE",
"1211 61 OFFCURVE",
"1236 123 CURVE SMOOTH",
"1243 142 OFFCURVE",
"1249 151 OFFCURVE",
"1249 156 CURVE SMOOTH",
"1249 161 OFFCURVE",
"1241 171 OFFCURVE",
"1232 183 CURVE SMOOTH",
"1196 233 OFFCURVE",
"1100 346 OFFCURVE",
"1010 436 CURVE SMOOTH",
"1007 439 OFFCURVE",
"1003 445 OFFCURVE",
"1003 450 CURVE SMOOTH",
"1003 452 OFFCURVE",
"1005 459 OFFCURVE",
"1010 468 CURVE SMOOTH",
"1094 592 OFFCURVE",
"1164 697 OFFCURVE",
"1164 851 CURVE SMOOTH",
"1164 918 OFFCURVE",
"1133 1009 OFFCURVE",
"1111 1055 CURVE SMOOTH",
"1102 1074 OFFCURVE",
"1091 1081 OFFCURVE",
"1082 1081 CURVE SMOOTH",
"1075 1081 OFFCURVE",
"1064 1072 OFFCURVE",
"1048 1054 CURVE SMOOTH",
"1010 1011 OFFCURVE",
"951 935 OFFCURVE",
"930 905 CURVE SMOOTH",
"917 887 OFFCURVE",
"911 884 OFFCURVE",
"911 872 CURVE SMOOTH",
"911 858 OFFCURVE",
"917 851 OFFCURVE",
"930 824 CURVE SMOOTH",
"949 781 OFFCURVE",
"958 733 OFFCURVE",
"958 686 CURVE SMOOTH",
"958 655 OFFCURVE",
"951 604 OFFCURVE",
"940 570 CURVE SMOOTH",
"935 550 OFFCURVE",
"928 536 OFFCURVE",
"921 536 CURVE SMOOTH",
"919 536 OFFCURVE",
"902 547 OFFCURVE",
"901 549 CURVE SMOOTH",
"738 711 OFFCURVE",
"521 880 OFFCURVE",
"391 989 CURVE SMOOTH",
"358 1016 OFFCURVE",
"349 1062 OFFCURVE",
"349 1144 CURVE SMOOTH",
"349 1219 OFFCURVE",
"338 1291 OFFCURVE",
"319 1337 CURVE SMOOTH",
"311 1355 OFFCURVE",
"302 1366 OFFCURVE",
"292 1366 CURVE SMOOTH",
"285 1366 OFFCURVE",
"270 1351 OFFCURVE",
"256 1334 CURVE SMOOTH",
"227 1298 OFFCURVE",
"184 1243 OFFCURVE",
"157 1206 CURVE SMOOTH",
"145 1188 OFFCURVE",
"138 1178 OFFCURVE",
"138 1172 CURVE SMOOTH",
"138 1158 OFFCURVE",
"150 1138 OFFCURVE",
"155 1117 CURVE SMOOTH",
"167 1079 OFFCURVE",
"177 1041 OFFCURVE",
"181 1002 CURVE SMOOTH",
"184 964 OFFCURVE",
"184 927 OFFCURVE",
"200 857 CURVE SMOOTH",
"242 683 OFFCURVE",
"374 710 OFFCURVE",
"374 571 CURVE SMOOTH",
"374 375 OFFCURVE",
"369 306 OFFCURVE",
"281 265 CURVE SMOOTH",
"254 253 OFFCURVE",
"230 244 OFFCURVE",
"182 224 CURVE SMOOTH",
"159 215 OFFCURVE",
"141 192 OFFCURVE",
"131 163 CURVE SMOOTH",
"116 125 OFFCURVE",
"76 18 OFFCURVE",
"76 -7 CURVE SMOOTH",
"76 -22 OFFCURVE",
"82 -29 OFFCURVE",
"93 -29 CURVE SMOOTH",
"141 -29 OFFCURVE",
"258 29 OFFCURVE"
);
}
);
width = 1286;
}
);
unicode = 221A;
},
{
glyphname = bar;
lastChange = "2015-11-23 15:56:40 +0000";
layers = (
{
layerId = "3138562F-70A2-47D8-8787-D90195410BEE";
name = Regular;
paths = (
{
closed = 1;
nodes = (
"87 -277 CURVE",
"87 -292 OFFCURVE",
"91 -308 OFFCURVE",
"112 -308 CURVE SMOOTH",
"179 -308 LINE SMOOTH",
"198 -308 OFFCURVE",
"206 -294 OFFCURVE",
"206 -279 CURVE SMOOTH",
"206 41 OFFCURVE",
"216 395 OFFCURVE",
"216 509 CURVE SMOOTH",
"216 656 OFFCURVE",
"206 1057 OFFCURVE",
"206 1291 CURVE SMOOTH",
"206 1305 OFFCURVE",
"198 1319 OFFCURVE",
"179 1319 CURVE SMOOTH",
"112 1319 LINE SMOOTH",
"91 1319 OFFCURVE",
"87 1303 OFFCURVE",
"87 1289 CURVE SMOOTH",
"87 1061 OFFCURVE",
"75 656 OFFCURVE",
"75 509 CURVE SMOOTH",
"75 395 OFFCURVE",
"82 -2 OFFCURVE"
);
}
);
width = 505;
}
);
},
{
glyphname = ampersand;
lastChange = "2015-11-23 15:56:40 +0000";
layers = (
{
layerId = "3138562F-70A2-47D8-8787-D90195410BEE";
name = Regular;
paths = (
{
closed = 1;
nodes = (
"446 622 CURVE",
"545 491 OFFCURVE",
"693 305 OFFCURVE",
"774 208 CURVE",
"750 188 OFFCURVE",
"690 156 OFFCURVE",
"605 156 CURVE SMOOTH",
"446 156 OFFCURVE",
"353 313 OFFCURVE",
"353 403 CURVE SMOOTH",
"353 520 OFFCURVE",
"410 599 OFFCURVE"
);
},
{
closed = 1;
nodes = (
"281 944 CURVE SMOOTH",
"281 876 OFFCURVE",
"300 814 OFFCURVE",
"363 732 CURVE",
"328 708 OFFCURVE",
"145 581 OFFCURVE",
"145 364 CURVE SMOOTH",
"145 102 OFFCURVE",
"342 -7 OFFCURVE",
"521 -7 CURVE SMOOTH",
"661 -7 OFFCURVE",
"761 58 OFFCURVE",
"846 115 CURVE",
"856 99 OFFCURVE",
"917 27 OFFCURVE",
"940 4 CURVE SMOOTH",
"942 2 OFFCURVE",
"957 -11 OFFCURVE",
"965 -11 CURVE SMOOTH",
"979 -11 OFFCURVE",
"1000 -2 OFFCURVE",
"1005 2 CURVE SMOOTH",
"1060 32 OFFCURVE",
"1082 52 OFFCURVE",
"1133 89 CURVE SMOOTH",
"1154 104 OFFCURVE",
"1162 111 OFFCURVE",
"1162 123 CURVE SMOOTH",
"1162 131 OFFCURVE",
"1145 144 OFFCURVE",
"1140 149 CURVE SMOOTH",
"1092 199 OFFCURVE",
"1070 219 OFFCURVE",
"1015 285 CURVE",
"1109 393 OFFCURVE",
"1154 523 OFFCURVE",
"1154 627 CURVE SMOOTH",
"1154 706 OFFCURVE",
"1143 767 OFFCURVE",
"1102 838 CURVE SMOOTH",
"1094 850 OFFCURVE",
"1091 851 OFFCURVE",
"1084 851 CURVE SMOOTH",
"1077 851 OFFCURVE",
"1068 843 OFFCURVE",
"1063 837 CURVE SMOOTH",
"1041 817 OFFCURVE",
"953 732 OFFCURVE",
"930 706 CURVE SMOOTH",
"923 699 OFFCURVE",
"916 684 OFFCURVE",
"916 679 CURVE SMOOTH",
"916 676 OFFCURVE",
"919 667 OFFCURVE",
"923 660 CURVE SMOOTH",
"942 619 OFFCURVE",
"976 545 OFFCURVE",
"976 489 CURVE SMOOTH",
"976 443 OFFCURVE",
"947 398 OFFCURVE",
"937 375 CURVE",
"829 500 OFFCURVE",
"769 597 OFFCURVE",
"627 769 CURVE",
"707 830 OFFCURVE",
"844 932 OFFCURVE",
"844 1065 CURVE SMOOTH",
"844 1185 OFFCURVE",
"769 1294 OFFCURVE",
"637 1294 CURVE SMOOTH",
"447 1294 OFFCURVE",
"281 1145 OFFCURVE"
);
},
{
closed = 1;
nodes = (
"541 1154 CURVE SMOOTH",
"594 1154 OFFCURVE",
"641 1110 OFFCURVE",
"641 1036 CURVE SMOOTH",
"641 970 OFFCURVE",
"593 900 OFFCURVE",
"552 872 CURVE",
"514 921 OFFCURVE",
"460 1031 OFFCURVE",
"460 1072 CURVE SMOOTH",
"460 1118 OFFCURVE",
"501 1154 OFFCURVE"
);
}
);
width = 1273;
}
);
unicode = 0026;
},
{
color = (153,255,187,1);
glyphname = paragraph;
lastChange = "2015-11-23 15:56:40 +0000";
layers = (
{
layerId = "3138562F-70A2-47D8-8787-D90195410BEE";
name = Regular;
paths = (
{
closed = 1;
nodes = (
"468 468 CURVE",
"468 448 OFFCURVE",
"456 443 OFFCURVE",
"449 443 CURVE",
"437 443 OFFCURVE",
"412 445 OFFCURVE",
"398 446 CURVE",
"292 460 OFFCURVE",
"232 523 OFFCURVE",
"232 611 CURVE",
"232 697 OFFCURVE",
"281 758 OFFCURVE",
"396 758 CURVE",
"439 758 OFFCURVE",
"453 742 OFFCURVE",
"454 708 CURVE",
"458 662 OFFCURVE",
"468 518 OFFCURVE"
);
},
{
closed = 1;
nodes = (
"629 754 CURVE",
"663 754 OFFCURVE",
"680 742 OFFCURVE",
"680 713 CURVE",
"687 564 OFFCURVE",
"702 25 OFFCURVE",
"706 -84 CURVE",
"706 -99 OFFCURVE",
"713 -108 OFFCURVE",
"723 -108 CURVE",
"731 -108 OFFCURVE",
"741 -102 OFFCURVE",
"754 -88 CURVE",
"770 -67 OFFCURVE",
"793 -31 OFFCURVE",
"806 -2 CURVE",
"817 24 OFFCURVE",
"818 48 OFFCURVE",
"818 77 CURVE",
"818 207 OFFCURVE",
"806 475 OFFCURVE",
"806 692 CURVE",
"806 737 OFFCURVE",
"813 756 OFFCURVE",
"854 756 CURVE",
"897 756 OFFCURVE",
"916 771 OFFCURVE",
"933 801 CURVE",
"949 830 OFFCURVE",
"964 869 OFFCURVE",
"979 908 CURVE",
"989 930 OFFCURVE",
"993 951 OFFCURVE",
"993 961 CURVE",
"993 984 OFFCURVE",
"979 989 OFFCURVE",
"951 989 CURVE",
"424 989 LINE SMOOTH",
"141 989 OFFCURVE",
"42 833 OFFCURVE",
"42 684 CURVE",
"42 611 OFFCURVE",
"62 532 OFFCURVE",
"109 473 CURVE",
"198 359 OFFCURVE",
"362 328 OFFCURVE",
"453 319 CURVE",
"466 317 OFFCURVE",
"473 310 OFFCURVE",
"473 299 CURVE",
"480 147 OFFCURVE",
"482 25 OFFCURVE",
"485 -88 CURVE",
"485 -102 OFFCURVE",
"490 -111 OFFCURVE",
"503 -111 CURVE",
"514 -111 OFFCURVE",
"523 -104 OFFCURVE",
"535 -89 CURVE",
"555 -67 OFFCURVE",
"573 -34 OFFCURVE",
"586 -5 CURVE",
"600 27 OFFCURVE",
"601 50 OFFCURVE",
"601 86 CURVE",
"601 229 OFFCURVE",
"589 577 OFFCURVE",
"584 708 CURVE",
"582 746 OFFCURVE",
"596 754 OFFCURVE"
);
}
);
width = 988;
}
);
unicode = 00B6;
userData = {
com.typemytype.robofont.mark = (
0.6,
1,
0.732,
1
);
};
},
{
color = (153,255,187,1);
glyphname = section;
lastChange = "2015-11-23 15:56:40 +0000";
layers = (
{
layerId = "3138562F-70A2-47D8-8787-D90195410BEE";
name = Regular;
paths = (
{
closed = 1;
nodes = (
"93 82 CURVE SMOOTH",
"136 50 OFFCURVE",
"251 -5 OFFCURVE",
"347 0 CURVE SMOOTH",
"463 7 OFFCURVE",
"610 166 OFFCURVE",
"607 260 CURVE SMOOTH",
"603 351 OFFCURVE",
"537 371 OFFCURVE",
"537 387 CURVE SMOOTH",
"537 396 OFFCURVE",
"569 419 OFFCURVE",
"594 452 CURVE SMOOTH",
"618 484 OFFCURVE",
"656 547 OFFCURVE",
"656 600 CURVE SMOOTH",
"656 722 OFFCURVE",
"560 807 OFFCURVE",
"353 920 CURVE SMOOTH",
"223 991 OFFCURVE",
"211 1034 OFFCURVE",
"211 1072 CURVE SMOOTH",
"211 1098 OFFCURVE",
"239 1129 OFFCURVE",
"270 1129 CURVE SMOOTH",
"336 1129 OFFCURVE",
"417 1067 OFFCURVE",
"469 1018 CURVE SMOOTH",
"489 998 OFFCURVE",
"496 1000 OFFCURVE",
"510 1000 CURVE SMOOTH",
"523 1000 OFFCURVE",
"571 1065 OFFCURVE",
"586 1093 CURVE SMOOTH",
"600 1122 OFFCURVE",
"593 1154 OFFCURVE",
"553 1175 CURVE SMOOTH",
"505 1201 OFFCURVE",
"444 1240 OFFCURVE",
"328 1240 CURVE SMOOTH",
"179 1240 OFFCURVE",
"76 1124 OFFCURVE",
"76 1002 CURVE SMOOTH",
"76 910 OFFCURVE",
"155 880 OFFCURVE",
"155 862 CURVE SMOOTH",
"155 855 OFFCURVE",
"126 833 OFFCURVE",
"107 809 CURVE SMOOTH",
"80 774 OFFCURVE",
"49 718 OFFCURVE",
"49 665 CURVE SMOOTH",
"49 543 OFFCURVE",
"160 457 OFFCURVE",
"353 337 CURVE SMOOTH",
"469 267 OFFCURVE",
"476 242 OFFCURVE",
"476 202 CURVE SMOOTH",
"476 181 OFFCURVE",
"444 127 OFFCURVE",
"412 127 CURVE SMOOTH",
"342 127 OFFCURVE",
"244 186 OFFCURVE",
"189 233 CURVE SMOOTH",
"168 251 OFFCURVE",
"162 249 OFFCURVE",
"148 249 CURVE SMOOTH",
"136 249 OFFCURVE",
"85 179 OFFCURVE",
"71 149 CURVE SMOOTH",
"57 120 OFFCURVE",
"59 109 OFFCURVE"
);
},
{
closed = 1;
nodes = (
"216 816 CURVE",
"234 816 OFFCURVE",
"254 795 OFFCURVE",
"283 778 CURVE SMOOTH",
"372 720 OFFCURVE",
"519 643 OFFCURVE",
"519 549 CURVE SMOOTH",
"519 501 OFFCURVE",
"496 450 OFFCURVE",
"483 450 CURVE SMOOTH",
"469 450 OFFCURVE",
"454 466 OFFCURVE",
"430 484 CURVE SMOOTH",
"360 529 OFFCURVE",
"179 636 OFFCURVE",
"179 724 CURVE SMOOTH",
"179 776 OFFCURVE",
"204 816 OFFCURVE"
);
}
);
width = 705;
}
);
unicode = 00A7;
userData = {
com.typemytype.robofont.mark = (
0.6,
1,
0.732,
1
);
};
},
{
color = (153,255,187,1);
glyphname = degree;
lastChange = "2015-11-23 15:56:40 +0000";
layers = (
{
layerId = "3138562F-70A2-47D8-8787-D90195410BEE";
name = Regular;
paths = (
{
closed = 1;
nodes = (
"41 1031 CURVE SMOOTH",
"41 867 OFFCURVE",
"146 790 OFFCURVE",
"285 790 CURVE SMOOTH",
"422 790 OFFCURVE",
"509 886 OFFCURVE",
"535 948 CURVE SMOOTH",
"546 970 OFFCURVE",
"553 1002 OFFCURVE",
"553 1031 CURVE SMOOTH",
"553 1140 OFFCURVE",
"490 1272 OFFCURVE",
"292 1272 CURVE SMOOTH",
"136 1272 OFFCURVE",
"41 1147 OFFCURVE"
);
},
{
closed = 1;
nodes = (
"321 916 CURVE SMOOTH",
"225 916 OFFCURVE",
"170 949 OFFCURVE",
"170 1038 CURVE SMOOTH",
"170 1068 OFFCURVE",
"172 1077 OFFCURVE",
"175 1089 CURVE SMOOTH",
"184 1120 OFFCURVE",
"215 1142 OFFCURVE",
"265 1142 CURVE SMOOTH",
"388 1142 OFFCURVE",
"417 1075 OFFCURVE",
"417 1011 CURVE SMOOTH",
"417 923 OFFCURVE",
"360 916 OFFCURVE"
);
}
);
width = 594;
}
);
unicode = 00B0;
userData = {
com.typemytype.robofont.mark = (
0.6,
1,
0.732,
1
);
};
},
{
glyphname = asciicircum;
lastChange = "2015-11-23 15:56:40 +0000";
layers = (
{
layerId = "3138562F-70A2-47D8-8787-D90195410BEE";
name = Regular;
paths = (
{
closed = 1;
nodes = (
"535 1229 CURVE SMOOTH",
"526 1245 OFFCURVE",
"521 1253 OFFCURVE",
"505 1253 CURVE SMOOTH",
"419 1253 LINE SMOOTH",
"398 1253 OFFCURVE",
"391 1243 OFFCURVE",
"383 1229 CURVE SMOOTH",
"309 1081 OFFCURVE",
"109 669 OFFCURVE",
"42 568 CURVE SMOOTH",
"39 563 OFFCURVE",
"37 554 OFFCURVE",
"37 549 CURVE SMOOTH",
"37 541 OFFCURVE",
"41 534 OFFCURVE",
"51 529 CURVE SMOOTH",
"139 484 LINE SMOOTH",
"145 480 OFFCURVE",
"148 479 OFFCURVE",
"153 479 CURVE SMOOTH",
"160 479 OFFCURVE",
"170 486 OFFCURVE",
"177 496 CURVE",
"177 496 OFFCURVE",
"277 711 OFFCURVE",
"324 799 CURVE",
"458 1055 LINE",
"584 816 LINE SMOOTH",
"623 739 OFFCURVE",
"727 523 OFFCURVE",
"740 498 CURVE SMOOTH",
"745 486 OFFCURVE",
"750 475 OFFCURVE",
"765 475 CURVE SMOOTH",
"770 475 OFFCURVE",
"776 479 OFFCURVE",
"781 480 CURVE SMOOTH",
"861 525 LINE SMOOTH",
"876 532 OFFCURVE",
"880 537 OFFCURVE",
"880 547 CURVE SMOOTH",
"880 552 OFFCURVE",
"878 559 OFFCURVE",
"874 566 CURVE",
"872 566 OFFCURVE",
"718 858 OFFCURVE",
"690 912 CURVE SMOOTH",
"630 1023 OFFCURVE",
"564 1175 OFFCURVE"
);
}
);
width = 895;
}
);
unicode = 005E;
},
{
color = (153,255,187,1);
glyphname = dagger;
lastChange = "2015-11-23 15:56:40 +0000";
layers = (
{
layerId = "3138562F-70A2-47D8-8787-D90195410BEE";
name = Regular;
paths = (
{
closed = 1;
nodes = (
"444 718 LINE SMOOTH",
"461 718 OFFCURVE",
"475 724 OFFCURVE",
"494 749 CURVE",
"516 780 OFFCURVE",
"541 837 OFFCURVE",
"541 853 CURVE",
"541 871 OFFCURVE",
"528 876 OFFCURVE",
"510 876 CURVE",
"367 876 LINE",
"356 876 OFFCURVE",
"350 879 OFFCURVE",
"350 889 CURVE",
"345 964 OFFCURVE",
"345 1034 OFFCURVE",
"342 1093 CURVE",
"342 1104 OFFCURVE",
"336 1115 OFFCURVE",
"322 1115 CURVE",
"272 1115 LINE SMOOTH",
"256 1115 OFFCURVE",
"252 1103 OFFCURVE",
"252 1091 CURVE",
"251 1036 OFFCURVE",
"245 968 OFFCURVE",
"239 894 CURVE",
"239 884 OFFCURVE",
"234 876 OFFCURVE",
"225 876 CURVE",
"145 876 LINE SMOOTH",
"131 876 OFFCURVE",
"118 869 OFFCURVE",
"104 851 CURVE",
"75 819 OFFCURVE",
"41 754 OFFCURVE",
"41 737 CURVE",
"41 722 OFFCURVE",
"53 718 OFFCURVE",
"69 718 CURVE",
"215 718 LINE",
"229 718 OFFCURVE",
"236 711 OFFCURVE",
"236 694 CURVE",
"242 527 OFFCURVE",
"245 400 OFFCURVE",
"251 236 CURVE",
"251 226 OFFCURVE",
"252 215 OFFCURVE",
"268 215 CURVE",
"319 215 LINE SMOOTH",
"335 215 OFFCURVE",
"340 226 OFFCURVE",
"340 236 CURVE",
"343 432 OFFCURVE",
"349 545 OFFCURVE",
"355 696 CURVE",
"355 710 OFFCURVE",
"362 718 OFFCURVE",
"370 718 CURVE"
);
}
);
width = 582;
}
);
unicode = 2020;
userData = {
com.typemytype.robofont.mark = (
0.6,
1,
0.732,
1
);
};
},
{
color = (153,255,187,1);
glyphname = daggerdbl;
lastChange = "2015-11-23 15:56:40 +0000";
layers = (
{
layerId = "3138562F-70A2-47D8-8787-D90195410BEE";
name = Regular;
paths = (
{
closed = 1;
nodes = (
"350 593 CURVE",
"347 633 OFFCURVE",
"350 692 OFFCURVE",
"350 733 CURVE",
"350 746 OFFCURVE",
"358 756 OFFCURVE",
"367 756 CURVE",
"444 756 LINE SMOOTH",
"461 756 OFFCURVE",
"475 761 OFFCURVE",
"494 788 CURVE",
"516 817 OFFCURVE",
"541 872 OFFCURVE",
"541 889 CURVE",
"541 907 OFFCURVE",
"528 910 OFFCURVE",
"510 910 CURVE",
"365 910 LINE SMOOTH",
"355 910 OFFCURVE",
"349 914 OFFCURVE",
"349 923 CURVE",
"345 998 OFFCURVE",
"343 1041 OFFCURVE",
"340 1093 CURVE",
"340 1104 OFFCURVE",
"335 1115 OFFCURVE",
"321 1115 CURVE",
"272 1115 LINE SMOOTH",
"256 1115 OFFCURVE",
"254 1103 OFFCURVE",
"252 1091 CURVE",
"249 1036 OFFCURVE",
"247 1002 OFFCURVE",
"242 930 CURVE",
"239 918 OFFCURVE",
"236 910 OFFCURVE",
"225 910 CURVE",
"145 910 LINE SMOOTH",
"131 910 OFFCURVE",
"118 903 OFFCURVE",
"102 887 CURVE",
"75 853 OFFCURVE",
"41 792 OFFCURVE",
"41 773 CURVE",
"41 760 OFFCURVE",
"53 756 OFFCURVE",
"69 756 CURVE",
"215 756 LINE SMOOTH",
"229 756 OFFCURVE",
"234 749 OFFCURVE",
"236 732 CURVE",
"236 699 OFFCURVE",
"236 645 OFFCURVE",
"234 593 CURVE",
"234 579 OFFCURVE",
"227 571 OFFCURVE",
"218 571 CURVE",
"141 571 LINE SMOOTH",
"123 571 OFFCURVE",
"111 564 OFFCURVE",
"91 539 CURVE",
"69 511 OFFCURVE",
"42 457 OFFCURVE",
"42 441 CURVE",
"42 423 OFFCURVE",
"57 417 OFFCURVE",
"75 417 CURVE",
"220 417 LINE SMOOTH",
"230 417 OFFCURVE",
"236 416 OFFCURVE",
"236 405 CURVE",
"237 330 OFFCURVE",
"242 289 OFFCURVE",
"244 236 CURVE",
"244 226 OFFCURVE",
"249 215 OFFCURVE",
"263 215 CURVE",
"313 215 LINE SMOOTH",
"329 215 OFFCURVE",
"329 226 OFFCURVE",
"331 236 CURVE",
"335 294 OFFCURVE",
"338 326 OFFCURVE",
"343 400 CURVE",
"345 410 OFFCURVE",
"349 417 OFFCURVE",
"358 417 CURVE",
"439 417 LINE SMOOTH",
"453 417 OFFCURVE",
"468 424 OFFCURVE",
"480 443 CURVE",
"509 479 OFFCURVE",
"543 536 OFFCURVE",
"543 556 CURVE",
"543 568 OFFCURVE",
"528 571 OFFCURVE",
"514 571 CURVE",
"372 571 LINE SMOOTH",
"356 571 OFFCURVE",
"350 577 OFFCURVE"
);
}
);
width = 587;
}
);
unicode = 2021;
userData = {
com.typemytype.robofont.mark = (
0.6,
1,
0.732,
1
);
};
},
{
glyphname = verticalbar;
lastChange = "2015-11-23 15:56:40 +0000";
layers = (
{
layerId = "3138562F-70A2-47D8-8787-D90195410BEE";
name = Regular;
paths = (
{
closed = 1;
nodes = (
"285 -53 LINE",
"302 -53 OFFCURVE",
"313 -41 OFFCURVE",
"313 -25 CURVE SMOOTH",
"317 229 OFFCURVE",
"319 368 OFFCURVE",
"319 520 CURVE SMOOTH",
"319 672 OFFCURVE",
"315 819 OFFCURVE",
"313 1014 CURVE SMOOTH",
"313 1031 OFFCURVE",
"302 1043 OFFCURVE",
"285 1043 CURVE SMOOTH",
"218 1043 LINE SMOOTH",
"200 1043 OFFCURVE",
"189 1031 OFFCURVE",
"189 1012 CURVE SMOOTH",
"186 821 OFFCURVE",
"184 672 OFFCURVE",
"184 520 CURVE SMOOTH",
"184 368 OFFCURVE",
"188 208 OFFCURVE",
"189 -24 CURVE SMOOTH",
"189 -41 OFFCURVE",
"200 -53 OFFCURVE",
"218 -53 CURVE SMOOTH"
);
}
);
width = 505;
}
);
unicode = 007C;
},
{
glyphname = uniFB29;
lastChange = "2015-11-23 15:56:40 +0000";
layers = (
{
layerId = "3138562F-70A2-47D8-8787-D90195410BEE";
name = Regular;
paths = (
{
closed = 1;
nodes = (
"523 498 LINE",
"620 498 OFFCURVE",
"820 493 OFFCURVE",
"820 493 CURVE",
"844 493 OFFCURVE",
"849 503 OFFCURVE",
"849 520 CURVE SMOOTH",
"849 611 LINE SMOOTH",
"849 636 OFFCURVE",
"840 640 OFFCURVE",
"824 640 CURVE SMOOTH",
"824 640 OFFCURVE",
"634 634 OFFCURVE",
"523 634 CURVE",
"523 735 OFFCURVE",
"528 923 OFFCURVE",
"528 923 CURVE",
"528 946 OFFCURVE",
"517 951 OFFCURVE",
"501 951 CURVE SMOOTH",
"410 951 LINE SMOOTH",
"384 951 OFFCURVE",
"381 937 OFFCURVE",
"381 927 CURVE SMOOTH",
"381 927 OFFCURVE",
"384 747 OFFCURVE",
"386 634 CURVE",
"258 636 OFFCURVE",
"97 640 OFFCURVE",
"97 640 CURVE",
"73 640 OFFCURVE",
"68 629 OFFCURVE",
"68 611 CURVE SMOOTH",
"68 520 LINE SMOOTH",
"68 503 OFFCURVE",
"73 493 OFFCURVE",
"97 493 CURVE SMOOTH",
"97 493 OFFCURVE",
"261 498 OFFCURVE",
"386 498 CURVE SMOOTH"
);
}
);
width = 956;
}
);
unicode = FB29;
},
{
color = (153,255,187,1);
glyphname = uni0308;
lastChange = "2015-11-23 15:56:40 +0000";
layers = (
{
layerId = "3138562F-70A2-47D8-8787-D90195410BEE";
name = Regular;
paths = (
{
closed = 1;
nodes = (
"-673 1245 CURVE SMOOTH",
"-647 1209 OFFCURVE",
"-599 1168 OFFCURVE",
"-563 1147 CURVE SMOOTH",
"-560 1145 OFFCURVE",
"-555 1144 OFFCURVE",
"-548 1144 CURVE SMOOTH",
"-541 1144 OFFCURVE",
"-536 1147 OFFCURVE",
"-533 1151 CURVE SMOOTH",
"-508 1175 OFFCURVE",
"-468 1217 OFFCURVE",
"-445 1251 CURVE SMOOTH",
"-442 1258 OFFCURVE",
"-438 1265 OFFCURVE",
"-438 1272 CURVE SMOOTH",
"-438 1281 OFFCURVE",
"-443 1289 OFFCURVE",
"-450 1294 CURVE SMOOTH",
"-478 1312 OFFCURVE",
"-526 1355 OFFCURVE",
"-553 1378 CURVE SMOOTH",
"-560 1383 OFFCURVE",
"-563 1387 OFFCURVE",
"-570 1387 CURVE SMOOTH",
"-576 1387 OFFCURVE",
"-583 1383 OFFCURVE",
"-589 1376 CURVE SMOOTH",
"-604 1358 OFFCURVE",
"-653 1305 OFFCURVE",
"-674 1281 CURVE SMOOTH",
"-680 1276 OFFCURVE",
"-681 1269 OFFCURVE",
"-681 1264 CURVE SMOOTH",
"-681 1258 OFFCURVE",
"-678 1251 OFFCURVE"
);
},
{
closed = 1;
nodes = (
"-348 1249 CURVE SMOOTH",
"-322 1215 OFFCURVE",
"-275 1173 OFFCURVE",
"-237 1152 CURVE SMOOTH",
"-233 1149 OFFCURVE",
"-228 1147 OFFCURVE",
"-223 1147 CURVE SMOOTH",
"-218 1147 OFFCURVE",
"-212 1151 OFFCURVE",
"-206 1154 CURVE SMOOTH",
"-182 1181 OFFCURVE",
"-142 1221 OFFCURVE",
"-121 1255 CURVE SMOOTH",
"-117 1262 OFFCURVE",
"-112 1271 OFFCURVE",
"-112 1278 CURVE SMOOTH",
"-112 1285 OFFCURVE",
"-117 1292 OFFCURVE",
"-124 1298 CURVE SMOOTH",
"-151 1315 OFFCURVE",
"-199 1358 OFFCURVE",
"-226 1382 CURVE SMOOTH",
"-233 1387 OFFCURVE",
"-237 1390 OFFCURVE",
"-244 1390 CURVE SMOOTH",
"-252 1390 OFFCURVE",
"-259 1387 OFFCURVE",
"-264 1380 CURVE SMOOTH",
"-278 1362 OFFCURVE",
"-327 1308 OFFCURVE",
"-350 1285 CURVE SMOOTH",
"-355 1279 OFFCURVE",
"-355 1272 OFFCURVE",
"-355 1267 CURVE SMOOTH",
"-355 1262 OFFCURVE",
"-352 1255 OFFCURVE"
);
}
);
width = 0;
}
);
unicode = 0308;
userData = {
com.typemytype.robofont.mark = (
0.6,
1,
0.732,
1
);
};
},
{
glyphname = uni0591;
lastChange = "2015-11-23 15:56:40 +0000";
layers = (
{
guideLines = (
{
position = "{-80, -150}";
},
{
position = "{-80, -682}";
},
{
position = "{-80, 47}";
},
{
position = "{-80, -608}";
},
{
angle = 90;
position = "{692, 0}";
},
{
angle = 90;
position = "{-627, 0}";
},
{
angle = 90;
position = "{-418, 0}";
}
);
layerId = "3138562F-70A2-47D8-8787-D90195410BEE";
name = Regular;
paths = (
{
closed = 1;
nodes = (
"230 -368 CURVE SMOOTH",
"139 -368 OFFCURVE",
"131 -441 OFFCURVE",
"131 -506 CURVE SMOOTH",
"131 -527 OFFCURVE",
"121 -532 OFFCURVE",
"105 -532 CURVE SMOOTH",
"59 -532 LINE SMOOTH",
"42 -532 OFFCURVE",
"30 -527 OFFCURVE",
"30 -509 CURVE SMOOTH",
"32 -417 OFFCURVE",
"46 -317 OFFCURVE",
"174 -282 CURVE",
"186 -158 LINE SMOOTH",
"188 -137 OFFCURVE",
"195 -131 OFFCURVE",
"211 -131 CURVE",
"251 -131 LINE SMOOTH",
"266 -131 OFFCURVE",
"273 -137 OFFCURVE",
"275 -158 CURVE SMOOTH",
"288 -282 LINE",
"415 -317 OFFCURVE",
"430 -417 OFFCURVE",
"432 -509 CURVE SMOOTH",
"432 -527 OFFCURVE",
"419 -532 OFFCURVE",
"403 -532 CURVE SMOOTH",
"356 -532 LINE SMOOTH",
"340 -532 OFFCURVE",
"331 -527 OFFCURVE",
"331 -506 CURVE SMOOTH",
"331 -441 OFFCURVE",
"322 -368 OFFCURVE"
);
}
);
width = 0;
}
);
unicode = 0591;
userData = {
com.typemytype.robofont.guides = (
{
angle = 0;
isGlobal = 0;
magnetic = 5;
x = 0;
y = -73;
},
{
angle = 0;
isGlobal = 0;
magnetic = 5;
x = 0;
y = -333;
},
{
angle = 0;
isGlobal = 0;
magnetic = 5;
x = 0;
y = 23;
},
{
angle = 0;
isGlobal = 0;
magnetic = 5;
x = 0;
y = -297;
},
{
angle = 90;
isGlobal = 0;
magnetic = 5;
x = 377;
y = 0;
},
{
angle = 90;
isGlobal = 0;
magnetic = 5;
x = -267;
y = 0;
},
{
angle = 90;
isGlobal = 0;
magnetic = 5;
x = -165;
y = 0;
}
);
};
},
